<svg xmlns="http://www.w3.org/2000/svg" width="23" height="20" viewBox="0 0 23 20" fill="none">
<path d="M20.875 17.703H22.9583V19.8362H0.041626V17.703H2.12496V1.70428C2.12496 1.4214 2.23471 1.15011 2.43006 0.95009C2.62541 0.750067 2.89036 0.637695 3.16663 0.637695H13.5833C13.8596 0.637695 14.1245 0.750067 14.3199 0.95009C14.5152 1.15011 14.625 1.4214 14.625 1.70428V17.703H16.7083V7.03718H19.8333C20.1096 7.03718 20.3745 7.14955 20.5699 7.34958C20.7652 7.5496 20.875 7.82089 20.875 8.10376V17.703ZM6.29163 9.17034V11.3035H10.4583V9.17034H6.29163ZM6.29163 4.90402V7.03718H10.4583V4.90402H6.29163Z" fill="black"/>
</svg>