<svg xmlns="http://www.w3.org/2000/svg" width="20" height="21" viewBox="0 0 20 21" fill="none">
<path d="M16.2002 9.5498H2.90024C1.8509 9.5498 1.00024 10.4005 1.00024 11.4498V18.0998C1.00024 19.1491 1.8509 19.9998 2.90024 19.9998H16.2002C17.2496 19.9998 18.1002 19.1491 18.1002 18.0998V11.4498C18.1002 10.4005 17.2496 9.5498 16.2002 9.5498Z" stroke="#EC1B25" stroke-width="2" stroke-linecap="round" stroke-linejoin="round"/>
<path d="M4.80029 9.55V5.75C4.80029 4.49022 5.30074 3.28204 6.19154 2.39124C7.08233 1.50044 8.29051 1 9.55029 1C10.8101 1 12.0183 1.50044 12.9091 2.39124C13.7998 3.28204 14.3003 4.49022 14.3003 5.75V9.55" stroke="#EC1B25" stroke-width="2" stroke-linecap="round" stroke-linejoin="round"/>
</svg>