<svg xmlns="http://www.w3.org/2000/svg" width="20" height="21" viewBox="0 0 20 21" fill="none">
<path d="M16.2 9.5498H2.9C1.85066 9.5498 1 10.4005 1 11.4498V18.0998C1 19.1491 1.85066 19.9998 2.9 19.9998H16.2C17.2493 19.9998 18.1 19.1491 18.1 18.0998V11.4498C18.1 10.4005 17.2493 9.5498 16.2 9.5498Z" stroke="#3A3A3A" stroke-width="2" stroke-linecap="round" stroke-linejoin="round"/>
<path d="M4.80005 9.55V5.75C4.80005 4.49022 5.30049 3.28204 6.19129 2.39124C7.08209 1.50044 8.29027 1 9.55005 1C10.8098 1 12.018 1.50044 12.9088 2.39124C13.7996 3.28204 14.3 4.49022 14.3 5.75V9.55" stroke="#3A3A3A" stroke-width="2" stroke-linecap="round" stroke-linejoin="round"/>
</svg>