<svg xmlns="http://www.w3.org/2000/svg" width="20" height="20" viewBox="0 0 20 20" fill="none">
<path d="M19.6329 9.11393L10.8858 0.366792C10.3967 -0.122264 9.60338 -0.122264 9.11393 0.366792L0.366792 9.11393C-0.122264 9.60338 -0.122264 10.3963 0.366792 10.8858L9.11393 19.6329C9.60299 20.1224 10.3963 20.1224 10.8858 19.6329L19.6329 10.8858C20.122 10.3963 20.122 9.60338 19.6329 9.11393ZM15.6884 9.60455L12.399 12.6408C12.199 12.8256 11.8744 12.6838 11.8744 12.4111V10.3123H8.12449V12.8123C8.12449 12.985 7.98465 13.1248 7.812 13.1248H6.56201C6.38936 13.1248 6.24952 12.985 6.24952 12.8123V9.68736C6.24952 8.99713 6.80928 8.43738 7.4995 8.43738H11.8744V6.33858C11.8744 6.06632 12.1987 5.92413 12.399 6.1089L15.6884 9.14518C15.8224 9.26901 15.8224 9.48072 15.6884 9.60455Z" fill="#00ADEE"/>
</svg>