<svg width="25" height="25" viewBox="0 0 25 25" fill="none" xmlns="http://www.w3.org/2000/svg">
<circle cx="12.5" cy="12.5" r="12.5" fill="#D9D9D9"/>
<path d="M17.9812 8.94012C17.9711 8.8393 17.9351 8.74266 17.8767 8.65924C17.8183 8.57582 17.7394 8.50836 17.6473 8.46317L12.7724 6.06342C12.6877 6.02172 12.5944 6 12.4997 6C12.405 6 12.3117 6.02172 12.227 6.06342L7.3521 8.46317C7.26026 8.50862 7.18155 8.57616 7.12328 8.65954C7.06501 8.74292 7.02907 8.83943 7.01878 8.94012C7.01208 9.00432 6.43318 15.3996 12.2526 17.9476C12.3304 17.9821 12.4147 18 12.5 18C12.5853 18 12.6696 17.9821 12.7474 17.9476C18.5668 15.3996 17.9879 9.00492 17.9812 8.94012ZM12.5 16.7375C8.37522 14.7745 8.18023 10.5852 8.21374 9.38108L12.5 7.2711L16.7832 9.37988C16.8058 10.5732 16.5833 14.7901 12.5 16.7375Z" fill="black"/>
<path d="M11.7564 12.6172L10.0514 10.6852L9 11.8766L11.7564 15L16 10.1914L14.9486 9L11.7564 12.6172Z" fill="black"/>
</svg>
