<svg width="25" height="25" viewBox="0 0 25 25" fill="none" xmlns="http://www.w3.org/2000/svg">
<circle cx="12.5" cy="12.5" r="12.5" fill="#D9D9D9"/>
<path d="M12.5 7.21875C9.58262 7.21875 7.21875 9.58262 7.21875 12.5V13.5156C7.21875 13.8533 6.94707 14.125 6.60938 14.125C6.27168 14.125 6 13.8533 6 13.5156V12.5C6 8.90977 8.90977 6 12.5 6C16.0902 6 19 8.90977 19 12.5V16.1588C19 17.3928 17.9996 18.3932 16.7631 18.3932L13.9625 18.3906C13.7518 18.7537 13.3582 19 12.9062 19H12.0938C11.4209 19 10.875 18.4541 10.875 17.7812C10.875 17.1084 11.4209 16.5625 12.0938 16.5625H12.9062C13.3582 16.5625 13.7518 16.8088 13.9625 17.1719L16.7656 17.1744C17.3268 17.1744 17.7812 16.7199 17.7812 16.1588V12.5C17.7812 9.58262 15.4174 7.21875 12.5 7.21875ZM9.65625 11.2812H10.0625C10.5119 11.2812 10.875 11.6443 10.875 12.0938V14.9375C10.875 15.3869 10.5119 15.75 10.0625 15.75H9.65625C8.75996 15.75 8.03125 15.0213 8.03125 14.125V12.9062C8.03125 12.01 8.75996 11.2812 9.65625 11.2812ZM15.3438 11.2812C16.24 11.2812 16.9688 12.01 16.9688 12.9062V14.125C16.9688 15.0213 16.24 15.75 15.3438 15.75H14.9375C14.4881 15.75 14.125 15.3869 14.125 14.9375V12.0938C14.125 11.6443 14.4881 11.2812 14.9375 11.2812H15.3438Z" fill="black"/>
</svg>
