<svg width="25" height="25" viewBox="0 0 25 25" fill="none" xmlns="http://www.w3.org/2000/svg">
<circle cx="12.5" cy="12.5" r="12.5" fill="#D9D9D9"/>
<path d="M15.45 11.25C15.1778 11.25 14.9177 11.1792 14.6851 11.0494C14.9835 10.4324 15.15 9.73498 15.15 9C15.15 8.5084 15.0753 8.03317 14.9361 7.58759C15.0993 7.53035 15.272 7.5 15.45 7.5C16.342 7.5 17.15 8.28886 17.15 9.375C17.15 10.4611 16.342 11.25 15.45 11.25ZM19.2499 17.25H17.25V17.0625C17.25 16.0377 16.9817 15.0736 16.5123 14.2503C17.9733 14.2738 19.2349 15.5572 19.2499 17.25ZM12.95 9C12.95 10.2924 11.9845 11.25 10.9 11.25C9.81555 11.25 8.85 10.2924 8.85 9C8.85 7.70761 9.81555 6.75 10.9 6.75C11.9845 6.75 12.95 7.70761 12.95 9ZM15.0496 17.25H6.75037C6.77703 15.3326 8.22341 13.875 9.90031 13.875H11.8997C13.5766 13.875 15.023 15.3326 15.0496 17.25Z" stroke="black" stroke-width="1.5"/>
</svg>
