<svg width="25" height="25" viewBox="0 0 25 25" fill="none" xmlns="http://www.w3.org/2000/svg">
<circle cx="12.5" cy="12.5" r="12.5" fill="#D9D9D9"/>
<path d="M18.8605 17.5294C18.8605 17.5294 18.0767 18.2907 17.8846 18.5139C17.5717 18.8441 17.203 19 16.7197 19C16.6733 19 16.6237 19 16.5772 18.9969C15.6571 18.9389 14.8021 18.5842 14.1608 18.2815C12.4073 17.4438 10.8676 16.2545 9.58811 14.7473C8.53169 13.4907 7.82534 12.3289 7.35754 11.0815C7.06942 10.3203 6.96409 9.72713 7.01056 9.16764C7.04154 8.80994 7.18095 8.51338 7.43809 8.25962L8.49451 7.21707C8.64631 7.07643 8.80741 7 8.96541 7C9.16058 7 9.31858 7.11618 9.41772 7.21401C9.42082 7.21707 9.42391 7.22013 9.42701 7.22318C9.61599 7.39745 9.79568 7.57783 9.98466 7.77045C10.0807 7.86828 10.1798 7.96611 10.279 8.06701L11.1247 8.90166C11.4531 9.22573 11.4531 9.52535 11.1247 9.84943C11.0349 9.93809 10.9481 10.0268 10.8583 10.1124C10.5981 10.3753 10.8025 10.1735 10.533 10.412C10.5268 10.4181 10.5206 10.4212 10.5175 10.4273C10.251 10.6902 10.3006 10.947 10.3564 11.1213C10.3595 11.1305 10.3626 11.1397 10.3657 11.1488C10.5856 11.6747 10.8954 12.17 11.3663 12.76L11.3694 12.7631C12.2245 13.8026 13.126 14.6128 14.1205 15.2334C14.2475 15.3129 14.3776 15.3771 14.5015 15.4383C14.613 15.4933 14.7184 15.5453 14.8082 15.6003C14.8206 15.6064 14.833 15.6156 14.8454 15.6217C14.9507 15.6737 15.0499 15.6981 15.1521 15.6981C15.4092 15.6981 15.5703 15.5391 15.623 15.4872L16.2303 14.8879C16.3356 14.7839 16.5029 14.6586 16.6981 14.6586C16.8901 14.6586 17.0481 14.7778 17.1442 14.8818C17.1473 14.8848 17.1473 14.8848 17.1504 14.8879L18.8574 16.5725C19.1765 16.8843 18.8605 17.5294 18.8605 17.5294Z" stroke="black" stroke-width="1.5" stroke-linecap="round" stroke-linejoin="round"/>
</svg>
