<svg xmlns="http://www.w3.org/2000/svg" width="25" height="25" viewBox="0 0 25 25" fill="none">
<circle cx="12.5" cy="12.5" r="12.5" fill="#D9D9D9"/>
<path d="M12.5941 7.2169L12.6668 7.12264C12.6718 7.6597 12.9004 8.17074 13.2947 8.53548C13.2951 8.53581 13.2954 8.53615 13.2958 8.53648L15.4994 10.586C15.4994 10.5861 15.4995 10.5862 15.4996 10.5863C16.62 11.6296 17.25 13.0717 17.25 14.5744C17.25 16.5875 15.5725 18.25 13.4609 18.25H13C10.6358 18.25 8.75 16.3844 8.75 14.125V14.0285C8.75 13.0785 9.1058 12.1609 9.75 11.4464V13.3125C9.75 14.6408 10.8512 15.6875 12.1667 15.6875C13.4821 15.6875 14.5833 14.6408 14.5833 13.3125V13.2135C14.5833 12.5506 14.3115 11.9188 13.8387 11.4577L12.8335 10.4776C12.3518 10.008 12.0833 9.37074 12.0833 8.71172C12.0833 8.17466 12.2625 7.64738 12.5941 7.21691C12.5941 7.21691 12.5941 7.2169 12.5941 7.2169Z" stroke="black" stroke-width="1.5"/>
</svg>