<svg width="25" height="25" viewBox="0 0 25 25" fill="none" xmlns="http://www.w3.org/2000/svg">
<circle cx="12.5" cy="12.5" r="12.5" fill="#D9D9D9"/>
<mask id="path-2-inside-1_5492_13572" fill="white">
<path d="M11.2656 13.9657L8.98099 11.5968L8 12.614L11.2656 16L18 9.01717L17.019 8L11.2656 13.9657Z"/>
</mask>
<path d="M11.2656 13.9657L8.98099 11.5968L8 12.614L11.2656 16L18 9.01717L17.019 8L11.2656 13.9657Z" fill="black"/>
<path d="M11.2656 13.9657L4.06764 20.9075L11.2656 28.371L18.4635 20.9075L11.2656 13.9657ZM8.98099 11.5968L16.1789 4.65492L8.98099 -2.80852L1.78306 4.65492L8.98099 11.5968ZM8 12.614L0.802065 5.67209L-5.89287 12.614L0.802065 19.5559L8 12.614ZM11.2656 16L4.06764 22.9419L11.2656 30.4053L18.4635 22.9419L11.2656 16ZM18 9.01717L25.1979 15.9591L31.8929 9.01717L25.1979 2.07529L18 9.01717ZM17.019 8L24.2169 1.05811L17.019 -6.40531L9.82107 1.05812L17.019 8ZM18.4635 7.02377L16.1789 4.65492L1.78306 18.5387L4.06764 20.9075L18.4635 7.02377ZM1.78306 4.65492L0.802065 5.67209L15.1979 19.5559L16.1789 18.5387L1.78306 4.65492ZM0.802065 19.5559L4.06764 22.9419L18.4635 9.05812L15.1979 5.67209L0.802065 19.5559ZM18.4635 22.9419L25.1979 15.9591L10.8021 2.07529L4.06764 9.05812L18.4635 22.9419ZM25.1979 2.07529L24.2169 1.05811L9.82108 14.9419L10.8021 15.9591L25.1979 2.07529ZM9.82107 1.05812L4.06764 7.02377L18.4635 20.9075L24.2169 14.9419L9.82107 1.05812Z" fill="black" mask="url(#path-2-inside-1_5492_13572)"/>
</svg>
