<svg xmlns="http://www.w3.org/2000/svg" width="15" height="16" viewBox="0 0 12 16" fill="none">
<g filter="url(#filter0_i_612_3881)">
<path d="M5.99974 15.1948C4.79742 15.1947 3.62285 14.8771 2.62833 14.2833C1.63381 13.6894 0.865207 12.8466 0.422184 11.8641C-0.0208391 10.8817 -0.117853 9.80495 0.143721 8.77348C0.405296 7.742 1.01339 6.80338 1.88917 6.07932C2.96282 5.19119 5.59973 3.59213 5.19971 0.0761719C9.99992 2.88894 12.4 5.70171 7.59981 9.92086C8.39985 9.92086 9.5999 9.92086 11.6 8.18397C11.816 8.72754 12 9.31189 12 9.92086C12 11.3196 11.3678 12.661 10.2426 13.6501C9.1173 14.6391 7.59111 15.1948 5.99974 15.1948Z" fill="#EC1B25"/>
</g>
<defs>
<filter id="filter0_i_612_3881" x="0" y="0.0761719" width="12" height="16.0598" filterUnits="userSpaceOnUse" color-interpolation-filters="sRGB">
<feFlood flood-opacity="0" result="BackgroundImageFix"/>
<feBlend mode="normal" in="SourceGraphic" in2="BackgroundImageFix" result="shape"/>
<feColorMatrix in="SourceAlpha" type="matrix" values="0 0 0 0 0 0 0 0 0 0 0 0 0 0 0 0 0 0 127 0" result="hardAlpha"/>
<feOffset dy="0.941177"/>
<feGaussianBlur stdDeviation="0.470588"/>
<feComposite in2="hardAlpha" operator="arithmetic" k2="-1" k3="1"/>
<feColorMatrix type="matrix" values="0 0 0 0 0 0 0 0 0 0 0 0 0 0 0 0 0 0 0.25 0"/>
<feBlend mode="normal" in2="shape" result="effect1_innerShadow_612_3881"/>
</filter>
</defs>
</svg>