<svg xmlns="http://www.w3.org/2000/svg" width="25" height="24" viewBox="0 0 25 24" fill="none">
<path d="M12.8406 14C13.9451 14 14.8406 13.1046 14.8406 12C14.8406 10.8954 13.9451 10 12.8406 10C11.736 10 10.8406 10.8954 10.8406 12C10.8406 13.1046 11.736 14 12.8406 14Z" stroke="#0A7BFF" stroke-width="2" stroke-linecap="round" stroke-linejoin="round"/>
<path d="M5.77064 19.0699C3.89593 17.1947 2.84277 14.6516 2.84277 11.9999C2.84277 9.34829 3.89593 6.80521 5.77064 4.92993" stroke="#0A7BFF" stroke-width="2" stroke-linecap="round" stroke-linejoin="round"/>
<path d="M8.60051 16.24C8.04321 15.6818 7.60145 15.0191 7.30051 14.29C6.69215 12.8205 6.69215 11.1695 7.30051 9.7C7.60145 8.97087 8.04321 8.30823 8.60051 7.75" stroke="#0A7BFF" stroke-width="2" stroke-linecap="round" stroke-linejoin="round"/>
<path d="M17.0806 7.76001C17.6434 8.33295 18.0855 9.01306 18.3806 9.76001C18.9889 11.2295 18.9889 12.8805 18.3806 14.35C18.0796 15.0791 17.6379 15.7418 17.0806 16.3" stroke="#0A7BFF" stroke-width="2" stroke-linecap="round" stroke-linejoin="round"/>
<path d="M19.9106 4.92993C21.7854 6.80521 22.8385 9.34829 22.8385 11.9999C22.8385 14.6516 21.7854 17.1947 19.9106 19.0699" stroke="#0A7BFF" stroke-width="2" stroke-linecap="round" stroke-linejoin="round"/>
</svg>