<svg xmlns="http://www.w3.org/2000/svg" width="25" height="24" viewBox="0 0 25 24" fill="none">
<path d="M12.8406 14C13.9451 14 14.8406 13.1046 14.8406 12C14.8406 10.8954 13.9451 10 12.8406 10C11.736 10 10.8406 10.8954 10.8406 12C10.8406 13.1046 11.736 14 12.8406 14Z" stroke="#3A3A3A" stroke-width="2" stroke-linecap="round" stroke-linejoin="round"/>
<path d="M5.77064 19.0702C3.89593 17.1949 2.84277 14.6518 2.84277 12.0002C2.84277 9.34853 3.89593 6.80545 5.77064 4.93018" stroke="#3A3A3A" stroke-width="2" stroke-linecap="round" stroke-linejoin="round"/>
<path d="M8.60051 16.24C8.04321 15.6818 7.60145 15.0191 7.30051 14.29C6.69215 12.8205 6.69215 11.1695 7.30051 9.7C7.60145 8.97087 8.04321 8.30823 8.60051 7.75" stroke="#3A3A3A" stroke-width="2" stroke-linecap="round" stroke-linejoin="round"/>
<path d="M17.0806 7.75977C17.6434 8.33271 18.0855 9.01281 18.3806 9.75977C18.9889 11.2293 18.9889 12.8802 18.3806 14.3498C18.0796 15.0789 17.6379 15.7415 17.0806 16.2998" stroke="#3A3A3A" stroke-width="2" stroke-linecap="round" stroke-linejoin="round"/>
<path d="M19.9106 4.93018C21.7854 6.80545 22.8385 9.34853 22.8385 12.0002C22.8385 14.6518 21.7854 17.1949 19.9106 19.0702" stroke="#3A3A3A" stroke-width="2" stroke-linecap="round" stroke-linejoin="round"/>
</svg>