<svg xmlns="http://www.w3.org/2000/svg" width="25" height="19" viewBox="0 0 25 19" fill="none">
<path d="M3.75 8.25921C5.12891 8.25921 6.25 7.11806 6.25 5.71447C6.25 4.31089 5.12891 3.16974 3.75 3.16974C2.37109 3.16974 1.25 4.31089 1.25 5.71447C1.25 7.11806 2.37109 8.25921 3.75 8.25921ZM21.25 8.25921C22.6289 8.25921 23.75 7.11806 23.75 5.71447C23.75 4.31089 22.6289 3.16974 21.25 3.16974C19.8711 3.16974 18.75 4.31089 18.75 5.71447C18.75 7.11806 19.8711 8.25921 21.25 8.25921ZM22.5 9.53158H20C19.3125 9.53158 18.6914 9.81389 18.2383 10.2711C19.8125 11.1499 20.9297 12.7364 21.1719 14.6211H23.75C24.4414 14.6211 25 14.0525 25 13.3487V12.0763C25 10.6727 23.8789 9.53158 22.5 9.53158ZM12.5 9.53158C14.918 9.53158 16.875 7.53953 16.875 5.07829C16.875 2.61705 14.918 0.625 12.5 0.625C10.082 0.625 8.125 2.61705 8.125 5.07829C8.125 7.53953 10.082 9.53158 12.5 9.53158ZM15.5 10.8039H15.1758C14.3633 11.2016 13.4609 11.4401 12.5 11.4401C11.5391 11.4401 10.6406 11.2016 9.82422 10.8039H9.5C7.01562 10.8039 5 12.8556 5 15.3845V16.5296C5 17.5833 5.83984 18.4382 6.875 18.4382H18.125C19.1602 18.4382 20 17.5833 20 16.5296V15.3845C20 12.8556 17.9844 10.8039 15.5 10.8039ZM6.76172 10.2711C6.30859 9.81389 5.6875 9.53158 5 9.53158H2.5C1.12109 9.53158 0 10.6727 0 12.0763V13.3487C0 14.0525 0.558594 14.6211 1.25 14.6211H3.82422C4.07031 12.7364 5.1875 11.1499 6.76172 10.2711Z" fill="black"/>
</svg>