<svg width="22" height="23" viewBox="0 0 22 23" fill="none" xmlns="http://www.w3.org/2000/svg">
<path d="M20.0449 3.63252L11.7949 0.195022C11.5436 0.090771 11.2742 0.0371094 11.0021 0.0371094C10.7301 0.0371094 10.4607 0.090771 10.2094 0.195022L1.95937 3.63252C1.19023 3.95049 0.6875 4.70244 0.6875 5.53604C0.6875 14.0653 5.60742 19.9606 10.2051 21.8771C10.7121 22.0876 11.2836 22.0876 11.7906 21.8771C15.473 20.3431 21.3125 15.045 21.3125 5.53604C21.3125 4.70244 20.8098 3.95049 20.0449 3.63252ZM11.0043 19.213L11 2.8419L18.5582 5.99151C18.4164 12.497 15.0305 17.2106 11.0043 19.213Z" fill="black"/>
</svg>
