<svg width="20" height="17" viewBox="0 0 20 17" fill="none" xmlns="http://www.w3.org/2000/svg">
<path d="M13.9792 2.75972L17.1111 5.75522C17.2431 5.88142 17.2431 6.08732 17.1111 6.21352L9.52778 13.4665L6.30556 13.8086C5.875 13.855 5.51042 13.5063 5.55903 13.0945L5.91667 10.0127L13.5 2.75972C13.6319 2.63352 13.8472 2.63352 13.9792 2.75972ZM19.6042 1.99922L17.9097 0.37859C17.3819 -0.126197 16.5243 -0.126197 15.9931 0.37859L14.7639 1.55421C14.6319 1.68041 14.6319 1.88631 14.7639 2.0125L17.8958 5.00801C18.0278 5.13421 18.2431 5.13421 18.375 5.00801L19.6042 3.83239C20.1319 3.32428 20.1319 2.504 19.6042 1.99922ZM13.3333 11.4938V14.8746H2.22222V4.24751H10.2014C10.3125 4.24751 10.4167 4.20434 10.4965 4.13128L11.8854 2.80289C12.1493 2.5505 11.9618 2.12209 11.5903 2.12209H1.66667C0.746528 2.12209 0 2.8361 0 3.71616V15.4059C0 16.286 0.746528 17 1.66667 17H13.8889C14.809 17 15.5556 16.286 15.5556 15.4059V10.1655C15.5556 9.81012 15.1076 9.63411 14.8438 9.88318L13.4549 11.2116C13.3785 11.2879 13.3333 11.3876 13.3333 11.4938Z" fill="#0A7BFF"/>
</svg>
