<svg xmlns="http://www.w3.org/2000/svg" width="20" height="17" viewBox="0 0 20 17" fill="none">
<path d="M11.875 11.8393C11.3574 11.8393 10.9375 12.2468 10.9375 12.75C10.9375 13.2528 11.3574 13.6607 11.875 13.6607C12.393 13.6607 12.8125 13.2528 12.8125 12.75C12.8125 12.2453 12.3945 11.8393 11.875 11.8393ZM17.5 0H2.5C1.11914 0 0 1.08717 0 2.42857V14.5714C0 15.9128 1.11914 17 2.5 17H17.5C18.8809 17 20 15.9128 20 14.5714V2.42857C20 1.08717 18.8789 0 17.5 0ZM18.125 14.5714C18.125 14.9062 17.8446 15.1786 17.5 15.1786H2.5C2.15539 15.1786 1.875 14.9062 1.875 14.5714V10.9286C1.875 10.5938 2.15539 10.3214 2.5 10.3214H17.5C17.8438 10.3214 18.125 10.5946 18.125 10.9286V14.5714ZM18.125 8.58728C17.9258 8.53415 17.7188 8.5 17.5 8.5H2.5C2.28281 8.5 2.07578 8.53415 1.875 8.58728V2.42857C1.875 2.09381 2.15539 1.82143 2.5 1.82143H17.5C17.8446 1.82143 18.125 2.09381 18.125 2.42857V8.58728ZM15.625 11.8393C15.1074 11.8393 14.6875 12.2468 14.6875 12.75C14.6875 13.2528 15.1074 13.6607 15.625 13.6607C16.143 13.6607 16.5625 13.2528 16.5625 12.75C16.5625 12.2453 16.1445 11.8393 15.625 11.8393Z" fill="#0A7BFF"/>
</svg>