<svg xmlns="http://www.w3.org/2000/svg" width="21" height="21" viewBox="0 0 21 21" fill="none">
<path d="M9.49854 3.00293H2.88857C2.38769 3.00293 1.90732 3.2019 1.55315 3.55608C1.19897 3.91025 1 4.39062 1 4.8915V18.1115C1 18.6123 1.19897 19.0927 1.55315 19.4469C1.90732 19.801 2.38769 20 2.88857 20H16.1085C16.6094 20 17.0898 19.801 17.4439 19.4469C17.7981 19.0927 17.9971 18.6123 17.9971 18.1115V11.5015" stroke="#FF8A47" stroke-width="2" stroke-linecap="round" stroke-linejoin="round"/>
<path d="M16.5807 1.5867C16.9564 1.21104 17.4659 1 17.9972 1C18.5284 1 19.0379 1.21104 19.4136 1.5867C19.7892 1.96236 20.0003 2.47186 20.0003 3.00313C20.0003 3.53439 19.7892 4.04389 19.4136 4.41955L10.4429 13.3902L6.66577 14.3345L7.61005 10.5574L16.5807 1.5867Z" stroke="#FF8A47" stroke-width="2" stroke-linecap="round" stroke-linejoin="round"/>
</svg>