<svg xmlns="http://www.w3.org/2000/svg" width="24" height="24" viewBox="0 0 24 24" fill="none">
<path d="M15.5398 12.6115C15.356 14.3142 13.827 15.5428 12.1239 15.359C10.4208 15.1752 9.19178 13.6467 9.37564 11.944C9.55951 10.2413 11.0885 9.01268 12.7916 9.1965C14.4899 9.38031 15.7237 10.9088 15.5398 12.6115ZM11.3884 23.9837C4.29042 23.6112 -0.785121 17.2987 0.100317 10.4687C0.642225 6.27969 3.28402 2.87917 6.83061 1.18133C14.6205 -2.54811 23.7507 2.99043 23.9926 11.6586C24.191 18.7692 18.2639 24.3416 11.3884 23.9837ZM20.0928 15.2768C21.4428 9.56896 12.3271 5.3171 8.61601 3.94818C5.83389 6.6715 5.27263 13.0711 6.98061 20.6073C10.3095 21.3716 15.1624 19.3303 20.0928 15.2768Z" fill="black"/>
</svg>