<svg width="25" height="25" viewBox="0 0 25 25" fill="none" xmlns="http://www.w3.org/2000/svg">
<circle cx="12.5" cy="12.5" r="12.5" fill="#D9D9D9"/>
<path d="M15.4643 8.75C15.4643 10.4139 14.1306 11.75 12.5 11.75C10.8694 11.75 9.53571 10.4139 9.53571 8.75C9.53571 7.08614 10.8694 5.75 12.5 5.75C14.1306 5.75 15.4643 7.08614 15.4643 8.75ZM12.5 14.6562C13.3075 14.6562 14.0769 14.4869 14.775 14.1875H15.1C16.8322 14.1875 18.25 15.6086 18.25 17.375V18.5938C18.25 18.9627 17.9552 19.25 17.6071 19.25H7.39286C7.04485 19.25 6.75 18.9627 6.75 18.5938V17.375C6.75 15.6086 8.16784 14.1875 9.9 14.1875H10.2255C10.9247 14.4865 11.6915 14.6562 12.5 14.6562Z" stroke="black" stroke-width="1.5"/>
</svg>
