<?xml version="1.0" encoding="utf-8"?>
<!-- Generator: Adobe Illustrator 25.3.0, SVG Export Plug-In . SVG Version: 6.00 Build 0)  -->
<svg version="1.1" id="Ñëîé_1" xmlns="http://www.w3.org/2000/svg" xmlns:xlink="http://www.w3.org/1999/xlink" x="0px" y="0px"
	 viewBox="0 0 54.65 62.62" style="enable-background:new 0 0 54.65 62.62;" xml:space="preserve">
<style type="text/css">
	.st0{fill:#FF4431;}
	.st1{fill:#E53013;}
	.st2{opacity:0.2;}
	.st3{opacity:0.3;}
	.st4{opacity:0.1;}
	.st5{fill:#CCD7E2;}
	.st6{fill:#4F5266;}
	.st7{fill:#353747;}
	.st8{opacity:0.4;}
	.st9{fill:#78CFF1;}
	.st10{opacity:0.5;}
	.st11{fill:#049AB2;}
	.st12{fill:#FFB32C;}
	.st13{fill:#FFD67B;}
</style>
<g>
	<g>
		<rect x="-624.3" y="172.01" class="st0" width="30.67" height="41.42"/>
	</g>
	<g>
		<rect x="-593.63" y="176.31" class="st1" width="2.55" height="15.95"/>
	</g>
	<g>
		<path class="st0" d="M-608.97,158.85c-6.82,0-12.59,4.45-14.58,10.61h29.16C-596.38,163.3-602.15,158.85-608.97,158.85z"/>
	</g>
	<g>
		<rect x="-591.08" y="178.36" class="st0" width="2.56" height="11.86"/>
	</g>
	<g class="st2">
		<rect x="-609.95" y="162.22" width="2.56" height="3.87"/>
	</g>
	<g class="st2">
		<rect x="-619.49" y="196.84" width="2.56" height="14.01"/>
	</g>
	<g class="st2">
		<rect x="-609.8" y="196.84" width="2.56" height="14.01"/>
	</g>
	<g class="st2">
		<rect x="-600.11" y="196.84" width="2.56" height="14.01"/>
	</g>
	<g>
		<rect x="-627.05" y="169.46" class="st1" width="36.16" height="2.56"/>
	</g>
	<g>
		<rect x="-624.3" y="213.43" class="st1" width="30.67" height="2.55"/>
	</g>
	<g>
		<polygon class="st0" points="-628.39,220.59 -589.55,220.59 -593.63,215.99 -624.3,215.99 		"/>
	</g>
	<g>
		<rect x="-614.72" y="157.38" class="st1" width="11.5" height="2.55"/>
	</g>
	<g class="st2">
		<path d="M-618.11,166.09h2.91c0.47-1.19,2.74-3.24,3.85-3.87h-2.98C-615.88,163.02-617.33,164.64-618.11,166.09z"/>
	</g>
	<g class="st2">
		<path d="M-598.88,166.09h-2.79c-0.82-1.64-2.86-3.24-3.96-3.87h2.98C-601.11,163.02-599.66,164.64-598.88,166.09z"/>
	</g>
	<g>
		<g>
			<path class="st1" d="M-608.12,192.26c-4.4,0-7.97-3.58-7.97-7.97c0-4.4,3.58-7.97,7.97-7.97c4.4,0,7.97,3.58,7.97,7.97
				C-600.14,188.69-603.72,192.26-608.12,192.26z M-608.12,178.87c-2.99,0-5.42,2.43-5.42,5.42c0,2.99,2.43,5.42,5.42,5.42
				c2.99,0,5.42-2.43,5.42-5.42C-602.7,181.3-605.13,178.87-608.12,178.87z"/>
		</g>
	</g>
	<g>
		<rect x="-626.86" y="176.31" class="st1" width="2.56" height="15.95"/>
	</g>
	<g>
		<rect x="-629.41" y="178.36" class="st0" width="2.56" height="11.86"/>
	</g>
	<g class="st3">
		<polygon points="-609.87,187.33 -611.63,184.29 -609.87,181.25 -606.36,181.25 -604.6,184.29 -606.36,187.33 		"/>
	</g>
	<g class="st4">
		<rect x="-608.52" y="172.01" width="14.89" height="41.42"/>
	</g>
	<g class="st4">
		<path d="M-608.52,169.46h14.13c-1.42-4.38-4.76-7.85-9.02-9.52h-5.12V169.46z"/>
	</g>
	<g class="st4">
		<polygon points="-608.52,172.01 -593.63,172.01 -590.89,172.01 -590.89,169.46 -594.39,169.46 -608.52,169.46 		"/>
	</g>
	<g class="st4">
		<rect x="-608.52" y="213.43" width="14.89" height="2.55"/>
	</g>
	<g class="st4">
		<polygon points="-593.63,215.99 -608.52,215.99 -608.52,220.59 -589.55,220.59 		"/>
	</g>
	<g class="st4">
		<polygon points="-608.52,157.38 -608.52,158.89 -608.52,159.94 -603.4,159.94 -603.22,159.94 -603.22,157.38 		"/>
	</g>
</g>
<g>
	<g>
		<path d="M-132.92,29.5l-1.1,0.32l-5.6,1.61l-1.04,0.3l2.69,9.33l1.04-0.3l4.49,15.58c0.45,1.55,2.06,2.44,3.61,1.99l0,0
			c1.55-0.45,2.44-2.06,1.99-3.61l-4.49-15.58l1.11-0.32L-132.92,29.5z"/>
	</g>
	<g>
		<path d="M-135.08,24.51c0,3.75-3.04,6.8-6.8,6.8c-3.75,0-6.8-3.04-6.8-6.8s3.04-6.8,6.8-6.8
			C-138.12,17.72-135.08,20.76-135.08,24.51z"/>
	</g>
	<g>
		<path class="st5" d="M-89.38,24.51c0,3.75-3.04,6.8-6.8,6.8s-6.8-3.04-6.8-6.8s3.04-6.8,6.8-6.8S-89.38,20.76-89.38,24.51z"/>
	</g>
	<g>
		<path class="st6" d="M-132.36,15.77h-13.19v17.48h13.19c0.17,0,0.33,0.01,0.5,0.02V15.76C-132.03,15.76-132.19,15.77-132.36,15.77
			z"/>
	</g>
	<g>
		<path class="st6" d="M-110.93,9.93c-5.51,3.25-11.67,5.18-18.02,5.69v17.79c6.35,0.51,12.51,2.44,18.02,5.69l14.75,11.44V-1.51
			L-110.93,9.93z"/>
	</g>
	<g>
		<path d="M-131.86,15.76v17.51c0.97,0.01,1.95,0.06,2.91,0.14V15.62C-129.92,15.7-130.89,15.75-131.86,15.76z"/>
	</g>
	<g>
		<path class="st7" d="M-132.36,33.25c0.17,0,0.33,0.01,0.5,0.02v-8.76h-13.69v8.74H-132.36z"/>
	</g>
	<g>
		<path class="st7" d="M-128.95,33.41c6.35,0.51,12.51,2.44,18.02,5.69l14.75,11.44V24.51h-32.77V33.41z"/>
	</g>
	<g>
		<polygon class="st5" points="-102.6,3.47 -102.6,45.56 -101.09,46.73 -101.09,2.3 		"/>
	</g>
	<g>
		<polygon class="st5" points="-107.66,7.39 -107.66,41.63 -106.14,42.81 -106.14,6.22 		"/>
	</g>
</g>
<g>
	<g>
		<g>
			<rect x="-267.66" y="9.56" class="st6" width="4.62" height="10.9"/>
		</g>
	</g>
	<g class="st2">
		<path d="M-263.04,20.3V9.56h-2.31v10.52C-264.56,20.08-263.79,20.16-263.04,20.3z"/>
	</g>
	<g>
		<path class="st0" d="M-256,70.31h-18.7c-1.76,0-3.19-1.43-3.19-3.19v-34.5c0-6.93,5.62-12.54,12.54-12.54l0,0
			c6.93,0,12.54,5.62,12.54,12.54v34.5C-252.81,68.88-254.24,70.31-256,70.31z"/>
	</g>
	<g>
		<path class="st1" d="M-252.81,32.62c0-6.14-4.41-11.23-10.23-12.32l0,0h-2.31v50.01h9.35c1.76,0,3.19-1.43,3.19-3.19V32.62z"/>
	</g>
	<g>
		<g>
			<path class="st7" d="M-244.58,14.47l-17.06-5.08l0.66-2.22l14.93,4.45c1.18,0.35,1.85,1.59,1.5,2.77L-244.58,14.47z"/>
		</g>
	</g>
	<g>
		<g>
			<rect x="-268.33" y="18" width="5.95" height="2.31"/>
		</g>
	</g>
	<g>
		<path d="M-271.04,7.25L-271.04,7.25c0,1.28,1.03,2.31,2.31,2.31h0.4v2.31h5.95V9.56h0.28c1.26,0,2.49-0.32,3.59-0.92l0,0
			c1.1-0.61,2.34-0.92,3.59-0.92h9.07c1.53,0,2.77-1.24,2.77-2.77l0,0h-25.66C-270.01,4.94-271.04,5.97-271.04,7.25z"/>
	</g>
	<g>
		<g>
			<path class="st7" d="M-281.91,37.65h-2.31v-4.1c0-10.82,8.77-19.59,19.59-19.59h2.25v2.31h-2.77c-9.26,0-16.76,7.5-16.76,16.76
				V37.65z"/>
		</g>
	</g>
	<g>
		<polygon points="-277.4,50.37 -288.96,50.37 -285.26,37.65 -281.1,37.65 		"/>
	</g>
	<g>
		<rect x="-277.89" y="33.9" class="st5" width="25.08" height="1.2"/>
	</g>
	<g>
		<rect x="-277.89" y="38.03" class="st5" width="25.08" height="1.2"/>
	</g>
	<g class="st8">
		<polygon class="st6" points="-281.1,37.65 -283.18,37.65 -283.18,50.37 -277.4,50.37 		"/>
	</g>
</g>
<g>
	<g>
		<path class="st9" d="M-669.05,194.82c0,3.24-2.63,5.86-5.86,5.86c-3.24,0-5.86-2.63-5.86-5.86c0-3.24,5.86-11.2,5.86-11.2
			S-669.05,191.58-669.05,194.82z"/>
	</g>
	<g>
		<path class="st5" d="M-675.58,194.26c0,0.74-0.6,1.34-1.34,1.34c-0.74,0-1.34-0.6-1.34-1.34c0-0.74,0.6-1.34,1.34-1.34
			C-676.18,192.92-675.58,193.52-675.58,194.26z"/>
	</g>
	<g class="st10">
		<path class="st11" d="M-669.05,194.82c0-3.24-5.86-11.2-5.86-11.2v0v17.07l0,0C-671.68,200.68-669.05,198.06-669.05,194.82z"/>
	</g>
	<g>
		<g>
			<path class="st11" d="M-668.02,175.54h-1.25c-0.48,0-0.87,0.39-0.87,0.87c0,0.48,0.39,0.87,0.87,0.87h1.25
				c0.48,0,0.87-0.39,0.87-0.87C-667.15,175.92-667.54,175.54-668.02,175.54z"/>
		</g>
		<g>
			<path class="st11" d="M-665.13,176.4c0,0.48,0.39,0.87,0.87,0.87h1.25c0.48,0,0.87-0.39,0.87-0.87c0-0.48-0.39-0.87-0.87-0.87
				h-1.25C-664.74,175.54-665.13,175.92-665.13,176.4z"/>
		</g>
		<g>
			<path class="st11" d="M-660.12,176.4c0,0.48,0.39,0.87,0.87,0.87h1.25c0.48,0,0.87-0.39,0.87-0.87c0-0.48-0.39-0.87-0.87-0.87
				h-1.25C-659.73,175.54-660.12,175.92-660.12,176.4z"/>
		</g>
		<g>
			<path class="st11" d="M-673.03,175.54h-0.67c-0.48,0-0.87,0.39-0.87,0.87c0,0.48,0.39,0.87,0.87,0.87h0.67
				c0.48,0,0.87-0.39,0.87-0.87C-672.17,175.92-672.55,175.54-673.03,175.54z"/>
		</g>
		<g>
			<path class="st11" d="M-663.65,183.1l-1.14-0.53c-0.43-0.2-0.95-0.01-1.15,0.42c-0.2,0.43-0.02,0.95,0.42,1.15l1.14,0.53
				c0.43,0.2,0.95,0.01,1.15-0.42C-663.02,183.81-663.21,183.3-663.65,183.1z"/>
		</g>
		<g>
			<path class="st11" d="M-668.19,180.98l-1.14-0.53c-0.43-0.2-0.95-0.02-1.15,0.42c-0.2,0.44-0.02,0.95,0.42,1.15l1.14,0.53
				c0.43,0.2,0.95,0.01,1.15-0.42C-667.56,181.7-667.75,181.18-668.19,180.98z"/>
		</g>
		<g>
			<path class="st11" d="M-659.1,185.21l-1.14-0.53c-0.44-0.2-0.95-0.01-1.15,0.42c-0.2,0.44-0.01,0.95,0.42,1.15l1.14,0.53
				c0.43,0.2,0.95,0.01,1.15-0.42C-658.48,185.93-658.67,185.42-659.1,185.21z"/>
		</g>
		<g>
			<path class="st11" d="M-672.73,178.86l-0.6-0.28c-0.43-0.2-0.95-0.01-1.15,0.42c-0.2,0.43-0.02,0.95,0.42,1.15l0.6,0.28
				c0.44,0.2,0.95,0.02,1.15-0.42C-672.11,179.58-672.29,179.06-672.73,178.86z"/>
		</g>
		<g>
			<path class="st11" d="M-661.39,167.7c0.2,0.44,0.72,0.62,1.15,0.42l1.14-0.53c0.44-0.2,0.62-0.72,0.42-1.15
				c-0.2-0.43-0.72-0.62-1.15-0.42l-1.14,0.53C-661.41,166.75-661.6,167.27-661.39,167.7z"/>
		</g>
		<g>
			<path class="st11" d="M-670.48,171.94c0.2,0.44,0.72,0.62,1.15,0.42l1.14-0.53c0.43-0.2,0.62-0.72,0.42-1.15
				c-0.2-0.43-0.72-0.62-1.15-0.42l-1.14,0.53C-670.49,170.99-670.68,171.51-670.48,171.94z"/>
		</g>
		<g>
			<path class="st11" d="M-665.93,169.82c0.2,0.43,0.72,0.62,1.15,0.42l1.14-0.53c0.44-0.2,0.62-0.72,0.42-1.15
				c-0.2-0.43-0.72-0.62-1.15-0.42l-1.14,0.53C-665.95,168.87-666.14,169.39-665.93,169.82z"/>
		</g>
		<g>
			<path class="st11" d="M-673.33,174.23l0.6-0.28c0.43-0.2,0.62-0.72,0.42-1.15c-0.2-0.43-0.72-0.62-1.15-0.42l-0.6,0.28
				c-0.43,0.2-0.62,0.72-0.42,1.15C-674.28,174.25-673.77,174.43-673.33,174.23z"/>
		</g>
	</g>
	<g>
		<g>
			<path d="M-735.02,184.2h-1.63v-15.6h1.63c0.94,0,1.71,0.77,1.71,1.71v12.18C-733.31,183.44-734.08,184.2-735.02,184.2z"/>
		</g>
	</g>
	<g>
		<g>
			<path class="st6" d="M-698.89,216.46c-4.69,0-8.51-3.82-8.51-8.51v-37.93c0-1.01-0.82-1.84-1.84-1.84
				c-1.01,0-1.84,0.82-1.84,1.84v38.09c0,4.6-3.74,8.34-8.34,8.34c-4.6,0-8.34-3.74-8.34-8.34v-25.98c0-1.26-1.03-2.29-2.29-2.29
				h-3.27v-6.67h3.27c4.94,0,8.96,4.02,8.96,8.96v25.98c0,0.92,0.75,1.67,1.67,1.67c0.92,0,1.67-0.75,1.67-1.67v-38.09
				c0-4.69,3.82-8.51,8.51-8.51s8.51,3.82,8.51,8.51v37.93c0,1.01,0.82,1.84,1.83,1.84c1.01,0,1.84-0.82,1.84-1.84v-25.81
				c0-4.94,4.02-8.96,8.96-8.96h2.72v6.67h-2.72c-1.26,0-2.29,1.03-2.29,2.29v25.81C-690.38,212.64-694.19,216.46-698.89,216.46z"/>
		</g>
	</g>
	<g>
		<path d="M-675.71,181.53h-9.02c-0.36,0-0.65-0.29-0.65-0.65v-8.96c0-0.36,0.29-0.65,0.65-0.65h9.02c0.36,0,0.65,0.29,0.65,0.65
			v8.96C-675.06,181.24-675.35,181.53-675.71,181.53z"/>
	</g>
	<g>
		<path class="st7" d="M-685.68,176.4h-3.1c-2.72,0-4.92,2.2-4.92,4.92v27.43c0,2.72-2.2,4.92-4.92,4.92h-0.46
			c-2.72,0-4.92-2.2-4.92-4.92v-38.88c0-2.72-2.2-4.92-4.92-4.92h-0.56c-2.72,0-4.92,2.2-4.92,4.92v38.39c0,2.72-2.2,4.92-4.92,4.92
			h-0.08c-2.72,0-4.92-2.2-4.92-4.92v-26.95c0-2.72-2.2-4.92-4.92-4.92h-3.1c-0.33,0-0.65,0.04-0.96,0.1v3.35h3.27
			c1.26,0,2.29,1.03,2.29,2.29v25.98c0,2.76,1.36,5.18,3.43,6.71c1.38,1.02,3.07,1.64,4.92,1.64c1.89,0,3.61-0.65,5.01-1.71
			c2.01-1.52,3.34-3.92,3.34-6.63v-38.09c0-1.01,0.82-1.84,1.84-1.84c1.01,0,1.84,0.82,1.84,1.84v37.93c0,2.77,1.35,5.2,3.39,6.76
			c1.43,1.08,3.19,1.75,5.12,1.75c1.96,0,3.75-0.69,5.19-1.81c2.01-1.56,3.32-3.97,3.32-6.7v-25.81c0-1.26,1.03-2.29,2.29-2.29h2.72
			v-3.42C-685.47,176.43-685.57,176.4-685.68,176.4z"/>
	</g>
</g>
<g>
	<g>
		<g>
			<path d="M-490.66-20.28h-2.56v-2.17c0-9.25-7.53-16.78-16.78-16.78c-9.25,0-16.78,7.53-16.78,16.78v2.17h-2.56v-2.17
				c0-10.66,8.67-19.34,19.34-19.34c10.66,0,19.34,8.67,19.34,19.34V-20.28z"/>
		</g>
	</g>
	<g>
		<path class="st0" d="M-509.74,20.65L-509.74,20.65l-0.05-0.03c-12.88-8.96-20.57-23.65-20.57-39.35v-1.55h40.72v1.91
			C-489.64-2.88-497.12,11.66-509.74,20.65L-509.74,20.65z"/>
	</g>
	<g>
		<path class="st7" d="M-494.75-24.56v4.28h5.11v-4.28c0-1.41-1.14-2.56-2.55-2.56l0,0C-493.6-27.12-494.75-25.97-494.75-24.56z"/>
	</g>
	<g>
		<path class="st7" d="M-530.35-24.56v4.28h5.11v-4.28c0-1.41-1.14-2.56-2.56-2.56l0,0C-529.21-27.12-530.35-25.97-530.35-24.56z"/>
	</g>
	<g>
		<path class="st1" d="M-509.74,20.65c12.61-8.99,20.1-23.53,20.1-39.02v-1.91h-20.32v40.77c0.06,0.04,0.11,0.09,0.17,0.13
			L-509.74,20.65z"/>
	</g>
	<g>
		<rect x="-530.35" y="-20.31" width="40.72" height="1.33"/>
	</g>
	<g>
		<path class="st5" d="M-489.91-13.36h-40.13c0.05,0.44,0.11,0.89,0.18,1.33h39.79C-490.01-12.48-489.96-12.92-489.91-13.36z"/>
	</g>
	<g>
		<path class="st5" d="M-529-7.43h38.09c0.1-0.44,0.19-0.89,0.28-1.33h-38.66C-529.19-8.32-529.1-7.87-529-7.43z"/>
	</g>
</g>
<g>
	<g>
		<g>
			<path class="st1" d="M-603.95-111.44l-30.44,30.44c-1.21,1.21-1.21,3.17,0,4.38l0,0c1.21,1.21,3.17,1.21,4.38,0l30.44-30.44
				L-603.95-111.44z"/>
		</g>
		<g>
			<rect x="-607.81" y="-110.48" transform="matrix(0.7071 0.7071 -0.7071 0.7071 -252.3107 396.485)" width="6.19" height="8.36"/>
		</g>
		<g>
			<path class="st6" d="M-577.04-108.63l-0.17-0.17l-3.7-0.52c-4.18-0.58-8.06-2.52-11.05-5.5l-8.28-8.28l-8.89-5.55l4.95,9.5
				l-2.68,2.68c-0.7,0.7-0.7,1.83,0,2.53l7.01,7.01c2.99,2.99,4.92,6.87,5.5,11.05l0.52,3.7l0.17,0.17
				c3.99-0.53,7.92-2.39,11.07-5.54C-579.43-100.71-577.57-104.64-577.04-108.63z"/>
		</g>
		<g>
			<path class="st7" d="M-606.86-113.95l7.01,7.01c2.99,2.99,4.92,6.87,5.5,11.05l0.51,3.7l0.17,0.17
				c3.99-0.53,7.92-2.39,11.07-5.54l-21.6-21.6l-2.68,2.68C-607.56-115.78-607.56-114.65-606.86-113.95z"/>
		</g>
		<g class="st4">
			<path d="M-577.04-108.63l-0.17-0.17l-3.7-0.52c-0.08-0.01-0.16-0.04-0.24-0.05c-0.88,3.01-2.52,5.89-4.94,8.31
				c-2.42,2.42-5.3,4.06-8.31,4.94c0.01,0.08,0.04,0.16,0.05,0.24l0.51,3.7l0.17,0.17c3.99-0.53,7.92-2.39,11.07-5.54
				C-579.43-100.71-577.57-104.64-577.04-108.63z"/>
		</g>
	</g>
	<g>
		<g>
			<path class="st1" d="M-621.7-111.44l30.44,30.44c1.21,1.21,1.21,3.17,0,4.38l0,0c-1.21,1.21-3.17,1.21-4.38,0l-30.44-30.44
				L-621.7-111.44z"/>
		</g>
		<g>
			
				<rect x="-624.03" y="-110.48" transform="matrix(-0.7071 0.7071 -0.7071 -0.7071 -1135.1472 257.6336)" width="6.19" height="8.36"/>
		</g>
		<g>
			<path class="st6" d="M-635.08-113.65c0.21-0.21,0.45-0.39,0.68-0.56l-6.51-12.05l12.18,6.58l7.01,8.24l-4.35,4.35l-0.03,0.03
				l-2.04-1.73l-0.14-0.12c-1.41-1.41-3.68-1.41-5.09,0c-1.41,1.41-1.41,3.69,0,5.09l-1.72-1.72
				C-637.32-107.79-637.32-111.42-635.08-113.65z"/>
		</g>
		<g>
			<path class="st7" d="M-628.26-108.92c-1.41-1.41-3.68-1.41-5.09,0c-1.41,1.41-1.41,3.69,0,5.09l-1.72-1.72
				c-2.24-2.24-2.24-5.87,0-8.1c0.21-0.21,0.45-0.39,0.68-0.56l-6.51-12.05l0.27,0.14l16.8,16.8l-2.22,2.22l-0.03,0.03l-2.04-1.73
				L-628.26-108.92z"/>
		</g>
	</g>
</g>
<g>
	<g>
		<path class="st6" d="M-220.3,175.44c-1.76,0-3.19-1.43-3.19-3.19v-7.06c0-1.54-1.25-2.8-2.8-2.8l0,0c-1.54,0-2.79,1.25-2.79,2.8
			v53.57c0,1.58,1.28,2.87,2.87,2.87h24.18c1.58,0,2.87-1.28,2.87-2.87v-40.45c0-1.58-1.28-2.87-2.87-2.87H-220.3z"/>
	</g>
	<g>
		<rect x="-224.06" y="180.51" class="st5" width="19.85" height="11.9"/>
	</g>
	<g>
		<path class="st7" d="M-204.83,216.96h-18.6c-0.35,0-0.63-0.28-0.63-0.63v-1.55c0-0.35,0.28-0.63,0.63-0.63h18.6
			c0.35,0,0.63,0.28,0.63,0.63v1.55C-204.21,216.68-204.48,216.96-204.83,216.96z"/>
	</g>
	<g>
		<path class="st7" d="M-218.98,202.98h-4.55c-0.29,0-0.52-0.23-0.52-0.52v-4.55c0-0.29,0.23-0.52,0.52-0.52h4.55
			c0.29,0,0.52,0.23,0.52,0.52v4.55C-218.46,202.75-218.7,202.98-218.98,202.98z"/>
	</g>
	<g>
		<path class="st7" d="M-211.67,202.98h-4.55c-0.29,0-0.52-0.23-0.52-0.52v-4.55c0-0.29,0.23-0.52,0.52-0.52h4.55
			c0.29,0,0.52,0.23,0.52,0.52v4.55C-211.15,202.75-211.39,202.98-211.67,202.98z"/>
	</g>
	<g>
		<path class="st1" d="M-204.36,202.98h-4.55c-0.29,0-0.52-0.23-0.52-0.52v-4.55c0-0.29,0.23-0.52,0.52-0.52h4.55
			c0.29,0,0.52,0.23,0.52,0.52v4.55C-203.84,202.75-204.07,202.98-204.36,202.98z"/>
	</g>
	<g>
		<path class="st7" d="M-218.89,210.16h-4.55c-0.29,0-0.52-0.23-0.52-0.52v-4.55c0-0.29,0.23-0.52,0.52-0.52h4.55
			c0.29,0,0.52,0.23,0.52,0.52v4.55C-218.37,209.92-218.6,210.16-218.89,210.16z"/>
	</g>
	<g>
		<path class="st7" d="M-211.58,210.16h-4.55c-0.29,0-0.52-0.23-0.52-0.52v-4.55c0-0.29,0.23-0.52,0.52-0.52h4.55
			c0.29,0,0.52,0.23,0.52,0.52v4.55C-211.06,209.92-211.29,210.16-211.58,210.16z"/>
	</g>
	<g>
		<path class="st7" d="M-204.27,210.16h-4.55c-0.29,0-0.52-0.23-0.52-0.52v-4.55c0-0.29,0.23-0.52,0.52-0.52h4.55
			c0.29,0,0.52,0.23,0.52,0.52v4.55C-203.75,209.92-203.98,210.16-204.27,210.16z"/>
	</g>
	<g>
		<path class="st1" d="M-223.5,165.19c0-1.54-1.25-2.8-2.8-2.8c-1.54,0-2.79,1.25-2.79,2.8v2.8h5.59V165.19z"/>
	</g>
	<g>
		<g>
			<path class="st1" d="M-197.17,173.65c-0.41,0.28-0.52,0.83-0.24,1.24c0.39,0.57,0.59,1.24,0.59,1.94c0,0.55-0.12,1.07-0.37,1.55
				c-0.22,0.44-0.04,0.98,0.4,1.2c0.13,0.06,0.27,0.09,0.4,0.09c0.33,0,0.64-0.18,0.8-0.49c0.37-0.73,0.56-1.54,0.56-2.36
				c0-1.05-0.31-2.07-0.9-2.94C-196.2,173.49-196.76,173.38-197.17,173.65z"/>
		</g>
		<g>
			<path class="st1" d="M-188.26,168.71c-0.28-0.41-0.84-0.52-1.24-0.24c-0.41,0.28-0.52,0.83-0.24,1.24
				c1.42,2.1,2.18,4.57,2.18,7.12c0,2.27-0.6,4.5-1.75,6.44c-0.25,0.43-0.11,0.98,0.32,1.23c0.14,0.08,0.3,0.12,0.45,0.12
				c0.31,0,0.61-0.16,0.77-0.44c1.31-2.22,2-4.76,2-7.35C-185.77,173.92-186.63,171.11-188.26,168.71z"/>
		</g>
		<g>
			<path class="st1" d="M-193.09,171.33c-0.42,0.26-0.55,0.81-0.29,1.23c0.79,1.28,1.21,2.76,1.21,4.27c0,1.35-0.34,2.69-0.98,3.87
				c-0.24,0.43-0.08,0.98,0.36,1.21c0.14,0.07,0.28,0.11,0.43,0.11c0.32,0,0.63-0.17,0.79-0.47c0.78-1.44,1.2-3.08,1.2-4.73
				c0-1.85-0.51-3.65-1.48-5.22C-192.11,171.19-192.66,171.06-193.09,171.33z"/>
		</g>
	</g>
	<g class="st2">
		<rect x="-214.13" y="180.51" class="st7" width="9.92" height="11.9"/>
	</g>
</g>
<g>
	<g>
		<rect x="-84.68" y="179.25" class="st0" width="51.13" height="56.22"/>
	</g>
	<g>
		<rect x="-79.51" y="204.81" class="st7" width="41.02" height="25.54"/>
	</g>
	<g>
		<rect x="-71.92" y="214.56" width="25.84" height="5.11"/>
	</g>
	<g>
		<rect x="-79.57" y="184.36" class="st5" width="41.02" height="15.33"/>
	</g>
	<g>
		<path class="st1" d="M-64.97,217.12c0,3.29,2.67,5.96,5.96,5.96c3.29,0,5.96-2.67,5.96-5.96c0-3.29-2.67-5.96-5.96-5.96
			C-62.3,211.15-64.97,213.82-64.97,217.12z"/>
	</g>
	<g>
		<g>
			<path class="st1" d="M-70.57,188.05h5.2v1.77h-3.09v1.52h2.65v1.76h-2.65v2.92h-2.11V188.05z"/>
		</g>
		<g>
			<path class="st1" d="M-64,188.05h2.11v7.97H-64V188.05z"/>
		</g>
		<g>
			<path class="st1" d="M-55.83,196.01l-1.37-2.67h-0.81v2.67h-2.11v-7.97h3.02c1.72,0,3.19,0.59,3.19,2.57
				c0,1.14-0.52,1.89-1.29,2.3l1.73,3.09H-55.83z M-58.01,191.67h0.76c0.83,0,1.27-0.37,1.27-1.05c0-0.69-0.44-0.91-1.27-0.91h-0.76
				V191.67z"/>
		</g>
		<g>
			<path class="st1" d="M-52.4,188.05h5.15v1.77h-3.04v1.25h2.6v1.77h-2.6v1.42h3.16v1.76h-5.27V188.05z"/>
		</g>
	</g>
</g>
<g>
	<g>
		<path class="st6" d="M-510.02,210.04L-510.02,210.04c-11.55,0-20.91-9.36-20.91-20.91v-27.54c0-1.69,1.37-3.06,3.06-3.06h35.7
			c1.69,0,3.06,1.37,3.06,3.06v27.54C-489.11,200.68-498.47,210.04-510.02,210.04z"/>
	</g>
	<g>
		<path class="st5" d="M-495.33,184.61h-29.39c-0.4,0-0.72-0.32-0.72-0.72v-19.04c0-0.4,0.32-0.72,0.72-0.72h29.39
			c0.4,0,0.72,0.32,0.72,0.72v19.04C-494.61,184.29-494.93,184.61-495.33,184.61z"/>
	</g>
	<g>
		
			<rect x="-526.42" y="200.63" transform="matrix(0.7071 -0.7071 0.7071 0.7071 -296.6373 -309.0114)" width="10.18" height="5.87"/>
	</g>
	<g>
		<rect x="-535.18" y="212.48" transform="matrix(0.7071 -0.7071 0.7071 0.7071 -309.0211 -314.1409)" width="2.93" height="6.95"/>
	</g>
	<g>
		<path class="st1" d="M-528.76,218.83l-7.83-7.83c-0.26-0.26-0.26-0.69,0-0.96l6.79-6.79c0.26-0.26,0.69-0.26,0.96,0l7.83,7.83
			c0.26,0.26,0.26,0.69,0,0.96l-6.79,6.79C-528.07,219.09-528.5,219.09-528.76,218.83z"/>
	</g>
	<g>
		
			<rect x="-501.59" y="198.18" transform="matrix(0.7071 -0.7071 0.7071 0.7071 -289.7868 -293.0693)" width="5.87" height="10.18"/>
	</g>
	<g>
		<rect x="-489.75" y="214.18" transform="matrix(0.7071 -0.7071 0.7071 0.7071 -294.9162 -280.6855)" width="6.95" height="2.94"/>
	</g>
	<g>
		<path class="st1" d="M-491.23,218.53l7.83-7.83c0.26-0.26,0.26-0.69,0-0.96l-6.79-6.79c-0.26-0.26-0.69-0.26-0.96,0l-7.83,7.83
			c-0.26,0.26-0.26,0.69,0,0.96l6.79,6.79C-491.92,218.79-491.49,218.79-491.23,218.53z"/>
	</g>
	<g>
		<path class="st7" d="M-500.21,198.86c0,5.42-4.39,9.81-9.81,9.81c-5.42,0-9.81-4.39-9.81-9.81c0-5.42,4.39-9.81,9.81-9.81
			C-504.61,189.05-500.21,193.44-500.21,198.86z"/>
	</g>
	<g>
		<path d="M-503.17,198.86c0,3.79-3.07,6.85-6.85,6.85c-3.79,0-6.85-3.07-6.85-6.85c0-3.79,3.07-6.85,6.85-6.85
			C-506.24,192.01-503.17,195.08-503.17,198.86z"/>
	</g>
	<g>
		<path class="st5" d="M-505.94,198.86c0,2.26-1.83,4.09-4.09,4.09c-2.26,0-4.08-1.83-4.08-4.09c0-2.26,1.83-4.08,4.08-4.08
			C-507.77,194.78-505.94,196.6-505.94,198.86z"/>
	</g>
	<g class="st2">
		<path class="st7" d="M-494.61,183.76v-18.76c0-0.47-0.38-0.85-0.85-0.85h-14.56v20.47h14.56
			C-495,184.61-494.61,184.23-494.61,183.76z"/>
	</g>
	<g>
		<path class="st5" d="M-502.32,166.3v1.53h3.44c0.3,0,0.54,0.24,0.54,0.54v12.83h1.53v-13.78c0-0.62-0.5-1.11-1.11-1.11H-502.32z"
			/>
	</g>
</g>
<g>
	<g>
		<g>
			<path class="st0" d="M50.96,32.09L50.96,32.09c-0.99-5.44-2.91-10.67-5.68-15.45l-1.84-3.18l-3.58,5.01l0,0
				C37.81,13,34.7,7.97,30.73,3.68L27.33,0l-3.9,4.38c-3.41,3.84-6.15,8.23-8.09,12.98l-0.45,1.11l-3.69-5.01l-2.12,3.76
				c-2.44,4.33-4.19,9.01-5.19,13.88l-0.2,0.99l-2.5-5.01l-0.22,0.83c-3.52,13.22,2.9,27.44,15.57,32.6c3.33,1.36,6.98,2.1,10.8,2.1
				l0,0c3.83,0,7.48-0.75,10.82-2.11c12.66-5.16,19.07-19.39,15.55-32.59l-0.22-0.83L50.96,32.09z"/>
		</g>
		<g>
			<path class="st12" d="M45.18,37.06L45.18,37.06c-0.75-4.11-2.2-8.06-4.29-11.67l-1.39-2.4l-2.7,3.78l0,0
				c-1.56-4.14-3.9-7.93-6.9-11.17l-2.57-2.78l-2.94,3.31c-2.58,2.9-4.64,6.21-6.11,9.81l-0.34,0.84l-2.79-3.78l-1.6,2.84
				c-1.84,3.27-3.17,6.81-3.92,10.48l-0.15,0.75l-1.89-3.78l-0.17,0.63C4.75,43.89,9.6,54.63,19.17,58.53
				c2.52,1.02,5.27,1.59,8.16,1.59l0,0c2.89,0,5.65-0.57,8.17-1.6c9.56-3.9,14.4-14.64,11.74-24.62l-0.17-0.63L45.18,37.06z"/>
		</g>
		<g>
			<path class="st13" d="M29.94,31.68l-2.57-2.78l-2.94,3.31c-0.79,0.89-1.57,1.87-2.31,2.91c-2.75,3.84-4.14,8.5-4.15,13.22l0,0
				c-0.02,5.18,4.18,9.4,9.37,9.4l0,0c5.17,0,9.37-4.19,9.37-9.36v-0.23c0-4.61-1.27-9.19-3.92-12.96
				C31.91,33.96,30.96,32.79,29.94,31.68z"/>
		</g>
		<g>
			<path class="st1" d="M38.14,60.51c12.66-5.16,19.07-19.39,15.55-32.59l-0.22-0.83l-2.5,5.01c-0.99-5.44-2.91-10.67-5.68-15.45
				l-1.84-3.18l-3.58,5.01C37.81,13,34.7,7.97,30.73,3.68L27.33,0l0,0v12.83l0,0l2.57,2.78c3,3.24,5.35,7.04,6.9,11.17l2.7-3.78
				l1.39,2.4c2.09,3.61,3.54,7.56,4.29,11.67l1.89-3.78l0.17,0.63c2.66,9.97-2.18,20.71-11.74,24.61c-2.52,1.03-5.28,1.6-8.17,1.6
				l0,0v2.5l0,0C31.15,62.62,34.81,61.87,38.14,60.51z"/>
		</g>
		<g class="st10">
			<path class="st1" d="M27.37,28.9l2.57,2.78c1.02,1.11,1.97,2.28,2.83,3.5c2.65,3.77,3.92,8.35,3.92,12.96v0.23
				c0,5.17-4.19,9.36-9.37,9.36v2.38l0,0c2.89,0,5.65-0.57,8.17-1.6c9.56-3.9,14.4-14.64,11.74-24.61l-0.17-0.63l-1.89,3.78
				c-0.75-4.11-2.2-8.06-4.29-11.67l-1.39-2.4l-2.7,3.78c-1.56-4.14-3.9-7.93-6.9-11.17l-2.57-2.78l0,0v16.13L27.37,28.9z"/>
		</g>
		<g>
			<path class="st1" d="M36.69,48.38v-0.23c0-4.61-1.27-9.19-3.92-12.96c-0.86-1.23-1.81-2.4-2.83-3.5l-2.57-2.78l-0.04,0.05v28.79
				C32.5,57.74,36.69,53.55,36.69,48.38z"/>
		</g>
		<g>
			<path class="st13" d="M39.94,27.92l-0.63-0.68l-0.72,0.81c-0.2,0.22-0.39,0.46-0.57,0.71C37.35,29.7,37.01,30.84,37,32l0,0
				c0,1.27,1.02,2.3,2.29,2.3l0,0c1.27,0,2.29-1.03,2.29-2.29v-0.06c0-1.13-0.31-2.25-0.96-3.17
				C40.42,28.47,40.19,28.19,39.94,27.92z"/>
		</g>
		<g>
			<path class="st13" d="M14.85,36.24l-0.63-0.68l-0.72,0.81c-0.19,0.22-0.39,0.46-0.57,0.71c-0.67,0.94-1.01,2.08-1.02,3.24l0,0
				c0,1.27,1.02,2.3,2.29,2.3l0,0c1.27,0,2.29-1.03,2.29-2.29v-0.06c0-1.13-0.31-2.25-0.96-3.17C15.33,36.8,15.1,36.51,14.85,36.24z
				"/>
		</g>
		<g>
			<path class="st12" d="M28.11,4.19l-0.77-0.83l-0.88,0.99c-0.24,0.27-0.47,0.56-0.69,0.87c-0.82,1.15-1.24,2.54-1.24,3.96l0,0
				c0,1.55,1.25,2.81,2.8,2.81l0,0c1.55,0,2.8-1.25,2.8-2.8V9.12c0-1.38-0.38-2.75-1.17-3.88C28.7,4.87,28.41,4.52,28.11,4.19z"/>
		</g>
	</g>
	<g>
		<polygon points="53.32,12.86 48.31,7.85 27.33,28.83 6.34,7.85 1.33,12.86 22.31,33.84 1.33,54.82 6.34,59.83 27.33,38.85 
			48.31,59.83 53.32,54.82 32.33,33.84 		"/>
	</g>
</g>
<g>
	<g>
		<g>
			<polygon class="st7" points="-273.38,-134.93 -303.41,-112.07 -243.34,-112.07 			"/>
		</g>
		<g>
			<rect x="-298.01" y="-112.07" class="st5" width="49.27" height="37.09"/>
		</g>
		<g class="st2">
			<rect x="-273.38" y="-112.57" class="st7" width="24.64" height="37.6"/>
		</g>
		<g>
			<g>
				<rect x="-300.23" y="-74.97" class="st7" width="53.7" height="5.54"/>
			</g>
		</g>
		<g>
			<rect x="-273.38" y="-74.97" width="26.85" height="5.54"/>
		</g>
		<g>
			<rect x="-282.88" y="-106.86" width="18.36" height="31.89"/>
		</g>
	</g>
	<g>
		<polygon points="-273.38,-134.93 -273.7,-134.65 -273.7,-112.07 -243.34,-112.07 		"/>
	</g>
	<g>
		<g>
			<path class="st0" d="M-261.18-91.59L-261.18-91.59c-0.51-2.81-1.5-5.5-2.93-7.97l-0.95-1.64l-1.85,2.58l0,0
				c-1.06-2.82-2.67-5.42-4.72-7.63l-1.76-1.9l-2.01,2.26c-1.76,1.98-3.17,4.24-4.17,6.7l-0.23,0.57l-1.9-2.58l-1.09,1.94
				c-1.26,2.23-2.16,4.65-2.68,7.16l-0.11,0.51l-1.29-2.58l-0.11,0.43c-1.82,6.82,1.5,14.15,8.03,16.82c1.72,0.7,3.6,1.09,5.57,1.09
				l0,0c1.97,0,3.86-0.39,5.58-1.09c6.53-2.66,9.84-10,8.02-16.81l-0.11-0.43L-261.18-91.59z"/>
		</g>
		<g>
			<path class="st12" d="M-264.17-89.03L-264.17-89.03c-0.38-2.12-1.13-4.15-2.21-6.02l-0.72-1.24l-1.39,1.95l0,0
				c-0.8-2.13-2.01-4.09-3.56-5.76l-1.33-1.43l-1.52,1.71c-1.33,1.5-2.39,3.21-3.15,5.06l-0.18,0.43l-1.44-1.95l-0.83,1.46
				c-0.95,1.69-1.63,3.51-2.02,5.41l-0.08,0.39l-0.98-1.95l-0.09,0.32c-1.37,5.15,1.13,10.69,6.06,12.7
				c1.3,0.53,2.72,0.82,4.21,0.82l0,0c1.49,0,2.91-0.29,4.21-0.82c4.93-2.01,7.43-7.55,6.06-12.7l-0.09-0.32L-264.17-89.03z"/>
		</g>
		<g>
			<path class="st13" d="M-272.03-91.8l-1.33-1.43l-1.52,1.71c-0.41,0.46-0.81,0.97-1.19,1.5c-1.42,1.98-2.13,4.38-2.14,6.82l0,0
				c-0.01,2.67,2.16,4.85,4.83,4.85l0,0c2.67,0,4.83-2.16,4.83-4.83v-0.12c0-2.38-0.65-4.74-2.02-6.68
				C-271.01-90.63-271.5-91.23-272.03-91.8z"/>
		</g>
		<g>
			<path class="st1" d="M-267.8-76.93c6.53-2.66,9.84-10,8.02-16.81l-0.11-0.43l-1.29,2.58c-0.51-2.81-1.5-5.5-2.93-7.97l-0.95-1.64
				l-1.85,2.58c-1.06-2.82-2.67-5.42-4.72-7.63l-1.76-1.9l0,0v6.62l0,0l1.33,1.43c1.55,1.67,2.76,3.63,3.56,5.76l1.39-1.95
				l0.72,1.24c1.08,1.86,1.83,3.9,2.21,6.02l0.98-1.95l0.09,0.32c1.37,5.15-1.13,10.68-6.06,12.7c-1.3,0.53-2.72,0.82-4.21,0.82l0,0
				v1.29l0,0C-271.4-75.84-269.52-76.23-267.8-76.93z"/>
		</g>
		<g class="st10">
			<path class="st1" d="M-273.35-93.24l1.33,1.43c0.53,0.57,1.02,1.17,1.46,1.81c1.37,1.95,2.02,4.31,2.02,6.68v0.12
				c0,2.67-2.16,4.83-4.83,4.83v1.23l0,0c1.49,0,2.91-0.29,4.21-0.82c4.93-2.01,7.43-7.55,6.06-12.7l-0.09-0.32l-0.98,1.95
				c-0.38-2.12-1.13-4.15-2.21-6.02l-0.72-1.24l-1.39,1.95c-0.8-2.13-2.01-4.09-3.56-5.76l-1.33-1.43l0,0v8.32L-273.35-93.24z"/>
		</g>
		<g>
			<path class="st1" d="M-268.54-83.19v-0.12c0-2.38-0.65-4.74-2.02-6.68c-0.45-0.63-0.93-1.24-1.46-1.81l-1.33-1.43l-0.02,0.03
				v14.85C-270.71-78.36-268.54-80.52-268.54-83.19z"/>
		</g>
		<g>
			<path class="st13" d="M-266.87-93.75l-0.32-0.35l-0.37,0.42c-0.1,0.11-0.2,0.24-0.29,0.37c-0.35,0.49-0.52,1.07-0.52,1.67l0,0
				c0,0.66,0.53,1.19,1.18,1.19l0,0c0.65,0,1.18-0.53,1.18-1.18v-0.03c0-0.58-0.16-1.16-0.5-1.64
				C-266.62-93.46-266.74-93.61-266.87-93.75z"/>
		</g>
		<g>
			<path class="st13" d="M-279.81-89.45l-0.32-0.35l-0.37,0.42c-0.1,0.11-0.2,0.24-0.29,0.37c-0.35,0.49-0.52,1.07-0.52,1.67l0,0
				c0,0.66,0.53,1.19,1.18,1.19l0,0c0.65,0,1.18-0.53,1.18-1.18v-0.03c0-0.58-0.16-1.16-0.5-1.64
				C-279.56-89.16-279.68-89.31-279.81-89.45z"/>
		</g>
		<g>
			<path class="st12" d="M-272.97-105.98l-0.4-0.43l-0.45,0.51c-0.12,0.14-0.24,0.29-0.36,0.45c-0.42,0.59-0.64,1.31-0.64,2.04l0,0
				c0,0.8,0.64,1.45,1.45,1.45l0,0c0.8,0,1.45-0.65,1.45-1.45v-0.04c0-0.71-0.2-1.42-0.61-2
				C-272.67-105.63-272.81-105.81-272.97-105.98z"/>
		</g>
	</g>
</g>
<g>
	<path d="M-496.08,101.71l-5.22-5.06h-15.45l-2.73,2.64l-9.18-8.51l-1.65,1.78l9.08,8.42l-0.75,0.72c-0.43,0.42-0.68,1-0.68,1.6
		v16.3c0,1.43,1.16,2.59,2.59,2.59h22.07c1.43,0,2.59-1.16,2.59-2.59v-16.3C-495.4,102.71-495.64,102.13-496.08,101.71z"/>
	
		<ellipse transform="matrix(0.2278 -0.9737 0.9737 0.2278 -469.6687 -434.903)" class="st0" cx="-509.02" cy="78.65" rx="20.37" ry="20.37"/>
	<path class="st1" d="M-512.61,115.51c0,1.07-0.87,1.95-1.95,1.95c-1.07,0-1.95-0.87-1.95-1.95c0-1.08,0.87-1.95,1.95-1.95
		C-513.48,113.56-512.61,114.43-512.61,115.51z"/>
	<circle class="st1" cx="-529.39" cy="91.5" r="1.95"/>
	<path class="st1" d="M-501.54,115.51c0,1.07-0.87,1.95-1.95,1.95s-1.95-0.87-1.95-1.95c0-1.08,0.87-1.95,1.95-1.95
		S-501.54,114.43-501.54,115.51z"/>
	<path class="st1" d="M-507.08,115.51c0,1.07-0.87,1.95-1.95,1.95c-1.08,0-1.95-0.87-1.95-1.95c0-1.08,0.87-1.95,1.95-1.95
		C-507.95,113.56-507.08,114.43-507.08,115.51z"/>
	<rect x="-516.5" y="107.97" class="st1" width="14.96" height="2.13"/>
	<path class="st1" d="M-488.65,78.65c0-11.25-9.12-20.37-20.37-20.37v40.75C-497.77,99.03-488.65,89.9-488.65,78.65z"/>
	<path class="st5" d="M-505.68,78.9c0,1.85-1.5,3.34-3.34,3.34c-1.85,0-3.34-1.5-3.34-3.34c0-1.85,1.5-3.34,3.34-3.34
		C-507.17,75.55-505.68,77.05-505.68,78.9z"/>
</g>
<g>
	<g>
		<path class="st0" d="M-683.16,101.09h-48.13V96.4c0-13.29,10.77-24.07,24.07-24.07l0,0c13.29,0,24.06,10.78,24.06,24.07V101.09z"
			/>
	</g>
	<g>
		<g>
			<path class="st7" d="M-669.31,110.38h-10.95c-4.69,0-9.66-0.9-14.75-2.69c-2.93-1.03-5.99-1.55-9.1-1.55h-6.22
				c-3.11,0-6.17,0.52-9.1,1.55c-5.09,1.79-10.06,2.69-14.75,2.69h-10.96v-1.94h10.96c4.48,0,9.22-0.87,14.11-2.58
				c3.14-1.1,6.42-1.66,9.74-1.66h6.22c3.33,0,6.61,0.56,9.74,1.66c4.89,1.71,9.63,2.58,14.11,2.58h10.95V110.38z"/>
		</g>
	</g>
	<g class="st4">
		<path d="M-683.06,96.2c0-11.82-8.54-21.64-19.78-23.66v9.61l2.92,0.75v6.21c0,3.18-1.6,6.15-4.26,7.89l-3.06,2.01l-0.1-0.06v1.94
			h24.27V96.2z"/>
	</g>
	<g>
		<path class="st0" d="M-731.29,101.09l-13.85,7.35h11.05c4.93,0,9.78-1,14.43-2.63c2.95-1.03,6.12-1.6,9.42-1.6h2.9v-3.12H-731.29z
			"/>
	</g>
	<g>
		<path class="st1" d="M-694.6,105.81c4.65,1.63,9.5,2.63,14.43,2.63h10.86l-13.85-7.35h-24.18v3.12h3.31
			C-700.71,104.2-697.55,104.77-694.6,105.81z"/>
	</g>
	<g class="st4">
		<rect x="-731.29" y="97.32" width="23.86" height="3.76"/>
	</g>
	<g>
		<path class="st5" d="M-702.93,82.35V70.1h-8.58v12.2l-3.14,0.81v6.21c0,3.18,1.6,6.15,4.26,7.89l3.06,2.01l3.06-2.01
			c2.66-1.74,4.26-4.71,4.26-7.89V83.1L-702.93,82.35z"/>
	</g>
	<g>
		<path class="st0" d="M-705.06,95.18l-2.27,1.49l-2.27-1.49c-1.98-1.29-3.17-3.5-3.17-5.86v-4.61l5.44-1.39l5.44,1.39v4.61
			C-701.89,91.69-703.08,93.89-705.06,95.18z"/>
	</g>
	<g class="st2">
		<path class="st7" d="M-702.93,82.35v-9.61V70.1h-4.5v2.25v10.99l0.1-0.02l5.44,1.39v4.61c0,2.36-1.19,4.57-3.17,5.86l-2.27,1.49
			l-0.1-0.06v2.54l0.1,0.06l3.06-2.01c2.66-1.74,4.26-4.71,4.26-7.89V83.1L-702.93,82.35z"/>
	</g>
	<g>
		<path class="st1" d="M-705.06,95.18c1.98-1.29,3.17-3.5,3.17-5.86v-4.61l-5.44-1.39l-0.1,0.02v13.27l0.1,0.06L-705.06,95.18z"/>
	</g>
</g>
<g>
	<g>
		<path class="st1" d="M-683.56-115.57c-0.82-0.82-2.15-0.82-2.97,0l-11.94,11.94l-0.6-0.6l14.89-14.89c1.02-1.02,1.02-2.67,0-3.68
			c-1.02-1.02-2.67-1.02-3.68,0l-14.89,14.89l-0.5-0.5l16.15-16.15c1.02-1.02,1.02-2.67,0-3.68c-1.02-1.02-2.67-1.02-3.68,0
			l-16.15,16.15l-0.53-0.53l14.84-14.84c1.02-1.02,1.02-2.67,0-3.68c-1.02-1.02-2.67-1.02-3.68,0l-17.36,17.36l-0.95-0.95l9.75-9.75
			c1.11-1.11,1.39-2.91,0.46-4.19c-1.17-1.63-3.46-1.77-4.82-0.41l-14.32,14.32c-1.23,1.23-2.06,2.78-2.41,4.48l-2.88,9.14
			l-10.5,10.5l14.42,14.42l10.5-10.5l0,0c5.81-2.53,12.36-7.39,16.85-11.88l2.03-2.03l0.05-0.05l11.94-11.94
			C-682.74-113.42-682.74-114.75-683.56-115.57z"/>
	</g>
	<path class="st0" d="M-675.19-112.42c-0.82-0.82-2.15-0.82-2.97,0l-11.94,11.94l-0.6-0.6l14.89-14.89c1.02-1.02,1.02-2.67,0-3.68
		c-1.02-1.02-2.67-1.02-3.68,0l-14.89,14.89l-0.5-0.5l16.15-16.15c1.02-1.02,1.02-2.67,0-3.68c-1.02-1.02-2.67-1.02-3.68,0
		l-16.15,16.15l-0.53-0.53l14.84-14.84c1.02-1.02,1.02-2.67,0-3.68c-1.02-1.02-2.67-1.02-3.68,0l-17.37,17.37l-0.95-0.95l9.75-9.75
		c1.11-1.11,1.39-2.91,0.46-4.19c-1.17-1.63-3.46-1.77-4.82-0.41l-14.32,14.32c-1.23,1.23-2.07,2.78-2.41,4.48l-2.88,9.14
		l-10.5,10.5l14.42,14.42l10.5-10.5l0,0c5.81-2.53,12.36-7.39,16.85-11.88l2.03-2.03l0.05-0.05l11.94-11.94
		C-674.37-110.27-674.37-111.6-675.19-112.42z"/>
	<rect x="-741.15" y="-88.09" transform="matrix(0.7071 0.7071 -0.7071 0.7071 -274.1993 491.3013)" width="22.01" height="5.52"/>
	<path class="st5" d="M-718.11-105.48l-0.93,2.97l16.94,16.94c0.81-0.46,1.62-0.95,2.43-1.47L-718.11-105.48z"/>
	<path class="st5" d="M-692.6-92.31l-20.93-20.93l-1.65,1.65c-0.1,0.1-0.18,0.22-0.28,0.32l20.71,20.71
		C-694.01-91.13-693.3-91.72-692.6-92.31z"/>
	<path d="M-696.53-89.21l-20.23-20.23c-0.26,0.5-0.46,1.02-0.62,1.56l19.58,19.58C-697.37-88.6-696.95-88.9-696.53-89.21z"/>
	
		<rect x="-732.81" y="-84.97" transform="matrix(0.7071 0.7071 -0.7071 0.7071 -269.5308 486.3029)" class="st7" width="22.01" height="5.52"/>
</g>
<g>
	<g>
		<path class="st1" d="M-791.22,61.1l-21.7,24.75l4.43,3.89l21.7-24.75c1.07-1.22,0.95-3.09-0.27-4.16l0,0
			C-788.28,59.76-790.14,59.88-791.22,61.1z"/>
		<rect x="-816.55" y="86.73" transform="matrix(0.7519 0.6592 -0.6592 0.7519 -141.7742 558.9658)" width="5.9" height="8.75"/>
		<path class="st6" d="M-833.5,119.2l-3.42-1.51l-1.94-3.2c-3.15-5.18-2.57-11.81,1.43-16.38l10.95-12.49l19.99,17.53l-10.95,12.49
			C-821.45,120.21-827.94,121.65-833.5,119.2z"/>
		<path class="st7" d="M-818.7,92.45l-9.87,11.26c-1.19,1.36-1.81,3.12-1.73,4.95l0.01,0.3c0.03,0.61,0.56,1.08,1.17,1.02l0.3-0.03
			c1.82-0.16,3.49-1,4.68-2.36l9.87-11.26L-818.7,92.45z"/>
		
			<rect x="-831.68" y="94.05" transform="matrix(0.7519 0.6593 -0.6593 0.7519 -139.89 562.5916)" class="st7" width="28.55" height="2.78"/>
		<path class="st4" d="M-817.42,115.61l10.92-12.46l-9.99-8.76l-20.43,23.3l3.38,1.49C-827.96,121.64-821.43,120.2-817.42,115.61z"
			/>
	</g>
	<g>
		<rect x="-812.34" y="117.4" class="st1" width="40.56" height="2.98"/>
		<path class="st1" d="M-793.79,72.71l-11.09,44.69h25.63l-11.09-44.69C-790.87,71.02-793.26,71.02-793.79,72.71z"/>
		<polygon class="st5" points="-803.42,111.51 -780.71,111.51 -782.12,105.81 -802,105.81 		"/>
		<polygon class="st5" points="-800.56,100.01 -783.56,100.01 -784.97,94.31 -799.15,94.31 		"/>
		<polygon class="st5" points="-787.83,82.81 -796.3,82.81 -797.71,88.52 -786.41,88.52 		"/>
	</g>
</g>
<g>
	<g>
		<path class="st0" d="M-501.63-92.56c-2.24,1.95-5.16,3.14-8.37,3.14c-3.2,0-6.12-1.19-8.37-3.14l-11.95,13.43
			c-0.52,0.59-0.2,1.53,0.58,1.66l4.94,0.84c1.26,0.21,2.48,0.61,3.62,1.2c3.44,1.76,7.21,3.65,11.17,3.65
			c3.97,0,7.74-1.89,11.17-3.65c1.14-0.58,2.36-0.98,3.62-1.2l4.94-0.84c0.78-0.13,1.11-1.07,0.58-1.66L-501.63-92.56z"/>
		<path class="st0" d="M-493.66-126.59c-2.41,0-4.76-0.68-6.8-1.98c-2.99-1.9-6.19-4.01-9.54-4.01s-6.55,2.1-9.54,4.01
			c-2.03,1.29-4.39,1.98-6.8,1.98h-2.95c-0.87,0-1.33,1.02-0.75,1.67l11.67,13.11c2.24-1.95,5.16-3.14,8.37-3.14
			c3.21,0,6.13,1.19,8.37,3.14l11.67-13.11c0.58-0.65,0.12-1.67-0.75-1.67H-493.66z"/>
		<path class="st0" d="M-484.45-116.98l-0.84-4.94c-0.13-0.78-1.07-1.11-1.66-0.58l-13.43,11.95c1.95,2.24,3.14,5.16,3.14,8.37
			c0,3.2-1.19,6.13-3.14,8.37l13.43,11.95c0.59,0.52,1.52,0.2,1.66-0.58l0.84-4.94c0.21-1.26,0.61-2.48,1.2-3.62
			c1.76-3.44,3.65-7.21,3.65-11.17c0-3.97-1.89-7.74-3.65-11.17C-483.83-114.5-484.23-115.72-484.45-116.98z"/>
		<path class="st0" d="M-519.61-110.55l-13.11-11.67c-0.65-0.58-1.67-0.12-1.67,0.75v2.95c0,2.41-0.68,4.76-1.98,6.8
			c-1.9,2.99-4,6.19-4,9.54c0,3.35,2.1,6.55,4,9.54c1.29,2.03,1.98,4.39,1.98,6.8v2.95c0,0.87,1.02,1.33,1.67,0.75l13.11-11.67
			c-1.95-2.24-3.14-5.16-3.14-8.37C-522.76-105.39-521.57-108.31-519.61-110.55z"/>
	</g>
	<path d="M-490.38-102.19c0,10.83-8.78,19.62-19.62,19.62c-10.83,0-19.62-8.78-19.62-19.62c0-10.83,8.78-19.62,19.62-19.62
		C-499.16-121.8-490.38-113.02-490.38-102.19z"/>
	<g>
		<path class="st1" d="M-509.99-85.15c-9.35,0-16.96-7.61-16.96-16.96c0-9.35,7.61-16.96,16.96-16.96c9.35,0,16.96,7.61,16.96,16.96
			C-493.04-92.75-500.64-85.15-509.99-85.15z M-509.99-116.52c-7.95,0-14.42,6.47-14.42,14.42c0,7.95,6.47,14.42,14.42,14.42
			c7.95,0,14.42-6.47,14.42-14.42C-495.58-110.05-502.04-116.52-509.99-116.52z"/>
	</g>
	<g>
		<path class="st5" d="M-509.99-87.69c-7.95,0-14.42-6.47-14.42-14.42c0-7.95,6.47-14.42,14.42-14.42c7.95,0,14.42,6.47,14.42,14.42
			C-495.58-94.15-502.04-87.69-509.99-87.69z M-509.99-115.08c-7.16,0-12.98,5.82-12.98,12.98c0,7.16,5.82,12.98,12.98,12.98
			c7.16,0,12.98-5.82,12.98-12.98C-497.01-109.26-502.84-115.08-509.99-115.08z"/>
	</g>
	<g>
		<path class="st5" d="M-498.66-104.1L-498.66-104.1l-0.05-0.05l-1.14-0.16c-1.3-0.18-2.5-0.78-3.42-1.7l-2.56-2.56l-2.75-1.72
			l1.53,2.94l-0.83,0.83c-0.22,0.22-0.22,0.57,0,0.78l0.84,0.84l-1.77,1.77l0,0l-0.92,0.92l-0.92-0.92l-1.83-1.83l-1.36,1.36
			l2.75,2.75l-5.32,5.32c-0.38,0.37-0.38,0.98,0,1.36c0.37,0.37,0.98,0.37,1.36,0l5.32-5.32l5.32,5.32c0.38,0.37,0.98,0.37,1.36,0
			c0.38-0.37,0.38-0.98,0-1.36l-5.32-5.32l0.92-0.92l1.77-1.77c0.91,0.92,1.5,2.11,1.68,3.4l0.16,1.14l0.05,0.05
			c0.31-0.04,0.62-0.11,0.92-0.2c0.91-0.28,1.78-0.78,2.51-1.52c0.66-0.66,1.13-1.44,1.42-2.25
			C-498.83-103.31-498.72-103.7-498.66-104.1L-498.66-104.1z"/>
		<path class="st5" d="M-518.43-109.56l2.01,3.73c-0.07,0.05-0.15,0.11-0.21,0.17c-0.69,0.69-0.69,1.82,0,2.51l0.53,0.53
			c-0.44-0.44-0.44-1.14,0-1.58c0.43-0.44,1.14-0.44,1.58,0l0.04,0.04l0.63,0.54l0.01-0.01l1.35-1.35l-2.17-2.55L-518.43-109.56z"/>
	</g>
</g>
</svg>
