<?xml version="1.0" encoding="utf-8"?>
<!-- Generator: Adobe Illustrator 25.3.0, SVG Export Plug-In . SVG Version: 6.00 Build 0)  -->
<svg version="1.1" id="Ñëîé_1" xmlns="http://www.w3.org/2000/svg" xmlns:xlink="http://www.w3.org/1999/xlink" x="0px" y="0px"
	 viewBox="0 0 51.13 56.22" style="enable-background:new 0 0 51.13 56.22;" xml:space="preserve">
<style type="text/css">
	.st0{fill:#FF4431;}
	.st1{fill:#E53013;}
	.st2{opacity:0.2;}
	.st3{opacity:0.3;}
	.st4{opacity:0.1;}
	.st5{fill:#CCD7E2;}
	.st6{fill:#4F5266;}
	.st7{fill:#353747;}
	.st8{opacity:0.4;}
	.st9{fill:#78CFF1;}
	.st10{opacity:0.5;}
	.st11{fill:#049AB2;}
	.st12{fill:#FFB32C;}
	.st13{fill:#FFD67B;}
</style>
<g>
	<g>
		<rect x="-539.62" y="-7.24" class="st0" width="30.67" height="41.42"/>
	</g>
	<g>
		<rect x="-508.96" y="-2.94" class="st1" width="2.55" height="15.95"/>
	</g>
	<g>
		<path class="st0" d="M-524.29-20.4c-6.82,0-12.59,4.45-14.58,10.61h29.16C-511.7-15.95-517.47-20.4-524.29-20.4z"/>
	</g>
	<g>
		<rect x="-506.4" y="-0.89" class="st0" width="2.56" height="11.86"/>
	</g>
	<g class="st2">
		<rect x="-525.27" y="-17.03" width="2.56" height="3.87"/>
	</g>
	<g class="st2">
		<rect x="-534.81" y="17.59" width="2.56" height="14.01"/>
	</g>
	<g class="st2">
		<rect x="-525.12" y="17.59" width="2.56" height="14.01"/>
	</g>
	<g class="st2">
		<rect x="-515.43" y="17.59" width="2.56" height="14.01"/>
	</g>
	<g>
		<rect x="-542.37" y="-9.79" class="st1" width="36.16" height="2.56"/>
	</g>
	<g>
		<rect x="-539.62" y="34.18" class="st1" width="30.67" height="2.55"/>
	</g>
	<g>
		<polygon class="st0" points="-543.71,41.33 -504.87,41.33 -508.96,36.73 -539.62,36.73 		"/>
	</g>
	<g>
		<rect x="-530.04" y="-21.87" class="st1" width="11.5" height="2.55"/>
	</g>
	<g class="st2">
		<path d="M-533.44-13.16h2.91c0.47-1.19,2.74-3.24,3.85-3.87h-2.98C-531.2-16.23-532.65-14.62-533.44-13.16z"/>
	</g>
	<g class="st2">
		<path d="M-514.2-13.16h-2.8c-0.82-1.64-2.86-3.24-3.96-3.87h2.98C-516.43-16.23-514.99-14.62-514.2-13.16z"/>
	</g>
	<g>
		<g>
			<path class="st1" d="M-523.44,13.01c-4.4,0-7.97-3.58-7.97-7.97c0-4.4,3.58-7.97,7.97-7.97c4.4,0,7.97,3.58,7.97,7.97
				C-515.46,9.43-519.04,13.01-523.44,13.01z M-523.44-0.38c-2.99,0-5.42,2.43-5.42,5.42c0,2.99,2.43,5.42,5.42,5.42
				c2.99,0,5.42-2.43,5.42-5.42C-518.02,2.05-520.45-0.38-523.44-0.38z"/>
		</g>
	</g>
	<g>
		<rect x="-542.18" y="-2.94" class="st1" width="2.56" height="15.95"/>
	</g>
	<g>
		<rect x="-544.73" y="-0.89" class="st0" width="2.56" height="11.86"/>
	</g>
	<g class="st3">
		<polygon points="-525.2,8.08 -526.95,5.04 -525.2,1.99 -521.68,1.99 -519.92,5.04 -521.68,8.08 		"/>
	</g>
	<g class="st4">
		<rect x="-523.84" y="-7.24" width="14.89" height="41.42"/>
	</g>
	<g class="st4">
		<path d="M-523.84-9.79h14.13c-1.42-4.38-4.76-7.85-9.02-9.52h-5.12V-9.79z"/>
	</g>
	<g class="st4">
		<polygon points="-523.84,-7.24 -508.96,-7.24 -506.21,-7.24 -506.21,-9.79 -509.71,-9.79 -523.84,-9.79 		"/>
	</g>
	<g class="st4">
		<rect x="-523.84" y="34.18" width="14.89" height="2.55"/>
	</g>
	<g class="st4">
		<polygon points="-508.96,36.73 -523.84,36.73 -523.84,41.33 -504.87,41.33 		"/>
	</g>
	<g class="st4">
		<polygon points="-523.84,-21.87 -523.84,-20.36 -523.84,-19.31 -518.73,-19.31 -518.54,-19.31 -518.54,-21.87 		"/>
	</g>
</g>
<g>
	<g>
		<path d="M-48.24-149.76l-1.1,0.32l-5.6,1.61l-1.04,0.3l2.69,9.33l1.04-0.3l4.49,15.58c0.45,1.55,2.06,2.44,3.61,1.99l0,0
			c1.55-0.45,2.44-2.06,1.99-3.61l-4.49-15.58l1.11-0.32L-48.24-149.76z"/>
	</g>
	<g>
		<path d="M-50.4-154.74c0,3.75-3.04,6.8-6.8,6.8c-3.75,0-6.8-3.04-6.8-6.8s3.04-6.8,6.8-6.8C-53.45-161.54-50.4-158.49-50.4-154.74
			z"/>
	</g>
	<g>
		<path class="st5" d="M-4.7-154.74c0,3.75-3.04,6.8-6.8,6.8s-6.8-3.04-6.8-6.8s3.04-6.8,6.8-6.8S-4.7-158.49-4.7-154.74z"/>
	</g>
	<g>
		<path class="st6" d="M-47.68-163.48h-13.19V-146h13.19c0.17,0,0.33,0.01,0.5,0.02v-17.51C-47.35-163.49-47.51-163.48-47.68-163.48
			z"/>
	</g>
	<g>
		<path class="st6" d="M-26.25-169.32c-5.51,3.25-11.67,5.18-18.02,5.69v17.79c6.35,0.51,12.51,2.44,18.02,5.69l14.75,11.44v-52.05
			L-26.25-169.32z"/>
	</g>
	<g>
		<path d="M-47.18-163.5v17.51c0.97,0.01,1.95,0.06,2.91,0.14v-17.79C-45.24-163.55-46.21-163.51-47.18-163.5z"/>
	</g>
	<g>
		<path class="st7" d="M-47.68-146c0.17,0,0.33,0.01,0.5,0.02v-8.76h-13.69v8.74H-47.68z"/>
	</g>
	<g>
		<path class="st7" d="M-44.27-145.85c6.35,0.51,12.51,2.44,18.02,5.69l14.75,11.44v-26.02h-32.77V-145.85z"/>
	</g>
	<g>
		<polygon class="st5" points="-17.93,-175.78 -17.93,-133.7 -16.41,-132.52 -16.41,-176.96 		"/>
	</g>
	<g>
		<polygon class="st5" points="-22.98,-171.86 -22.98,-137.62 -21.46,-136.44 -21.46,-173.04 		"/>
	</g>
</g>
<g>
	<g>
		<g>
			<rect x="-182.99" y="-169.69" class="st6" width="4.62" height="10.9"/>
		</g>
	</g>
	<g class="st2">
		<path d="M-178.36-158.95v-10.74h-2.31v10.52C-179.88-159.17-179.11-159.09-178.36-158.95z"/>
	</g>
	<g>
		<path class="st0" d="M-171.33-108.94h-18.7c-1.76,0-3.19-1.43-3.19-3.19v-34.5c0-6.93,5.62-12.54,12.54-12.54l0,0
			c6.93,0,12.54,5.62,12.54,12.54v34.5C-168.13-110.37-169.56-108.94-171.33-108.94z"/>
	</g>
	<g>
		<path class="st1" d="M-168.13-146.63c0-6.14-4.41-11.23-10.23-12.32l0,0h-2.31v50.01h9.35c1.76,0,3.19-1.43,3.19-3.19V-146.63z"/>
	</g>
	<g>
		<g>
			<path class="st7" d="M-159.9-164.78l-17.06-5.08l0.66-2.22l14.93,4.45c1.18,0.35,1.85,1.59,1.5,2.77L-159.9-164.78z"/>
		</g>
	</g>
	<g>
		<g>
			<rect x="-183.65" y="-161.25" width="5.95" height="2.31"/>
		</g>
	</g>
	<g>
		<path d="M-186.37-172L-186.37-172c0,1.28,1.03,2.31,2.31,2.31h0.4v2.31h5.95v-2.31h0.28c1.26,0,2.49-0.32,3.59-0.92l0,0
			c1.1-0.61,2.34-0.92,3.59-0.92h9.07c1.53,0,2.77-1.24,2.77-2.77l0,0h-25.66C-185.33-174.32-186.37-173.28-186.37-172z"/>
	</g>
	<g>
		<g>
			<path class="st7" d="M-197.23-141.6h-2.31v-4.1c0-10.82,8.77-19.59,19.59-19.59h2.25v2.31h-2.77c-9.26,0-16.76,7.5-16.76,16.76
				V-141.6z"/>
		</g>
	</g>
	<g>
		<polygon points="-192.73,-128.89 -204.29,-128.89 -200.59,-141.6 -196.42,-141.6 		"/>
	</g>
	<g>
		<rect x="-193.22" y="-145.35" class="st5" width="25.08" height="1.2"/>
	</g>
	<g>
		<rect x="-193.22" y="-141.23" class="st5" width="25.08" height="1.2"/>
	</g>
	<g class="st8">
		<polygon class="st6" points="-196.42,-141.6 -198.5,-141.6 -198.5,-128.89 -192.73,-128.89 		"/>
	</g>
</g>
<g>
	<g>
		<path class="st9" d="M-584.37,15.57c0,3.24-2.63,5.86-5.86,5.86c-3.24,0-5.86-2.63-5.86-5.86s5.86-11.2,5.86-11.2
			S-584.37,12.33-584.37,15.57z"/>
	</g>
	<g>
		<path class="st5" d="M-590.9,15.01c0,0.74-0.6,1.34-1.34,1.34c-0.74,0-1.34-0.6-1.34-1.34c0-0.74,0.6-1.34,1.34-1.34
			C-591.5,13.67-590.9,14.27-590.9,15.01z"/>
	</g>
	<g class="st10">
		<path class="st11" d="M-584.37,15.57c0-3.24-5.86-11.2-5.86-11.2v0v17.07l0,0C-587,21.43-584.37,18.81-584.37,15.57z"/>
	</g>
	<g>
		<g>
			<path class="st11" d="M-583.34-3.72h-1.25c-0.48,0-0.87,0.39-0.87,0.87c0,0.48,0.39,0.87,0.87,0.87h1.25
				c0.48,0,0.87-0.39,0.87-0.87C-582.48-3.33-582.86-3.72-583.34-3.72z"/>
		</g>
		<g>
			<path class="st11" d="M-580.45-2.85c0,0.48,0.39,0.87,0.87,0.87h1.25c0.48,0,0.87-0.39,0.87-0.87c0-0.48-0.39-0.87-0.87-0.87
				h-1.25C-580.07-3.72-580.45-3.33-580.45-2.85z"/>
		</g>
		<g>
			<path class="st11" d="M-575.44-2.85c0,0.48,0.39,0.87,0.87,0.87h1.25c0.48,0,0.87-0.39,0.87-0.87c0-0.48-0.39-0.87-0.87-0.87
				h-1.25C-575.05-3.72-575.44-3.33-575.44-2.85z"/>
		</g>
		<g>
			<path class="st11" d="M-588.35-3.72h-0.67c-0.48,0-0.87,0.39-0.87,0.87c0,0.48,0.39,0.87,0.87,0.87h0.67
				c0.48,0,0.87-0.39,0.87-0.87C-587.49-3.33-587.88-3.72-588.35-3.72z"/>
		</g>
		<g>
			<path class="st11" d="M-578.97,3.84l-1.14-0.53c-0.43-0.2-0.95-0.01-1.15,0.42c-0.2,0.43-0.02,0.95,0.42,1.15l1.14,0.53
				c0.43,0.2,0.95,0.01,1.15-0.42C-578.34,4.56-578.53,4.04-578.97,3.84z"/>
		</g>
		<g>
			<path class="st11" d="M-583.51,1.73l-1.14-0.53c-0.43-0.2-0.95-0.02-1.15,0.42c-0.2,0.44-0.02,0.95,0.42,1.15l1.14,0.53
				c0.43,0.2,0.95,0.01,1.15-0.42C-582.89,2.44-583.07,1.93-583.51,1.73z"/>
		</g>
		<g>
			<path class="st11" d="M-574.43,5.96l-1.14-0.53c-0.44-0.2-0.95-0.01-1.15,0.42c-0.2,0.44-0.01,0.95,0.42,1.15l1.14,0.53
				c0.43,0.2,0.95,0.01,1.15-0.42C-573.8,6.68-573.99,6.16-574.43,5.96z"/>
		</g>
		<g>
			<path class="st11" d="M-588.05-0.39l-0.61-0.28c-0.43-0.2-0.95-0.01-1.15,0.42c-0.2,0.43-0.02,0.95,0.42,1.15l0.6,0.28
				c0.44,0.2,0.95,0.02,1.15-0.42C-587.43,0.33-587.62-0.19-588.05-0.39z"/>
		</g>
		<g>
			<path class="st11" d="M-576.72-11.55c0.2,0.44,0.72,0.62,1.15,0.42l1.14-0.53c0.44-0.2,0.62-0.72,0.42-1.15
				c-0.2-0.43-0.72-0.62-1.15-0.42l-1.14,0.53C-576.73-12.5-576.92-11.98-576.72-11.55z"/>
		</g>
		<g>
			<path class="st11" d="M-585.8-7.31c0.2,0.44,0.72,0.62,1.15,0.42l1.14-0.53c0.43-0.2,0.62-0.72,0.42-1.15
				c-0.2-0.43-0.72-0.62-1.15-0.42l-1.14,0.53C-585.81-8.26-586-7.75-585.8-7.31z"/>
		</g>
		<g>
			<path class="st11" d="M-581.26-9.43c0.2,0.43,0.72,0.62,1.15,0.42l1.14-0.53c0.44-0.2,0.62-0.72,0.42-1.15
				c-0.2-0.43-0.72-0.62-1.15-0.42l-1.14,0.53C-581.27-10.38-581.46-9.86-581.26-9.43z"/>
		</g>
		<g>
			<path class="st11" d="M-588.66-5.02l0.61-0.28c0.43-0.2,0.62-0.72,0.42-1.15c-0.2-0.43-0.72-0.62-1.15-0.42l-0.6,0.28
				c-0.43,0.2-0.62,0.72-0.42,1.15C-589.61-5.01-589.09-4.82-588.66-5.02z"/>
		</g>
	</g>
	<g>
		<g>
			<path d="M-650.34,4.95h-1.63v-15.6h1.63c0.94,0,1.71,0.77,1.71,1.71V3.24C-648.63,4.19-649.4,4.95-650.34,4.95z"/>
		</g>
	</g>
	<g>
		<g>
			<path class="st6" d="M-614.21,37.21c-4.69,0-8.51-3.82-8.51-8.51V-9.23c0-1.01-0.82-1.84-1.84-1.84c-1.01,0-1.84,0.82-1.84,1.84
				v38.09c0,4.6-3.74,8.34-8.34,8.34c-4.6,0-8.34-3.74-8.34-8.34V2.89c0-1.26-1.03-2.29-2.29-2.29h-3.27v-6.67h3.27
				c4.94,0,8.96,4.02,8.96,8.96v25.98c0,0.92,0.75,1.67,1.67,1.67c0.92,0,1.67-0.75,1.67-1.67V-9.23c0-4.69,3.82-8.51,8.51-8.51
				s8.51,3.82,8.51,8.51V28.7c0,1.01,0.82,1.84,1.83,1.84c1.01,0,1.83-0.82,1.83-1.84V2.89c0-4.94,4.02-8.96,8.96-8.96h2.72V0.6
				h-2.72c-1.26,0-2.29,1.03-2.29,2.29V28.7C-605.7,33.39-609.52,37.21-614.21,37.21z"/>
		</g>
	</g>
	<g>
		<path d="M-591.03,2.28h-9.02c-0.36,0-0.65-0.29-0.65-0.65v-8.96c0-0.36,0.29-0.65,0.65-0.65h9.02c0.36,0,0.65,0.29,0.65,0.65v8.96
			C-590.38,1.99-590.67,2.28-591.03,2.28z"/>
	</g>
	<g>
		<path class="st7" d="M-601-2.85h-3.1c-2.72,0-4.92,2.2-4.92,4.92V29.5c0,2.72-2.2,4.92-4.92,4.92h-0.46
			c-2.72,0-4.92-2.2-4.92-4.92V-9.37c0-2.72-2.2-4.92-4.92-4.92h-0.56c-2.72,0-4.92,2.2-4.92,4.92v38.39c0,2.72-2.2,4.92-4.92,4.92
			h-0.08c-2.72,0-4.92-2.2-4.92-4.92V2.07c0-2.72-2.2-4.92-4.92-4.92h-3.1c-0.33,0-0.65,0.04-0.96,0.1V0.6h3.27
			c1.26,0,2.29,1.03,2.29,2.29v25.98c0,2.76,1.36,5.18,3.43,6.71c1.38,1.02,3.07,1.64,4.92,1.64c1.89,0,3.61-0.65,5.01-1.71
			c2.01-1.52,3.34-3.92,3.34-6.63V-9.23c0-1.01,0.82-1.84,1.84-1.84c1.01,0,1.84,0.82,1.84,1.84V28.7c0,2.77,1.35,5.2,3.39,6.76
			c1.43,1.08,3.19,1.75,5.12,1.75c1.96,0,3.75-0.69,5.19-1.81c2.01-1.56,3.32-3.97,3.32-6.7V2.89c0-1.26,1.03-2.29,2.29-2.29h2.72
			v-3.42C-600.8-2.82-600.89-2.85-601-2.85z"/>
	</g>
</g>
<g>
	<g>
		<g>
			<path d="M-405.98-199.53h-2.56v-2.17c0-9.25-7.53-16.78-16.78-16.78s-16.78,7.53-16.78,16.78v2.17h-2.56v-2.17
				c0-10.66,8.67-19.34,19.34-19.34c10.66,0,19.34,8.67,19.34,19.34V-199.53z"/>
		</g>
	</g>
	<g>
		<path class="st0" d="M-425.06-158.6L-425.06-158.6l-0.05-0.03c-12.88-8.96-20.57-23.65-20.57-39.35v-1.55h40.72v1.91
			C-404.96-182.13-412.45-167.59-425.06-158.6L-425.06-158.6z"/>
	</g>
	<g>
		<path class="st7" d="M-410.07-203.81v4.28h5.11v-4.28c0-1.41-1.14-2.56-2.55-2.56l0,0C-408.92-206.37-410.07-205.23-410.07-203.81
			z"/>
	</g>
	<g>
		<path class="st7" d="M-445.67-203.81v4.28h5.11v-4.28c0-1.41-1.14-2.56-2.56-2.56l0,0C-444.53-206.37-445.67-205.23-445.67-203.81
			z"/>
	</g>
	<g>
		<path class="st1" d="M-425.06-158.6c12.61-8.99,20.1-23.53,20.1-39.02v-1.91h-20.32v40.77c0.06,0.04,0.11,0.09,0.17,0.13
			L-425.06-158.6z"/>
	</g>
	<g>
		<rect x="-445.67" y="-199.56" width="40.72" height="1.33"/>
	</g>
	<g>
		<path class="st5" d="M-405.24-192.62h-40.13c0.05,0.44,0.11,0.89,0.18,1.33h39.79C-405.33-191.73-405.28-192.17-405.24-192.62z"/>
	</g>
	<g>
		<path class="st5" d="M-444.32-186.69h38.09c0.1-0.44,0.19-0.89,0.28-1.33h-38.66C-444.51-187.57-444.43-187.13-444.32-186.69z"/>
	</g>
</g>
<g>
	<g>
		<g>
			<path class="st1" d="M-519.27-290.7l-30.44,30.44c-1.21,1.21-1.21,3.17,0,4.38l0,0c1.21,1.21,3.17,1.21,4.38,0l30.44-30.44
				L-519.27-290.7z"/>
		</g>
		<g>
			
				<rect x="-523.14" y="-289.73" transform="matrix(0.7071 0.7071 -0.7071 0.7071 -354.2635 284.0963)" width="6.19" height="8.36"/>
		</g>
		<g>
			<path class="st6" d="M-492.36-287.88l-0.17-0.17l-3.7-0.52c-4.18-0.58-8.06-2.52-11.05-5.5l-8.28-8.28l-8.89-5.55l4.95,9.5
				l-2.68,2.68c-0.7,0.7-0.7,1.83,0,2.53l7.01,7.01c2.99,2.99,4.92,6.87,5.5,11.05l0.52,3.7l0.17,0.17
				c3.99-0.53,7.92-2.39,11.07-5.54C-494.75-279.96-492.89-283.89-492.36-287.88z"/>
		</g>
		<g>
			<path class="st7" d="M-522.18-293.2l7.01,7.01c2.99,2.99,4.92,6.87,5.5,11.05l0.51,3.7l0.17,0.17c3.99-0.53,7.92-2.39,11.07-5.54
				l-21.6-21.6l-2.68,2.68C-522.88-295.03-522.88-293.9-522.18-293.2z"/>
		</g>
		<g class="st4">
			<path d="M-492.36-287.88l-0.17-0.17l-3.7-0.52c-0.08-0.01-0.16-0.04-0.24-0.05c-0.88,3.01-2.52,5.89-4.94,8.31
				c-2.42,2.42-5.3,4.06-8.31,4.94c0.01,0.08,0.04,0.16,0.05,0.24l0.51,3.7l0.17,0.17c3.99-0.53,7.92-2.39,11.07-5.54
				C-494.75-279.96-492.89-283.89-492.36-287.88z"/>
		</g>
	</g>
	<g>
		<g>
			<path class="st1" d="M-537.02-290.7l30.44,30.44c1.21,1.21,1.21,3.17,0,4.38l0,0c-1.21,1.21-3.17,1.21-4.38,0l-30.44-30.44
				L-537.02-290.7z"/>
		</g>
		<g>
			
				<rect x="-539.35" y="-289.73" transform="matrix(-0.7071 0.7071 -0.7071 -0.7071 -1117.3545 -108.2415)" width="6.19" height="8.36"/>
		</g>
		<g>
			<path class="st6" d="M-550.4-292.91c0.21-0.21,0.45-0.39,0.68-0.56l-6.51-12.05l12.18,6.58l7.01,8.24l-4.35,4.35l-0.03,0.03
				l-2.04-1.73l-0.14-0.12c-1.41-1.41-3.68-1.41-5.09,0c-1.41,1.41-1.41,3.69,0,5.09l-1.72-1.72
				C-552.64-287.04-552.64-290.67-550.4-292.91z"/>
		</g>
		<g>
			<path class="st7" d="M-543.58-288.17c-1.41-1.41-3.68-1.41-5.09,0c-1.41,1.41-1.41,3.69,0,5.09l-1.72-1.72
				c-2.24-2.24-2.24-5.87,0-8.1c0.21-0.21,0.45-0.39,0.68-0.56l-6.51-12.05l0.27,0.14l16.8,16.8l-2.22,2.22l-0.03,0.03l-2.04-1.73
				L-543.58-288.17z"/>
		</g>
	</g>
</g>
<g>
	<g>
		<path class="st6" d="M-135.63-3.81c-1.76,0-3.19-1.43-3.19-3.19v-7.06c0-1.54-1.25-2.8-2.8-2.8l0,0c-1.54,0-2.79,1.25-2.79,2.8
			V39.5c0,1.58,1.28,2.87,2.87,2.87h24.18c1.58,0,2.87-1.28,2.87-2.87V-0.94c0-1.58-1.28-2.87-2.87-2.87H-135.63z"/>
	</g>
	<g>
		<rect x="-139.38" y="1.25" class="st5" width="19.85" height="11.9"/>
	</g>
	<g>
		<path class="st7" d="M-120.15,37.71h-18.6c-0.35,0-0.63-0.28-0.63-0.63v-1.55c0-0.35,0.28-0.63,0.63-0.63h18.6
			c0.35,0,0.63,0.28,0.63,0.63v1.55C-119.53,37.43-119.81,37.71-120.15,37.71z"/>
	</g>
	<g>
		<path class="st7" d="M-134.31,23.73h-4.55c-0.29,0-0.52-0.23-0.52-0.52v-4.55c0-0.29,0.23-0.52,0.52-0.52h4.55
			c0.29,0,0.52,0.23,0.52,0.52v4.55C-133.79,23.5-134.02,23.73-134.31,23.73z"/>
	</g>
	<g>
		<path class="st7" d="M-126.99,23.73h-4.55c-0.29,0-0.52-0.23-0.52-0.52v-4.55c0-0.29,0.23-0.52,0.52-0.52h4.55
			c0.29,0,0.52,0.23,0.52,0.52v4.55C-126.47,23.5-126.71,23.73-126.99,23.73z"/>
	</g>
	<g>
		<path class="st1" d="M-119.68,23.73h-4.55c-0.29,0-0.52-0.23-0.52-0.52v-4.55c0-0.29,0.23-0.52,0.52-0.52h4.55
			c0.29,0,0.52,0.23,0.52,0.52v4.55C-119.16,23.5-119.39,23.73-119.68,23.73z"/>
	</g>
	<g>
		<path class="st7" d="M-134.21,30.91h-4.55c-0.29,0-0.52-0.23-0.52-0.52v-4.55c0-0.29,0.23-0.52,0.52-0.52h4.55
			c0.29,0,0.52,0.23,0.52,0.52v4.55C-133.69,30.67-133.93,30.91-134.21,30.91z"/>
	</g>
	<g>
		<path class="st7" d="M-126.9,30.91h-4.55c-0.29,0-0.52-0.23-0.52-0.52v-4.55c0-0.29,0.23-0.52,0.52-0.52h4.55
			c0.29,0,0.52,0.23,0.52,0.52v4.55C-126.38,30.67-126.61,30.91-126.9,30.91z"/>
	</g>
	<g>
		<path class="st7" d="M-119.59,30.91h-4.55c-0.29,0-0.52-0.23-0.52-0.52v-4.55c0-0.29,0.23-0.52,0.52-0.52h4.55
			c0.29,0,0.52,0.23,0.52,0.52v4.55C-119.07,30.67-119.3,30.91-119.59,30.91z"/>
	</g>
	<g>
		<path class="st1" d="M-138.82-14.06c0-1.54-1.25-2.8-2.8-2.8c-1.54,0-2.79,1.25-2.79,2.8v2.8h5.59V-14.06z"/>
	</g>
	<g>
		<g>
			<path class="st1" d="M-112.49-5.6c-0.41,0.28-0.52,0.83-0.24,1.24c0.39,0.57,0.59,1.24,0.59,1.94c0,0.55-0.12,1.07-0.37,1.55
				c-0.22,0.44-0.04,0.98,0.4,1.2c0.13,0.06,0.27,0.09,0.4,0.09c0.33,0,0.64-0.18,0.8-0.49c0.37-0.73,0.56-1.54,0.56-2.36
				c0-1.05-0.31-2.07-0.9-2.94C-111.53-5.77-112.08-5.87-112.49-5.6z"/>
		</g>
		<g>
			<path class="st1" d="M-103.58-10.54c-0.28-0.41-0.84-0.52-1.24-0.24c-0.41,0.28-0.52,0.83-0.24,1.24
				c1.42,2.1,2.18,4.57,2.18,7.12c0,2.27-0.6,4.5-1.75,6.44c-0.25,0.43-0.11,0.98,0.32,1.23c0.14,0.08,0.3,0.12,0.45,0.12
				c0.31,0,0.61-0.16,0.77-0.44c1.31-2.22,2-4.76,2-7.35C-101.1-5.33-101.96-8.14-103.58-10.54z"/>
		</g>
		<g>
			<path class="st1" d="M-108.41-7.93c-0.42,0.26-0.55,0.81-0.29,1.23c0.79,1.28,1.21,2.76,1.21,4.27c0,1.35-0.34,2.69-0.98,3.87
				c-0.24,0.43-0.08,0.98,0.36,1.21c0.14,0.07,0.28,0.11,0.43,0.11c0.32,0,0.63-0.17,0.79-0.47c0.78-1.44,1.2-3.08,1.2-4.73
				c0-1.85-0.51-3.65-1.48-5.22C-107.44-8.06-107.99-8.19-108.41-7.93z"/>
		</g>
	</g>
	<g class="st2">
		<rect x="-129.45" y="1.25" class="st7" width="9.92" height="11.9"/>
	</g>
</g>
<g>
	<g>
		<rect class="st0" width="51.13" height="56.22"/>
	</g>
	<g>
		<rect x="5.16" y="25.55" class="st7" width="41.02" height="25.54"/>
	</g>
	<g>
		<rect x="12.75" y="35.31" width="25.84" height="5.11"/>
	</g>
	<g>
		<rect x="5.11" y="5.11" class="st5" width="41.02" height="15.33"/>
	</g>
	<g>
		<path class="st1" d="M19.71,37.86c0,3.29,2.67,5.96,5.96,5.96c3.29,0,5.96-2.67,5.96-5.96c0-3.29-2.67-5.96-5.96-5.96
			C22.38,31.9,19.71,34.57,19.71,37.86z"/>
	</g>
	<g>
		<g>
			<path class="st1" d="M14.1,8.79h5.2v1.77h-3.09v1.52h2.65v1.76h-2.65v2.92H14.1V8.79z"/>
		</g>
		<g>
			<path class="st1" d="M20.68,8.79h2.11v7.97h-2.11V8.79z"/>
		</g>
		<g>
			<path class="st1" d="M28.85,16.76l-1.37-2.67h-0.81v2.67h-2.11V8.79h3.02c1.72,0,3.19,0.59,3.19,2.57c0,1.14-0.52,1.89-1.29,2.3
				l1.73,3.09H28.85z M26.66,12.42h0.76c0.83,0,1.27-0.37,1.27-1.05c0-0.69-0.44-0.91-1.27-0.91h-0.76V12.42z"/>
		</g>
		<g>
			<path class="st1" d="M32.28,8.79h5.15v1.77h-3.04v1.25h2.6v1.77h-2.6V15h3.16v1.76h-5.27V8.79z"/>
		</g>
	</g>
</g>
<g>
	<g>
		<path class="st6" d="M-425.35,30.79L-425.35,30.79c-11.55,0-20.91-9.36-20.91-20.91v-27.54c0-1.69,1.37-3.06,3.06-3.06h35.7
			c1.69,0,3.06,1.37,3.06,3.06V9.87C-404.43,21.42-413.8,30.79-425.35,30.79z"/>
	</g>
	<g>
		<path class="st5" d="M-410.65,5.36h-29.39c-0.4,0-0.72-0.32-0.72-0.72V-14.4c0-0.4,0.32-0.72,0.72-0.72h29.39
			c0.4,0,0.72,0.32,0.72,0.72V4.64C-409.94,5.04-410.26,5.36-410.65,5.36z"/>
	</g>
	<g>
		<rect x="-441.74" y="21.38" transform="matrix(0.7071 -0.7071 0.7071 0.7071 -145.0853 -301.637)" width="10.18" height="5.87"/>
	</g>
	<g>
		<rect x="-450.5" y="33.23" transform="matrix(0.7071 -0.7071 0.7071 0.7071 -157.4691 -306.7665)" width="2.93" height="6.95"/>
	</g>
	<g>
		<path class="st1" d="M-444.08,39.58l-7.83-7.83c-0.26-0.26-0.26-0.69,0-0.96l6.79-6.79c0.26-0.26,0.69-0.26,0.96,0l7.83,7.83
			c0.26,0.26,0.26,0.69,0,0.96l-6.79,6.79C-443.39,39.84-443.82,39.84-444.08,39.58z"/>
	</g>
	<g>
		<rect x="-416.92" y="18.93" transform="matrix(0.7071 -0.7071 0.7071 0.7071 -138.2346 -285.6949)" width="5.87" height="10.18"/>
	</g>
	<g>
		<rect x="-405.07" y="34.93" transform="matrix(0.7071 -0.7071 0.7071 0.7071 -143.3642 -273.311)" width="6.95" height="2.94"/>
	</g>
	<g>
		<path class="st1" d="M-406.55,39.28l7.83-7.83c0.26-0.26,0.26-0.69,0-0.96l-6.79-6.79c-0.26-0.26-0.69-0.26-0.96,0l-7.83,7.83
			c-0.26,0.26-0.26,0.69,0,0.96l6.79,6.79C-407.24,39.54-406.81,39.54-406.55,39.28z"/>
	</g>
	<g>
		<path class="st7" d="M-415.54,19.61c0,5.42-4.39,9.81-9.81,9.81c-5.42,0-9.81-4.39-9.81-9.81s4.39-9.81,9.81-9.81
			C-419.93,9.8-415.54,14.19-415.54,19.61z"/>
	</g>
	<g>
		<path d="M-418.49,19.61c0,3.79-3.07,6.85-6.85,6.85s-6.85-3.07-6.85-6.85c0-3.79,3.07-6.85,6.85-6.85S-418.49,15.82-418.49,19.61z
			"/>
	</g>
	<g>
		<path class="st5" d="M-421.26,19.61c0,2.26-1.83,4.08-4.08,4.08c-2.26,0-4.08-1.83-4.08-4.08c0-2.26,1.83-4.08,4.08-4.08
			C-423.09,15.52-421.26,17.35-421.26,19.61z"/>
	</g>
	<g class="st2">
		<path class="st7" d="M-409.94,4.5v-18.76c0-0.47-0.38-0.85-0.85-0.85h-14.56V5.36h14.56C-410.32,5.36-409.94,4.98-409.94,4.5z"/>
	</g>
	<g>
		<path class="st5" d="M-417.64-12.95v1.53h3.44c0.3,0,0.54,0.24,0.54,0.54V1.95h1.53v-13.78c0-0.62-0.5-1.11-1.11-1.11H-417.64z"/>
	</g>
</g>
<g>
	<g>
		<g>
			<path class="st0" d="M135.64-147.16L135.64-147.16c-0.99-5.44-2.91-10.67-5.68-15.45l-1.84-3.18l-3.58,5.01l0,0
				c-2.06-5.48-5.17-10.5-9.14-14.8l-3.4-3.68l-3.9,4.38c-3.41,3.84-6.15,8.23-8.09,12.98l-0.45,1.11l-3.69-5.01l-2.12,3.76
				c-2.44,4.33-4.19,9.01-5.19,13.88l-0.2,0.99l-2.5-5.01l-0.22,0.83c-3.52,13.22,2.9,27.44,15.57,32.6c3.33,1.36,6.98,2.1,10.8,2.1
				l0,0c3.83,0,7.48-0.75,10.82-2.11c12.66-5.16,19.07-19.39,15.55-32.59l-0.22-0.83L135.64-147.16z"/>
		</g>
		<g>
			<path class="st12" d="M129.86-142.19L129.86-142.19c-0.75-4.11-2.2-8.06-4.29-11.67l-1.39-2.4l-2.7,3.78l0,0
				c-1.56-4.14-3.9-7.93-6.9-11.17l-2.57-2.78l-2.94,3.31c-2.58,2.9-4.64,6.21-6.11,9.81l-0.34,0.84l-2.79-3.78l-1.6,2.84
				c-1.84,3.27-3.17,6.81-3.92,10.48l-0.15,0.75l-1.89-3.78l-0.17,0.63c-2.66,9.98,2.19,20.72,11.76,24.62
				c2.52,1.02,5.27,1.59,8.16,1.59l0,0c2.89,0,5.65-0.57,8.17-1.6c9.56-3.9,14.4-14.64,11.74-24.62l-0.17-0.63L129.86-142.19z"/>
		</g>
		<g>
			<path class="st13" d="M114.62-147.57l-2.57-2.78l-2.94,3.31c-0.79,0.89-1.57,1.87-2.31,2.91c-2.75,3.84-4.14,8.5-4.15,13.22l0,0
				c-0.02,5.18,4.18,9.4,9.37,9.4l0,0c5.17,0,9.37-4.19,9.37-9.36v-0.23c0-4.61-1.27-9.19-3.92-12.96
				C116.58-145.29,115.64-146.47,114.62-147.57z"/>
		</g>
		<g>
			<path class="st1" d="M122.82-118.74c12.66-5.16,19.07-19.39,15.55-32.59l-0.22-0.83l-2.5,5.01c-0.99-5.44-2.91-10.67-5.68-15.45
				l-1.84-3.18l-3.58,5.01c-2.06-5.48-5.17-10.5-9.14-14.8l-3.4-3.68l0,0v12.83l0,0l2.57,2.78c3,3.24,5.35,7.04,6.9,11.17l2.7-3.78
				l1.39,2.4c2.09,3.61,3.54,7.56,4.29,11.67l1.89-3.78l0.17,0.63c2.66,9.97-2.18,20.71-11.74,24.61c-2.52,1.03-5.28,1.6-8.17,1.6
				l0,0v2.5l0,0C115.83-116.63,119.48-117.38,122.82-118.74z"/>
		</g>
		<g class="st10">
			<path class="st1" d="M112.05-150.35l2.57,2.78c1.02,1.11,1.97,2.28,2.83,3.5c2.65,3.77,3.92,8.35,3.92,12.96v0.23
				c0,5.17-4.19,9.36-9.37,9.36v2.38l0,0c2.89,0,5.65-0.57,8.17-1.6c9.56-3.9,14.4-14.64,11.74-24.61l-0.17-0.63l-1.89,3.78
				c-0.75-4.11-2.2-8.06-4.29-11.67l-1.39-2.4l-2.7,3.78c-1.56-4.14-3.9-7.93-6.9-11.17l-2.57-2.78l0,0v16.13L112.05-150.35z"/>
		</g>
		<g>
			<path class="st1" d="M121.37-130.88v-0.23c0-4.61-1.27-9.19-3.92-12.96c-0.86-1.23-1.81-2.4-2.83-3.5l-2.57-2.78L112-150.3v28.79
				C117.17-121.51,121.37-125.7,121.37-130.88z"/>
		</g>
		<g>
			<path class="st13" d="M124.62-151.34l-0.63-0.68l-0.72,0.81c-0.2,0.22-0.39,0.46-0.57,0.71c-0.67,0.94-1.01,2.08-1.02,3.24l0,0
				c0,1.27,1.02,2.3,2.29,2.3l0,0c1.27,0,2.29-1.03,2.29-2.29v-0.06c0-1.13-0.31-2.25-0.96-3.17
				C125.1-150.78,124.87-151.07,124.62-151.34z"/>
		</g>
		<g>
			<path class="st13" d="M99.53-143.01l-0.63-0.68l-0.72,0.81c-0.19,0.22-0.39,0.46-0.57,0.71c-0.67,0.94-1.01,2.08-1.02,3.24l0,0
				c0,1.27,1.02,2.3,2.29,2.3l0,0c1.27,0,2.29-1.03,2.29-2.29v-0.06c0-1.13-0.31-2.25-0.96-3.17
				C100.01-142.45,99.78-142.74,99.53-143.01z"/>
		</g>
		<g>
			<path class="st12" d="M112.79-175.06l-0.77-0.83l-0.88,0.99c-0.24,0.27-0.47,0.56-0.69,0.87c-0.82,1.15-1.24,2.54-1.24,3.96l0,0
				c0,1.55,1.25,2.81,2.8,2.81l0,0c1.55,0,2.8-1.25,2.8-2.8v-0.07c0-1.38-0.38-2.75-1.17-3.88
				C113.37-174.38,113.09-174.73,112.79-175.06z"/>
		</g>
	</g>
	<g>
		<polygon points="137.99,-166.39 132.98,-171.4 112,-150.42 91.02,-171.4 86.01,-166.39 106.99,-145.41 86.01,-124.43 
			91.02,-119.42 112,-140.4 132.98,-119.42 137.99,-124.43 117.01,-145.41 		"/>
	</g>
</g>
<g>
	<g>
		<g>
			<polygon class="st7" points="-188.7,-314.19 -218.73,-291.32 -158.66,-291.32 			"/>
		</g>
		<g>
			<rect x="-213.33" y="-291.32" class="st5" width="49.27" height="37.09"/>
		</g>
		<g class="st2">
			<rect x="-188.7" y="-291.83" class="st7" width="24.64" height="37.6"/>
		</g>
		<g>
			<g>
				<rect x="-215.55" y="-254.23" class="st7" width="53.7" height="5.54"/>
			</g>
		</g>
		<g>
			<rect x="-188.7" y="-254.23" width="26.85" height="5.54"/>
		</g>
		<g>
			<rect x="-198.2" y="-286.11" width="18.36" height="31.89"/>
		</g>
	</g>
	<g>
		<polygon points="-188.7,-314.19 -189.02,-313.9 -189.02,-291.32 -158.66,-291.32 		"/>
	</g>
	<g>
		<g>
			<path class="st0" d="M-176.5-270.84L-176.5-270.84c-0.51-2.81-1.5-5.5-2.93-7.97l-0.95-1.64l-1.85,2.58l0,0
				c-1.06-2.82-2.67-5.42-4.72-7.63l-1.76-1.9l-2.01,2.26c-1.76,1.98-3.17,4.24-4.17,6.7l-0.23,0.57l-1.9-2.58l-1.09,1.94
				c-1.26,2.23-2.16,4.65-2.68,7.16l-0.11,0.51l-1.29-2.58l-0.11,0.43c-1.82,6.82,1.5,14.15,8.03,16.82c1.72,0.7,3.6,1.09,5.57,1.09
				l0,0c1.97,0,3.86-0.39,5.58-1.09c6.53-2.66,9.84-10,8.02-16.81l-0.11-0.43L-176.5-270.84z"/>
		</g>
		<g>
			<path class="st12" d="M-179.49-268.28L-179.49-268.28c-0.38-2.12-1.13-4.15-2.21-6.02l-0.72-1.24l-1.39,1.95l0,0
				c-0.8-2.13-2.01-4.09-3.56-5.76l-1.33-1.43l-1.52,1.71c-1.33,1.5-2.39,3.21-3.15,5.06l-0.18,0.43l-1.44-1.95l-0.83,1.46
				c-0.95,1.69-1.63,3.51-2.02,5.41l-0.08,0.39l-0.98-1.95l-0.09,0.32c-1.37,5.15,1.13,10.69,6.06,12.7
				c1.3,0.53,2.72,0.82,4.21,0.82l0,0c1.49,0,2.91-0.29,4.21-0.82c4.93-2.01,7.43-7.55,6.06-12.7l-0.09-0.32L-179.49-268.28z"/>
		</g>
		<g>
			<path class="st13" d="M-187.35-271.06l-1.33-1.43l-1.52,1.71c-0.41,0.46-0.81,0.97-1.19,1.5c-1.42,1.98-2.13,4.38-2.14,6.82l0,0
				c-0.01,2.67,2.16,4.85,4.83,4.85l0,0c2.67,0,4.83-2.16,4.83-4.83v-0.12c0-2.38-0.65-4.74-2.02-6.68
				C-186.33-269.88-186.82-270.49-187.35-271.06z"/>
		</g>
		<g>
			<path class="st1" d="M-183.12-256.19c6.53-2.66,9.84-10,8.02-16.81l-0.11-0.43l-1.29,2.58c-0.51-2.81-1.5-5.5-2.93-7.97
				l-0.95-1.64l-1.85,2.58c-1.06-2.82-2.67-5.42-4.72-7.63l-1.76-1.9l0,0v6.62l0,0l1.33,1.43c1.55,1.67,2.76,3.63,3.56,5.76
				l1.39-1.95l0.72,1.24c1.08,1.86,1.83,3.9,2.21,6.02l0.98-1.95l0.09,0.32c1.37,5.14-1.13,10.68-6.06,12.7
				c-1.3,0.53-2.72,0.82-4.21,0.82l0,0v1.29l0,0C-186.72-255.1-184.84-255.48-183.12-256.19z"/>
		</g>
		<g class="st10">
			<path class="st1" d="M-188.68-272.49l1.33,1.43c0.53,0.57,1.02,1.17,1.46,1.81c1.37,1.95,2.02,4.31,2.02,6.68v0.12
				c0,2.67-2.16,4.83-4.83,4.83v1.23l0,0c1.49,0,2.91-0.29,4.21-0.82c4.93-2.01,7.43-7.55,6.06-12.7l-0.09-0.32l-0.98,1.95
				c-0.38-2.12-1.13-4.15-2.21-6.02l-0.72-1.24l-1.39,1.95c-0.8-2.13-2.01-4.09-3.56-5.76l-1.33-1.43l0,0v8.32L-188.68-272.49z"/>
		</g>
		<g>
			<path class="st1" d="M-183.87-262.44v-0.12c0-2.38-0.65-4.74-2.02-6.68c-0.45-0.63-0.93-1.24-1.46-1.81l-1.33-1.43l-0.02,0.03
				v14.85C-186.03-257.61-183.87-259.78-183.87-262.44z"/>
		</g>
		<g>
			<path class="st13" d="M-182.19-273l-0.32-0.35l-0.37,0.42c-0.1,0.11-0.2,0.24-0.29,0.37c-0.35,0.49-0.52,1.07-0.52,1.67l0,0
				c0,0.66,0.53,1.19,1.18,1.19l0,0c0.65,0,1.18-0.53,1.18-1.18v-0.03c0-0.58-0.16-1.16-0.5-1.64
				C-181.94-272.71-182.06-272.86-182.19-273z"/>
		</g>
		<g>
			<path class="st13" d="M-195.13-268.7l-0.32-0.35l-0.37,0.42c-0.1,0.11-0.2,0.24-0.29,0.37c-0.35,0.49-0.52,1.07-0.52,1.67l0,0
				c0,0.66,0.53,1.19,1.18,1.19l0,0c0.65,0,1.18-0.53,1.18-1.18v-0.03c0-0.58-0.16-1.16-0.5-1.64
				C-194.88-268.42-195-268.56-195.13-268.7z"/>
		</g>
		<g>
			<path class="st12" d="M-188.29-285.24l-0.4-0.43l-0.45,0.51c-0.12,0.14-0.24,0.29-0.36,0.45c-0.42,0.59-0.64,1.31-0.64,2.04l0,0
				c0,0.8,0.65,1.45,1.45,1.45l0,0c0.8,0,1.45-0.65,1.45-1.45v-0.04c0-0.71-0.2-1.42-0.61-2
				C-187.99-284.88-188.14-285.07-188.29-285.24z"/>
		</g>
	</g>
</g>
<g>
	<path d="M-411.4-77.54l-5.22-5.06h-15.45l-2.73,2.64l-9.18-8.51l-1.65,1.78l9.08,8.42l-0.75,0.72c-0.43,0.42-0.68,1-0.68,1.6v16.3
		c0,1.43,1.16,2.59,2.59,2.59h22.07c1.43,0,2.59-1.16,2.59-2.59v-16.3C-410.72-76.54-410.96-77.12-411.4-77.54z"/>
	
		<ellipse transform="matrix(0.2278 -0.9737 0.9737 0.2278 -229.7368 -490.8758)" class="st0" cx="-424.34" cy="-100.6" rx="20.37" ry="20.37"/>
	<path class="st1" d="M-427.93-63.75c0,1.07-0.87,1.95-1.95,1.95c-1.07,0-1.95-0.87-1.95-1.95c0-1.08,0.87-1.95,1.95-1.95
		C-428.8-65.69-427.93-64.82-427.93-63.75z"/>
	<circle class="st1" cx="-444.72" cy="-87.75" r="1.95"/>
	<path class="st1" d="M-416.86-63.75c0,1.07-0.87,1.95-1.95,1.95c-1.08,0-1.95-0.87-1.95-1.95c0-1.08,0.87-1.95,1.95-1.95
		C-417.74-65.69-416.86-64.82-416.86-63.75z"/>
	<path class="st1" d="M-422.4-63.75c0,1.07-0.87,1.95-1.95,1.95c-1.08,0-1.95-0.87-1.95-1.95c0-1.08,0.87-1.95,1.95-1.95
		C-423.27-65.69-422.4-64.82-422.4-63.75z"/>
	<rect x="-431.82" y="-71.29" class="st1" width="14.96" height="2.13"/>
	<path class="st1" d="M-403.97-100.6c0-11.25-9.12-20.37-20.37-20.37v40.75C-413.09-80.23-403.97-89.35-403.97-100.6z"/>
	<path class="st5" d="M-421-100.36c0,1.85-1.5,3.34-3.34,3.34c-1.85,0-3.34-1.5-3.34-3.34c0-1.85,1.5-3.34,3.34-3.34
		C-422.5-103.7-421-102.2-421-100.36z"/>
</g>
<g>
	<g>
		<path class="st0" d="M-598.48-78.17h-48.13v-4.68c0-13.29,10.77-24.07,24.07-24.07l0,0c13.29,0,24.06,10.78,24.06,24.07V-78.17z"
			/>
	</g>
	<g>
		<g>
			<path class="st7" d="M-584.63-68.87h-10.95c-4.69,0-9.66-0.9-14.75-2.69c-2.93-1.03-5.99-1.55-9.1-1.55h-6.22
				c-3.11,0-6.17,0.52-9.1,1.55c-5.09,1.79-10.06,2.69-14.75,2.69h-10.96v-1.94h10.96c4.48,0,9.22-0.87,14.11-2.58
				c3.14-1.1,6.42-1.66,9.74-1.66h6.22c3.33,0,6.61,0.56,9.74,1.66c4.89,1.71,9.63,2.58,14.11,2.58h10.95V-68.87z"/>
		</g>
	</g>
	<g class="st4">
		<path d="M-598.38-83.05c0-11.82-8.54-21.64-19.78-23.66v9.61l2.92,0.75v6.21c0,3.18-1.6,6.15-4.26,7.89l-3.06,2.01l-0.1-0.06v1.94
			h24.27V-83.05z"/>
	</g>
	<g>
		<path class="st0" d="M-646.61-78.17l-13.85,7.35h11.05c4.93,0,9.78-1,14.43-2.63c2.95-1.03,6.12-1.6,9.42-1.6h2.9v-3.12H-646.61z"
			/>
	</g>
	<g>
		<path class="st1" d="M-609.92-73.45c4.65,1.63,9.5,2.63,14.43,2.63h10.86l-13.85-7.35h-24.18v3.12h3.31
			C-616.04-75.05-612.87-74.48-609.92-73.45z"/>
	</g>
	<g class="st4">
		<rect x="-646.61" y="-81.93" width="23.86" height="3.76"/>
	</g>
	<g>
		<path class="st5" d="M-618.26-96.9v-12.25h-8.58v12.2l-3.14,0.81v6.21c0,3.18,1.6,6.15,4.26,7.89l3.06,2.01l3.06-2.01
			c2.66-1.74,4.26-4.71,4.26-7.89v-6.21L-618.26-96.9z"/>
	</g>
	<g>
		<path class="st0" d="M-620.38-84.07l-2.27,1.49l-2.27-1.49c-1.98-1.29-3.17-3.5-3.17-5.86v-4.61l5.44-1.39l5.44,1.39v4.61
			C-617.22-87.57-618.41-85.36-620.38-84.07z"/>
	</g>
	<g class="st2">
		<path class="st7" d="M-618.26-96.9v-9.61v-2.64h-4.5v2.25v10.99l0.1-0.02l5.44,1.39v4.61c0,2.36-1.19,4.57-3.17,5.86l-2.27,1.49
			l-0.1-0.06v2.54l0.1,0.06l3.06-2.01c2.66-1.74,4.26-4.71,4.26-7.89v-6.21L-618.26-96.9z"/>
	</g>
	<g>
		<path class="st1" d="M-620.38-84.07c1.98-1.29,3.17-3.5,3.17-5.86v-4.61l-5.44-1.39l-0.1,0.02v13.27l0.1,0.06L-620.38-84.07z"/>
	</g>
</g>
<g>
	<g>
		<path class="st1" d="M-598.88-294.82c-0.82-0.82-2.15-0.82-2.97,0l-11.94,11.94l-0.6-0.6l14.89-14.89c1.02-1.02,1.02-2.67,0-3.68
			c-1.02-1.02-2.67-1.02-3.68,0l-14.89,14.89l-0.5-0.5l16.15-16.15c1.02-1.02,1.02-2.67,0-3.68c-1.02-1.02-2.67-1.02-3.68,0
			l-16.15,16.15l-0.53-0.53l14.84-14.84c1.02-1.02,1.02-2.67,0-3.68c-1.02-1.02-2.67-1.02-3.68,0l-17.36,17.36l-0.95-0.95l9.75-9.75
			c1.11-1.11,1.39-2.91,0.46-4.19c-1.17-1.63-3.46-1.77-4.82-0.41l-14.32,14.32c-1.23,1.23-2.06,2.78-2.41,4.48l-2.88,9.14
			l-10.5,10.5l14.42,14.42l10.5-10.5l0,0c5.81-2.53,12.36-7.39,16.85-11.88l2.03-2.03l0.05-0.05l11.94-11.94
			C-598.06-292.67-598.06-294-598.88-294.82z"/>
	</g>
	<path class="st0" d="M-590.51-291.67c-0.82-0.82-2.15-0.82-2.97,0l-11.94,11.94l-0.6-0.6l14.89-14.89c1.02-1.02,1.02-2.67,0-3.68
		c-1.02-1.02-2.67-1.02-3.68,0l-14.89,14.89l-0.5-0.5l16.15-16.15c1.02-1.02,1.02-2.67,0-3.68c-1.02-1.02-2.67-1.02-3.68,0
		l-16.15,16.15l-0.53-0.53l14.84-14.84c1.02-1.02,1.02-2.67,0-3.68c-1.02-1.02-2.67-1.02-3.68,0l-17.37,17.37l-0.95-0.95l9.75-9.75
		c1.11-1.11,1.39-2.91,0.46-4.19c-1.17-1.63-3.46-1.77-4.82-0.41l-14.32,14.32c-1.23,1.23-2.06,2.78-2.41,4.48l-2.88,9.14
		l-10.5,10.5l14.42,14.42l10.5-10.5l0,0c5.81-2.53,12.36-7.39,16.85-11.88l2.03-2.03l0.05-0.05l11.94-11.94
		C-589.69-289.52-589.69-290.85-590.51-291.67z"/>
	<rect x="-656.47" y="-267.34" transform="matrix(0.7071 0.7071 -0.7071 0.7071 -376.1494 378.9203)" width="22.01" height="5.52"/>
	<path class="st5" d="M-633.43-284.73l-0.93,2.97l16.94,16.94c0.81-0.46,1.62-0.95,2.43-1.47L-633.43-284.73z"/>
	<path class="st5" d="M-607.92-271.56l-20.93-20.93l-1.65,1.65c-0.1,0.1-0.18,0.22-0.28,0.32l20.71,20.71
		C-609.33-270.38-608.62-270.97-607.92-271.56z"/>
	<path d="M-611.85-268.46l-20.23-20.23c-0.26,0.5-0.46,1.02-0.62,1.56l19.58,19.58C-612.69-267.85-612.27-268.15-611.85-268.46z"/>
	
		<rect x="-648.13" y="-264.22" transform="matrix(0.7071 0.7071 -0.7071 0.7071 -371.4787 373.928)" class="st7" width="22.01" height="5.52"/>
</g>
<g>
	<g>
		<path class="st1" d="M-706.54-118.15l-21.7,24.75l4.43,3.89l21.7-24.75c1.07-1.22,0.95-3.09-0.27-4.16l0,0
			C-703.6-119.5-705.47-119.37-706.54-118.15z"/>
		<rect x="-731.87" y="-92.52" transform="matrix(0.7519 0.6592 -0.6592 0.7519 -238.9395 458.6744)" width="5.9" height="8.75"/>
		<path class="st6" d="M-748.82-60.05l-3.42-1.51l-1.94-3.2c-3.15-5.18-2.57-11.81,1.43-16.38l10.95-12.49l19.99,17.53l-10.95,12.49
			C-736.77-59.04-743.27-57.6-748.82-60.05z"/>
		<path class="st7" d="M-734.03-86.8l-9.87,11.26c-1.19,1.36-1.81,3.12-1.73,4.95l0.01,0.3c0.03,0.61,0.56,1.08,1.17,1.02l0.3-0.03
			c1.82-0.16,3.49-1,4.68-2.36l9.87-11.26L-734.03-86.8z"/>
		
			<rect x="-747" y="-85.2" transform="matrix(0.7519 0.6593 -0.6593 0.7519 -237.0605 462.2882)" class="st7" width="28.55" height="2.78"/>
		<path class="st4" d="M-732.74-63.64l10.92-12.46l-9.99-8.76l-20.43,23.3l3.38,1.49C-743.28-57.61-736.76-59.06-732.74-63.64z"/>
	</g>
	<g>
		<rect x="-727.67" y="-61.85" class="st1" width="40.56" height="2.98"/>
		<path class="st1" d="M-709.11-106.54l-11.09,44.69h25.63l-11.09-44.69C-706.19-108.23-708.58-108.23-709.11-106.54z"/>
		<polygon class="st5" points="-718.74,-67.74 -696.03,-67.74 -697.44,-73.44 -717.32,-73.44 		"/>
		<polygon class="st5" points="-715.89,-79.24 -698.88,-79.24 -700.3,-84.94 -714.47,-84.94 		"/>
		<polygon class="st5" points="-703.15,-96.44 -711.62,-96.44 -713.03,-90.74 -701.73,-90.74 		"/>
	</g>
</g>
<g>
	<g>
		<path class="st0" d="M-416.95-271.82c-2.24,1.95-5.16,3.14-8.37,3.14c-3.2,0-6.13-1.19-8.37-3.14l-11.95,13.43
			c-0.52,0.59-0.2,1.53,0.58,1.66l4.94,0.84c1.26,0.21,2.48,0.61,3.62,1.2c3.44,1.76,7.21,3.65,11.17,3.65s7.74-1.89,11.17-3.65
			c1.14-0.58,2.36-0.98,3.62-1.2l4.94-0.84c0.78-0.13,1.11-1.07,0.58-1.66L-416.95-271.82z"/>
		<path class="st0" d="M-408.98-305.84c-2.41,0-4.76-0.68-6.8-1.98c-2.99-1.9-6.19-4.01-9.54-4.01s-6.55,2.1-9.54,4.01
			c-2.03,1.29-4.39,1.98-6.8,1.98h-2.95c-0.87,0-1.33,1.02-0.75,1.67l11.67,13.11c2.24-1.95,5.16-3.14,8.37-3.14
			c3.21,0,6.13,1.19,8.37,3.14l11.67-13.11c0.58-0.65,0.12-1.67-0.75-1.67H-408.98z"/>
		<path class="st0" d="M-399.77-296.23l-0.84-4.94c-0.13-0.78-1.07-1.11-1.66-0.58l-13.43,11.95c1.95,2.24,3.14,5.16,3.14,8.37
			c0,3.2-1.19,6.13-3.14,8.37l13.43,11.95c0.59,0.52,1.52,0.2,1.66-0.58l0.84-4.94c0.21-1.26,0.61-2.48,1.2-3.62
			c1.76-3.44,3.65-7.21,3.65-11.17s-1.89-7.74-3.65-11.17C-399.16-293.75-399.56-294.97-399.77-296.23z"/>
		<path class="st0" d="M-434.94-289.81l-13.11-11.67c-0.65-0.58-1.67-0.12-1.67,0.75v2.95c0,2.41-0.68,4.76-1.98,6.8
			c-1.9,2.99-4,6.19-4,9.54c0,3.35,2.1,6.55,4,9.54c1.29,2.03,1.98,4.39,1.98,6.8v2.95c0,0.87,1.02,1.33,1.67,0.75l13.11-11.67
			c-1.95-2.24-3.14-5.16-3.14-8.37C-438.08-284.64-436.89-287.56-434.94-289.81z"/>
	</g>
	<path d="M-405.7-281.44c0,10.83-8.78,19.62-19.62,19.62c-10.83,0-19.62-8.78-19.62-19.62c0-10.83,8.78-19.62,19.62-19.62
		C-414.48-301.06-405.7-292.27-405.7-281.44z"/>
	<g>
		<path class="st1" d="M-425.32-264.4c-9.35,0-16.96-7.61-16.96-16.96c0-9.35,7.61-16.96,16.96-16.96c9.35,0,16.96,7.61,16.96,16.96
			C-408.36-272.01-415.97-264.4-425.32-264.4z M-425.32-295.77c-7.95,0-14.42,6.47-14.42,14.42c0,7.95,6.47,14.42,14.42,14.42
			c7.95,0,14.42-6.47,14.42-14.42C-410.9-289.31-417.37-295.77-425.32-295.77z"/>
	</g>
	<g>
		<path class="st5" d="M-425.32-266.94c-7.95,0-14.42-6.47-14.42-14.42c0-7.95,6.47-14.42,14.42-14.42s14.42,6.47,14.42,14.42
			C-410.9-273.41-417.37-266.94-425.32-266.94z M-425.32-294.34c-7.16,0-12.98,5.82-12.98,12.98c0,7.16,5.82,12.98,12.98,12.98
			s12.98-5.82,12.98-12.98C-412.33-288.51-418.16-294.34-425.32-294.34z"/>
	</g>
	<g>
		<path class="st5" d="M-413.99-283.35L-413.99-283.35l-0.05-0.05l-1.14-0.16c-1.3-0.18-2.5-0.78-3.42-1.7l-2.56-2.56l-2.75-1.72
			l1.53,2.94l-0.83,0.83c-0.22,0.22-0.22,0.57,0,0.78l0.84,0.84l-1.77,1.77l0,0l-0.92,0.92l-0.92-0.92l-1.83-1.83l-1.36,1.36
			l2.75,2.75l-5.32,5.32c-0.38,0.37-0.38,0.98,0,1.36c0.37,0.37,0.98,0.37,1.36,0l5.32-5.32l5.32,5.32c0.38,0.37,0.98,0.37,1.36,0
			c0.38-0.37,0.38-0.98,0-1.36l-5.32-5.32l0.92-0.92l1.77-1.77c0.91,0.92,1.5,2.11,1.68,3.4l0.16,1.14l0.05,0.05
			c0.31-0.04,0.62-0.11,0.92-0.2c0.91-0.28,1.78-0.78,2.51-1.52c0.66-0.66,1.13-1.44,1.42-2.25
			C-414.15-282.56-414.04-282.95-413.99-283.35L-413.99-283.35z"/>
		<path class="st5" d="M-433.75-288.81l2.01,3.73c-0.07,0.05-0.15,0.11-0.21,0.17c-0.69,0.69-0.69,1.82,0,2.51l0.53,0.53
			c-0.44-0.44-0.44-1.14,0-1.58c0.43-0.44,1.14-0.44,1.58,0l0.04,0.04l0.63,0.54l0.01-0.01l1.35-1.35l-2.17-2.55L-433.75-288.81z"/>
	</g>
</g>
</svg>
