<?xml version="1.0" encoding="utf-8"?>
<!-- Generator: Adobe Illustrator 25.3.0, SVG Export Plug-In . SVG Version: 6.00 Build 0)  -->
<svg version="1.1" id="Ñëîé_1" xmlns="http://www.w3.org/2000/svg" xmlns:xlink="http://www.w3.org/1999/xlink" x="0px" y="0px"
	 viewBox="0 0 43.31 59.23" style="enable-background:new 0 0 43.31 59.23;" xml:space="preserve">
<style type="text/css">
	.st0{fill:#FF4431;}
	.st1{fill:#E53013;}
	.st2{opacity:0.2;}
	.st3{opacity:0.3;}
	.st4{opacity:0.1;}
	.st5{fill:#CCD7E2;}
	.st6{fill:#4F5266;}
	.st7{fill:#353747;}
	.st8{opacity:0.4;}
	.st9{fill:#78CFF1;}
	.st10{opacity:0.5;}
	.st11{fill:#049AB2;}
	.st12{fill:#FFB32C;}
	.st13{fill:#FFD67B;}
</style>
<g>
	<g>
		<rect x="-395.21" y="9.62" class="st0" width="30.67" height="41.42"/>
	</g>
	<g>
		<rect x="-364.55" y="13.92" class="st1" width="2.55" height="15.95"/>
	</g>
	<g>
		<path class="st0" d="M-379.88-3.54c-6.82,0-12.59,4.45-14.58,10.61h29.16C-367.29,0.91-373.06-3.54-379.88-3.54z"/>
	</g>
	<g>
		<rect x="-361.99" y="15.96" class="st0" width="2.56" height="11.86"/>
	</g>
	<g class="st2">
		<rect x="-380.86" y="-0.17" width="2.56" height="3.87"/>
	</g>
	<g class="st2">
		<rect x="-390.4" y="34.45" width="2.56" height="14.01"/>
	</g>
	<g class="st2">
		<rect x="-380.71" y="34.45" width="2.56" height="14.01"/>
	</g>
	<g class="st2">
		<rect x="-371.02" y="34.45" width="2.56" height="14.01"/>
	</g>
	<g>
		<rect x="-397.96" y="7.06" class="st1" width="36.16" height="2.56"/>
	</g>
	<g>
		<rect x="-395.21" y="51.04" class="st1" width="30.67" height="2.55"/>
	</g>
	<g>
		<polygon class="st0" points="-399.3,58.19 -360.46,58.19 -364.55,53.59 -395.21,53.59 		"/>
	</g>
	<g>
		<rect x="-385.63" y="-5.01" class="st1" width="11.5" height="2.55"/>
	</g>
	<g class="st2">
		<path d="M-389.03,3.7h2.91c0.47-1.19,2.74-3.24,3.85-3.87h-2.98C-386.79,0.63-388.24,2.24-389.03,3.7z"/>
	</g>
	<g class="st2">
		<path d="M-369.79,3.7h-2.8c-0.82-1.64-2.86-3.24-3.96-3.87h2.98C-372.02,0.63-370.58,2.24-369.79,3.7z"/>
	</g>
	<g>
		<g>
			<path class="st1" d="M-379.03,29.87c-4.4,0-7.97-3.58-7.97-7.97c0-4.4,3.58-7.97,7.97-7.97c4.4,0,7.97,3.58,7.97,7.97
				C-371.06,26.29-374.63,29.87-379.03,29.87z M-379.03,16.48c-2.99,0-5.42,2.43-5.42,5.42c0,2.99,2.43,5.42,5.42,5.42
				c2.99,0,5.42-2.43,5.42-5.42C-373.61,18.91-376.04,16.48-379.03,16.48z"/>
		</g>
	</g>
	<g>
		<rect x="-397.77" y="13.92" class="st1" width="2.56" height="15.95"/>
	</g>
	<g>
		<rect x="-400.32" y="15.96" class="st0" width="2.56" height="11.86"/>
	</g>
	<g class="st3">
		<polygon points="-380.79,24.94 -382.54,21.89 -380.79,18.85 -377.27,18.85 -375.52,21.89 -377.27,24.94 		"/>
	</g>
	<g class="st4">
		<rect x="-379.43" y="9.62" width="14.89" height="41.42"/>
	</g>
	<g class="st4">
		<path d="M-379.43,7.06h14.13c-1.42-4.38-4.76-7.85-9.02-9.52h-5.12V7.06z"/>
	</g>
	<g class="st4">
		<polygon points="-379.43,9.62 -364.55,9.62 -361.8,9.62 -361.8,7.06 -365.3,7.06 -379.43,7.06 		"/>
	</g>
	<g class="st4">
		<rect x="-379.43" y="51.04" width="14.89" height="2.55"/>
	</g>
	<g class="st4">
		<polygon points="-364.55,53.59 -379.43,53.59 -379.43,58.19 -360.46,58.19 		"/>
	</g>
	<g class="st4">
		<polygon points="-379.43,-5.01 -379.43,-3.5 -379.43,-2.45 -374.32,-2.45 -374.13,-2.45 -374.13,-5.01 		"/>
	</g>
</g>
<g>
	<g>
		<path d="M96.17-132.9l-1.11,0.32l-5.6,1.61l-1.04,0.3l2.69,9.33l1.04-0.3l4.49,15.58c0.45,1.55,2.06,2.44,3.61,1.99l0,0
			c1.55-0.45,2.44-2.06,1.99-3.61l-4.49-15.58l1.11-0.32L96.17-132.9z"/>
	</g>
	<g>
		<path d="M94.01-137.88c0,3.75-3.04,6.8-6.8,6.8c-3.75,0-6.8-3.04-6.8-6.8c0-3.75,3.04-6.8,6.8-6.8
			C90.96-144.68,94.01-141.63,94.01-137.88z"/>
	</g>
	<g>
		<path class="st5" d="M139.71-137.88c0,3.75-3.04,6.8-6.8,6.8c-3.75,0-6.8-3.04-6.8-6.8c0-3.75,3.04-6.8,6.8-6.8
			C136.66-144.68,139.71-141.63,139.71-137.88z"/>
	</g>
	<g>
		<path class="st6" d="M96.73-146.62H83.54v17.48h13.19c0.17,0,0.33,0.01,0.5,0.02v-17.51C97.06-146.63,96.9-146.62,96.73-146.62z"
			/>
	</g>
	<g>
		<path class="st6" d="M118.16-152.47c-5.51,3.25-11.67,5.18-18.02,5.69v17.79c6.35,0.51,12.51,2.44,18.02,5.69l14.75,11.44v-52.05
			L118.16-152.47z"/>
	</g>
	<g>
		<path d="M97.23-146.64v17.51c0.97,0.01,1.95,0.06,2.91,0.14v-17.79C99.17-146.7,98.2-146.65,97.23-146.64z"/>
	</g>
	<g>
		<path class="st7" d="M96.73-129.14c0.17,0,0.33,0.01,0.5,0.02v-8.76H83.54v8.74H96.73z"/>
	</g>
	<g>
		<path class="st7" d="M100.14-128.99c6.35,0.51,12.51,2.44,18.02,5.69l14.75,11.44v-26.02h-32.77V-128.99z"/>
	</g>
	<g>
		<polygon class="st5" points="126.48,-158.92 126.48,-116.84 128,-115.66 128,-160.1 		"/>
	</g>
	<g>
		<polygon class="st5" points="121.43,-155 121.43,-120.76 122.94,-119.58 122.94,-156.18 		"/>
	</g>
</g>
<g>
	<g>
		<g>
			<rect x="-38.58" y="-152.83" class="st6" width="4.62" height="10.9"/>
		</g>
	</g>
	<g class="st2">
		<path d="M-33.95-142.09v-10.74h-2.31v10.52C-35.47-142.31-34.7-142.23-33.95-142.09z"/>
	</g>
	<g>
		<path class="st0" d="M-26.92-92.08h-18.7c-1.76,0-3.19-1.43-3.19-3.19v-34.5c0-6.93,5.62-12.54,12.54-12.54l0,0
			c6.93,0,12.54,5.62,12.54,12.54v34.5C-23.72-93.51-25.15-92.08-26.92-92.08z"/>
	</g>
	<g>
		<path class="st1" d="M-23.72-129.77c0-6.14-4.41-11.23-10.23-12.32l0,0h-2.31v50.01h9.35c1.76,0,3.19-1.43,3.19-3.19V-129.77z"/>
	</g>
	<g>
		<g>
			<path class="st7" d="M-15.49-147.92L-32.55-153l0.66-2.22l14.93,4.45c1.18,0.35,1.85,1.59,1.5,2.77L-15.49-147.92z"/>
		</g>
	</g>
	<g>
		<g>
			<rect x="-39.24" y="-144.4" width="5.95" height="2.31"/>
		</g>
	</g>
	<g>
		<path d="M-41.96-155.15L-41.96-155.15c0,1.28,1.03,2.31,2.31,2.31h0.4v2.31h5.95v-2.31h0.28c1.26,0,2.49-0.32,3.59-0.92l0,0
			c1.1-0.61,2.34-0.92,3.59-0.92h9.07c1.53,0,2.77-1.24,2.77-2.77l0,0h-25.66C-40.92-157.46-41.96-156.42-41.96-155.15z"/>
	</g>
	<g>
		<g>
			<path class="st7" d="M-52.82-124.74h-2.31v-4.1c0-10.82,8.77-19.59,19.59-19.59h2.25v2.31h-2.77c-9.26,0-16.76,7.5-16.76,16.76
				V-124.74z"/>
		</g>
	</g>
	<g>
		<polygon points="-48.32,-112.03 -59.88,-112.03 -56.18,-124.74 -52.01,-124.74 		"/>
	</g>
	<g>
		<rect x="-48.81" y="-128.49" class="st5" width="25.08" height="1.2"/>
	</g>
	<g>
		<rect x="-48.81" y="-124.37" class="st5" width="25.08" height="1.2"/>
	</g>
	<g class="st8">
		<polygon class="st6" points="-52.01,-124.74 -54.1,-124.74 -54.1,-112.03 -48.32,-112.03 		"/>
	</g>
</g>
<g>
	<g>
		<path class="st9" d="M-439.96,32.43c0,3.24-2.63,5.86-5.86,5.86c-3.24,0-5.86-2.63-5.86-5.86s5.86-11.2,5.86-11.2
			S-439.96,29.19-439.96,32.43z"/>
	</g>
	<g>
		<path class="st5" d="M-446.49,31.87c0,0.74-0.6,1.34-1.34,1.34c-0.74,0-1.34-0.6-1.34-1.34c0-0.74,0.6-1.34,1.34-1.34
			C-447.09,30.53-446.49,31.13-446.49,31.87z"/>
	</g>
	<g class="st10">
		<path class="st11" d="M-439.96,32.43c0-3.24-5.86-11.2-5.86-11.2v0v17.07l0,0C-442.59,38.29-439.96,35.66-439.96,32.43z"/>
	</g>
	<g>
		<g>
			<path class="st11" d="M-438.93,13.14h-1.25c-0.48,0-0.87,0.39-0.87,0.87c0,0.48,0.39,0.87,0.87,0.87h1.25
				c0.48,0,0.87-0.39,0.87-0.87C-438.07,13.53-438.45,13.14-438.93,13.14z"/>
		</g>
		<g>
			<path class="st11" d="M-436.04,14.01c0,0.48,0.39,0.87,0.87,0.87h1.25c0.48,0,0.87-0.39,0.87-0.87c0-0.48-0.39-0.87-0.87-0.87
				h-1.25C-435.66,13.14-436.04,13.53-436.04,14.01z"/>
		</g>
		<g>
			<path class="st11" d="M-431.03,14.01c0,0.48,0.39,0.87,0.87,0.87h1.25c0.48,0,0.87-0.39,0.87-0.87c0-0.48-0.39-0.87-0.87-0.87
				h-1.25C-430.64,13.14-431.03,13.53-431.03,14.01z"/>
		</g>
		<g>
			<path class="st11" d="M-443.95,13.14h-0.67c-0.48,0-0.87,0.39-0.87,0.87c0,0.48,0.39,0.87,0.87,0.87h0.67
				c0.48,0,0.87-0.39,0.87-0.87C-443.08,13.53-443.47,13.14-443.95,13.14z"/>
		</g>
		<g>
			<path class="st11" d="M-434.56,20.7l-1.14-0.53c-0.43-0.2-0.95-0.01-1.15,0.42c-0.2,0.43-0.02,0.95,0.42,1.15l1.14,0.53
				c0.43,0.2,0.95,0.01,1.15-0.42C-433.93,21.42-434.12,20.9-434.56,20.7z"/>
		</g>
		<g>
			<path class="st11" d="M-439.1,18.58l-1.14-0.53c-0.43-0.2-0.95-0.02-1.15,0.42c-0.2,0.44-0.02,0.95,0.42,1.15l1.14,0.53
				c0.43,0.2,0.95,0.01,1.15-0.42C-438.48,19.3-438.66,18.79-439.1,18.58z"/>
		</g>
		<g>
			<path class="st11" d="M-430.02,22.82l-1.14-0.53c-0.44-0.2-0.95-0.01-1.15,0.42c-0.2,0.44-0.01,0.95,0.42,1.15l1.14,0.53
				c0.43,0.2,0.95,0.01,1.15-0.42C-429.39,23.54-429.58,23.02-430.02,22.82z"/>
		</g>
		<g>
			<path class="st11" d="M-443.64,16.46l-0.61-0.28c-0.43-0.2-0.95-0.01-1.15,0.42c-0.2,0.43-0.02,0.95,0.42,1.15l0.6,0.28
				c0.44,0.2,0.95,0.02,1.15-0.42C-443.02,17.18-443.21,16.67-443.64,16.46z"/>
		</g>
		<g>
			<path class="st11" d="M-432.31,5.31c0.2,0.44,0.72,0.62,1.15,0.42l1.14-0.53c0.44-0.2,0.62-0.72,0.42-1.15
				c-0.2-0.43-0.72-0.62-1.15-0.42l-1.14,0.53C-432.32,4.36-432.51,4.88-432.31,5.31z"/>
		</g>
		<g>
			<path class="st11" d="M-441.39,9.55c0.2,0.44,0.72,0.62,1.15,0.42l1.14-0.53c0.43-0.2,0.62-0.72,0.42-1.15
				c-0.2-0.43-0.72-0.62-1.15-0.42l-1.14,0.53C-441.4,8.6-441.59,9.11-441.39,9.55z"/>
		</g>
		<g>
			<path class="st11" d="M-436.85,7.43c0.2,0.43,0.72,0.62,1.15,0.42l1.14-0.53c0.44-0.2,0.62-0.72,0.42-1.15
				c-0.2-0.43-0.72-0.62-1.15-0.42l-1.14,0.53C-436.86,6.48-437.05,6.99-436.85,7.43z"/>
		</g>
		<g>
			<path class="st11" d="M-444.25,11.84l0.61-0.28c0.43-0.2,0.62-0.72,0.42-1.15c-0.2-0.43-0.72-0.62-1.15-0.42l-0.6,0.28
				c-0.43,0.2-0.62,0.72-0.42,1.15C-445.2,11.85-444.68,12.04-444.25,11.84z"/>
		</g>
	</g>
	<g>
		<g>
			<path d="M-505.93,21.81h-1.63V6.21h1.63c0.94,0,1.71,0.77,1.71,1.71V20.1C-504.22,21.04-504.99,21.81-505.93,21.81z"/>
		</g>
	</g>
	<g>
		<g>
			<path class="st6" d="M-469.8,54.06c-4.69,0-8.51-3.82-8.51-8.51V7.63c0-1.01-0.82-1.84-1.83-1.84c-1.01,0-1.84,0.82-1.84,1.84
				v38.09c0,4.6-3.74,8.34-8.34,8.34c-4.6,0-8.34-3.74-8.34-8.34V19.74c0-1.26-1.03-2.29-2.29-2.29h-3.27v-6.67h3.27
				c4.94,0,8.96,4.02,8.96,8.96v25.98c0,0.92,0.75,1.67,1.67,1.67c0.92,0,1.67-0.75,1.67-1.67V7.63c0-4.69,3.82-8.51,8.51-8.51
				s8.51,3.82,8.51,8.51v37.93c0,1.01,0.82,1.84,1.83,1.84c1.01,0,1.83-0.82,1.83-1.84V19.74c0-4.94,4.02-8.96,8.96-8.96h2.72v6.67
				H-459c-1.26,0-2.29,1.03-2.29,2.29v25.81C-461.29,50.25-465.11,54.06-469.8,54.06z"/>
		</g>
	</g>
	<g>
		<path d="M-446.62,19.14h-9.02c-0.36,0-0.65-0.29-0.65-0.65V9.53c0-0.36,0.29-0.65,0.65-0.65h9.02c0.36,0,0.65,0.29,0.65,0.65v8.96
			C-445.97,18.85-446.26,19.14-446.62,19.14z"/>
	</g>
	<g>
		<path class="st7" d="M-456.59,14.01h-3.1c-2.72,0-4.92,2.2-4.92,4.92v27.43c0,2.72-2.2,4.92-4.92,4.92h-0.46
			c-2.72,0-4.92-2.2-4.92-4.92V7.48c0-2.72-2.2-4.92-4.92-4.92h-0.56c-2.72,0-4.92,2.2-4.92,4.92v38.39c0,2.72-2.2,4.92-4.92,4.92
			h-0.08c-2.72,0-4.92-2.2-4.92-4.92V18.93c0-2.72-2.2-4.92-4.92-4.92h-3.1c-0.33,0-0.65,0.04-0.96,0.1v3.35h3.27
			c1.26,0,2.29,1.03,2.29,2.29v25.98c0,2.76,1.36,5.18,3.43,6.71c1.38,1.02,3.07,1.64,4.92,1.64c1.89,0,3.61-0.65,5.01-1.71
			c2.01-1.52,3.34-3.92,3.34-6.63V7.63c0-1.01,0.82-1.84,1.84-1.84c1.01,0,1.83,0.82,1.83,1.84v37.93c0,2.77,1.35,5.2,3.39,6.76
			c1.43,1.08,3.19,1.75,5.12,1.75c1.96,0,3.75-0.69,5.19-1.81c2.01-1.56,3.32-3.97,3.32-6.7V19.74c0-1.26,1.03-2.29,2.29-2.29h2.72
			v-3.42C-456.39,14.03-456.48,14.01-456.59,14.01z"/>
	</g>
</g>
<g>
	<g>
		<g>
			<path d="M-261.57-182.67h-2.56v-2.17c0-9.25-7.53-16.78-16.78-16.78s-16.78,7.53-16.78,16.78v2.17h-2.56v-2.17
				c0-10.66,8.67-19.34,19.34-19.34c10.66,0,19.34,8.67,19.34,19.34V-182.67z"/>
		</g>
	</g>
	<g>
		<path class="st0" d="M-280.65-141.74L-280.65-141.74l-0.05-0.03c-12.88-8.96-20.57-23.65-20.57-39.35v-1.55h40.72v1.91
			C-260.55-165.27-268.04-150.74-280.65-141.74L-280.65-141.74z"/>
	</g>
	<g>
		<path class="st7" d="M-265.66-186.96v4.28h5.11v-4.28c0-1.41-1.14-2.56-2.55-2.56l0,0C-264.51-189.51-265.66-188.37-265.66-186.96
			z"/>
	</g>
	<g>
		<path class="st7" d="M-301.27-186.96v4.28h5.11v-4.28c0-1.41-1.14-2.56-2.56-2.56l0,0C-300.12-189.51-301.27-188.37-301.27-186.96
			z"/>
	</g>
	<g>
		<path class="st1" d="M-280.65-141.74c12.61-8.99,20.1-23.53,20.1-39.02v-1.91h-20.32v40.77c0.06,0.04,0.11,0.09,0.17,0.13
			L-280.65-141.74z"/>
	</g>
	<g>
		<rect x="-301.27" y="-182.7" width="40.72" height="1.33"/>
	</g>
	<g>
		<path class="st5" d="M-260.83-175.76h-40.13c0.05,0.44,0.11,0.89,0.18,1.33h39.79C-260.92-174.87-260.87-175.31-260.83-175.76z"/>
	</g>
	<g>
		<path class="st5" d="M-299.91-169.83h38.09c0.1-0.44,0.19-0.89,0.28-1.33h-38.66C-300.1-170.71-300.02-170.27-299.91-169.83z"/>
	</g>
</g>
<g>
	<g>
		<g>
			<path class="st1" d="M-374.86-273.84l-30.44,30.44c-1.21,1.21-1.21,3.17,0,4.38l0,0c1.21,1.21,3.17,1.21,4.38,0l30.44-30.44
				L-374.86-273.84z"/>
		</g>
		<g>
			<rect x="-378.73" y="-272.87" transform="matrix(0.7071 0.7071 -0.7071 0.7071 -300.0396 186.916)" width="6.19" height="8.36"/>
		</g>
		<g>
			<path class="st6" d="M-347.95-271.02l-0.17-0.17l-3.7-0.52c-4.18-0.58-8.06-2.52-11.05-5.5l-8.28-8.28l-8.89-5.55l4.95,9.5
				l-2.68,2.68c-0.7,0.7-0.7,1.83,0,2.53l7.01,7.01c2.99,2.99,4.92,6.87,5.5,11.05l0.52,3.7l0.17,0.17
				c3.99-0.53,7.92-2.39,11.07-5.54C-350.34-263.11-348.48-267.04-347.95-271.02z"/>
		</g>
		<g>
			<path class="st7" d="M-377.77-276.34l7.01,7.01c2.99,2.99,4.92,6.87,5.5,11.05l0.51,3.7l0.17,0.17
				c3.99-0.53,7.92-2.39,11.07-5.54l-21.6-21.6l-2.68,2.68C-378.47-278.17-378.47-277.04-377.77-276.34z"/>
		</g>
		<g class="st4">
			<path d="M-347.95-271.02l-0.17-0.17l-3.7-0.52c-0.08-0.01-0.16-0.04-0.24-0.05c-0.88,3.01-2.52,5.89-4.94,8.31
				c-2.42,2.42-5.3,4.06-8.31,4.94c0.01,0.08,0.04,0.16,0.05,0.24l0.51,3.7l0.17,0.17c3.99-0.53,7.92-2.39,11.07-5.54
				C-350.34-263.11-348.48-267.04-347.95-271.02z"/>
		</g>
	</g>
	<g>
		<g>
			<path class="st1" d="M-392.61-273.84l30.44,30.44c1.21,1.21,1.21,3.17,0,4.38l0,0c-1.21,1.21-3.17,1.21-4.38,0l-30.44-30.44
				L-392.61-273.84z"/>
		</g>
		<g>
			
				<rect x="-394.95" y="-272.87" transform="matrix(-0.7071 0.7071 -0.7071 -0.7071 -858.9164 -181.5818)" width="6.19" height="8.36"/>
		</g>
		<g>
			<path class="st6" d="M-405.99-276.05c0.21-0.21,0.45-0.39,0.68-0.56l-6.51-12.05l12.18,6.58l7.01,8.24l-4.35,4.35l-0.03,0.03
				l-2.04-1.73l-0.14-0.12c-1.41-1.41-3.68-1.41-5.09,0c-1.41,1.41-1.41,3.69,0,5.09l-1.72-1.72
				C-408.23-270.18-408.23-273.81-405.99-276.05z"/>
		</g>
		<g>
			<path class="st7" d="M-399.18-271.31c-1.41-1.41-3.68-1.41-5.09,0c-1.41,1.41-1.41,3.69,0,5.09l-1.72-1.72
				c-2.24-2.24-2.24-5.87,0-8.1c0.21-0.21,0.45-0.39,0.68-0.56l-6.51-12.05l0.27,0.14l16.8,16.8l-2.22,2.22l-0.03,0.03l-2.04-1.73
				L-399.18-271.31z"/>
		</g>
	</g>
</g>
<g>
	<g>
		<path class="st6" d="M8.78,13.05c-1.76,0-3.19-1.43-3.19-3.19V2.8c0-1.54-1.25-2.8-2.8-2.8l0,0C1.25,0,0,1.25,0,2.8v53.57
			c0,1.58,1.28,2.87,2.87,2.87h24.18c1.58,0,2.87-1.28,2.87-2.87V15.92c0-1.58-1.28-2.87-2.87-2.87H8.78z"/>
	</g>
	<g>
		<rect x="5.03" y="18.11" class="st5" width="19.85" height="11.9"/>
	</g>
	<g>
		<path class="st7" d="M24.26,54.57H5.66c-0.35,0-0.63-0.28-0.63-0.63V52.4c0-0.35,0.28-0.63,0.63-0.63h18.6
			c0.35,0,0.63,0.28,0.63,0.63v1.55C24.88,54.29,24.6,54.57,24.26,54.57z"/>
	</g>
	<g>
		<path class="st7" d="M10.1,40.59H5.55c-0.29,0-0.52-0.23-0.52-0.52v-4.55c0-0.29,0.23-0.52,0.52-0.52h4.55
			c0.29,0,0.52,0.23,0.52,0.52v4.55C10.62,40.35,10.39,40.59,10.1,40.59z"/>
	</g>
	<g>
		<path class="st7" d="M17.42,40.59h-4.55c-0.29,0-0.52-0.23-0.52-0.52v-4.55c0-0.29,0.23-0.52,0.52-0.52h4.55
			c0.29,0,0.52,0.23,0.52,0.52v4.55C17.94,40.35,17.7,40.59,17.42,40.59z"/>
	</g>
	<g>
		<path class="st1" d="M24.73,40.59h-4.55c-0.29,0-0.52-0.23-0.52-0.52v-4.55c0-0.29,0.23-0.52,0.52-0.52h4.55
			c0.29,0,0.52,0.23,0.52,0.52v4.55C25.25,40.35,25.01,40.59,24.73,40.59z"/>
	</g>
	<g>
		<path class="st7" d="M10.2,47.76H5.65c-0.29,0-0.52-0.23-0.52-0.52v-4.55c0-0.29,0.23-0.52,0.52-0.52h4.55
			c0.29,0,0.52,0.23,0.52,0.52v4.55C10.72,47.53,10.48,47.76,10.2,47.76z"/>
	</g>
	<g>
		<path class="st7" d="M17.51,47.76h-4.55c-0.29,0-0.52-0.23-0.52-0.52v-4.55c0-0.29,0.23-0.52,0.52-0.52h4.55
			c0.29,0,0.52,0.23,0.52,0.52v4.55C18.03,47.53,17.8,47.76,17.51,47.76z"/>
	</g>
	<g>
		<path class="st7" d="M24.82,47.76h-4.55c-0.29,0-0.52-0.23-0.52-0.52v-4.55c0-0.29,0.23-0.52,0.52-0.52h4.55
			c0.29,0,0.52,0.23,0.52,0.52v4.55C25.34,47.53,25.11,47.76,24.82,47.76z"/>
	</g>
	<g>
		<path class="st1" d="M5.59,2.8c0-1.54-1.25-2.8-2.8-2.8C1.25,0,0,1.25,0,2.8v2.8h5.59V2.8z"/>
	</g>
	<g>
		<g>
			<path class="st1" d="M31.92,11.26c-0.41,0.28-0.52,0.83-0.24,1.24c0.39,0.57,0.59,1.24,0.59,1.94c0,0.55-0.12,1.07-0.37,1.55
				c-0.22,0.44-0.04,0.98,0.4,1.2c0.13,0.06,0.27,0.09,0.4,0.09c0.33,0,0.64-0.18,0.8-0.49c0.37-0.73,0.56-1.54,0.56-2.36
				c0-1.05-0.31-2.07-0.9-2.94C32.88,11.09,32.33,10.98,31.92,11.26z"/>
		</g>
		<g>
			<path class="st1" d="M40.83,6.32c-0.28-0.41-0.84-0.52-1.24-0.24c-0.41,0.28-0.52,0.83-0.24,1.24c1.42,2.1,2.18,4.57,2.18,7.12
				c0,2.27-0.6,4.5-1.75,6.44c-0.25,0.43-0.11,0.98,0.32,1.23c0.14,0.08,0.3,0.12,0.45,0.12c0.31,0,0.61-0.16,0.77-0.44
				c1.31-2.22,2-4.76,2-7.35C43.31,11.53,42.45,8.72,40.83,6.32z"/>
		</g>
		<g>
			<path class="st1" d="M36,8.93c-0.42,0.26-0.55,0.81-0.29,1.23c0.79,1.28,1.21,2.76,1.21,4.27c0,1.35-0.34,2.69-0.98,3.87
				c-0.24,0.43-0.08,0.98,0.36,1.21c0.14,0.07,0.28,0.11,0.43,0.11c0.32,0,0.63-0.17,0.79-0.47c0.78-1.44,1.2-3.08,1.2-4.73
				c0-1.85-0.51-3.65-1.48-5.22C36.97,8.8,36.42,8.67,36,8.93z"/>
		</g>
	</g>
	<g class="st2">
		<rect x="14.96" y="18.11" class="st7" width="9.92" height="11.9"/>
	</g>
</g>
<g>
	<g>
		<rect x="144.41" y="16.86" class="st0" width="51.13" height="56.22"/>
	</g>
	<g>
		<rect x="149.57" y="42.41" class="st7" width="41.02" height="25.54"/>
	</g>
	<g>
		<rect x="157.16" y="52.17" width="25.84" height="5.11"/>
	</g>
	<g>
		<rect x="149.52" y="21.97" class="st5" width="41.02" height="15.33"/>
	</g>
	<g>
		<path class="st1" d="M164.12,54.72c0,3.29,2.67,5.96,5.96,5.96c3.29,0,5.96-2.67,5.96-5.96c0-3.29-2.67-5.96-5.96-5.96
			C166.79,48.76,164.12,51.43,164.12,54.72z"/>
	</g>
	<g>
		<g>
			<path class="st1" d="M158.51,25.65h5.2v1.77h-3.09v1.52h2.65v1.76h-2.65v2.92h-2.11V25.65z"/>
		</g>
		<g>
			<path class="st1" d="M165.09,25.65h2.11v7.97h-2.11V25.65z"/>
		</g>
		<g>
			<path class="st1" d="M173.25,33.62l-1.37-2.67h-0.81v2.67h-2.11v-7.97h3.02c1.72,0,3.19,0.59,3.19,2.57
				c0,1.14-0.52,1.89-1.29,2.3l1.73,3.09H173.25z M171.07,29.28h0.76c0.83,0,1.27-0.37,1.27-1.05c0-0.69-0.44-0.91-1.27-0.91h-0.76
				V29.28z"/>
		</g>
		<g>
			<path class="st1" d="M176.69,25.65h5.15v1.77h-3.04v1.25h2.6v1.77h-2.6v1.42h3.16v1.76h-5.27V25.65z"/>
		</g>
	</g>
</g>
<g>
	<g>
		<path class="st6" d="M-280.94,47.64L-280.94,47.64c-11.55,0-20.91-9.36-20.91-20.91V-0.8c0-1.69,1.37-3.06,3.06-3.06h35.7
			c1.69,0,3.06,1.37,3.06,3.06v27.54C-260.02,38.28-269.39,47.64-280.94,47.64z"/>
	</g>
	<g>
		<path class="st5" d="M-266.24,22.22h-29.39c-0.4,0-0.72-0.32-0.72-0.72V2.46c0-0.4,0.32-0.72,0.72-0.72h29.39
			c0.4,0,0.72,0.32,0.72,0.72V21.5C-265.53,21.9-265.85,22.22-266.24,22.22z"/>
	</g>
	<g>
		<rect x="-297.33" y="38.24" transform="matrix(0.7071 -0.7071 0.7071 0.7071 -114.7094 -194.5863)" width="10.18" height="5.87"/>
	</g>
	<g>
		<rect x="-306.09" y="50.08" transform="matrix(0.7071 -0.7071 0.7071 0.7071 -127.0932 -199.7158)" width="2.93" height="6.95"/>
	</g>
	<g>
		<path class="st1" d="M-299.67,56.43l-7.83-7.83c-0.26-0.26-0.26-0.69,0-0.96l6.79-6.79c0.26-0.26,0.69-0.26,0.96,0l7.83,7.83
			c0.26,0.26,0.26,0.69,0,0.96l-6.79,6.79C-298.98,56.7-299.41,56.7-299.67,56.43z"/>
	</g>
	<g>
		<rect x="-272.51" y="35.79" transform="matrix(0.7071 -0.7071 0.7071 0.7071 -107.8587 -178.6442)" width="5.87" height="10.18"/>
	</g>
	<g>
		<rect x="-260.66" y="51.79" transform="matrix(0.7071 -0.7071 0.7071 0.7071 -112.9884 -166.2604)" width="6.95" height="2.94"/>
	</g>
	<g>
		<path class="st1" d="M-262.14,56.13l7.83-7.83c0.26-0.26,0.26-0.69,0-0.96l-6.79-6.79c-0.26-0.26-0.69-0.26-0.96,0l-7.83,7.83
			c-0.26,0.26-0.26,0.69,0,0.96l6.79,6.79C-262.83,56.4-262.4,56.4-262.14,56.13z"/>
	</g>
	<g>
		<path class="st7" d="M-271.13,36.47c0,5.42-4.39,9.81-9.81,9.81c-5.42,0-9.81-4.39-9.81-9.81s4.39-9.81,9.81-9.81
			C-275.52,26.66-271.13,31.05-271.13,36.47z"/>
	</g>
	<g>
		<path d="M-274.08,36.47c0,3.79-3.07,6.85-6.85,6.85c-3.79,0-6.85-3.07-6.85-6.85c0-3.79,3.07-6.85,6.85-6.85
			C-277.15,29.61-274.08,32.68-274.08,36.47z"/>
	</g>
	<g>
		<path class="st5" d="M-276.85,36.47c0,2.26-1.83,4.08-4.08,4.08c-2.26,0-4.09-1.83-4.09-4.08c0-2.26,1.83-4.08,4.09-4.08
			C-278.68,32.38-276.85,34.21-276.85,36.47z"/>
	</g>
	<g class="st2">
		<path class="st7" d="M-265.53,21.36V2.6c0-0.47-0.38-0.85-0.85-0.85h-14.56v20.47h14.56C-265.91,22.22-265.53,21.84-265.53,21.36z
			"/>
	</g>
	<g>
		<path class="st5" d="M-273.23,3.91v1.53h3.44c0.3,0,0.54,0.24,0.54,0.54v12.83h1.53V5.02c0-0.62-0.5-1.11-1.11-1.11H-273.23z"/>
	</g>
</g>
<g>
	<g>
		<g>
			<path class="st0" d="M280.05-130.3L280.05-130.3c-0.99-5.44-2.91-10.67-5.68-15.45l-1.84-3.18l-3.58,5.01l0,0
				c-2.06-5.48-5.17-10.5-9.14-14.8l-3.4-3.68l-3.9,4.38c-3.41,3.84-6.15,8.23-8.09,12.98l-0.45,1.11l-3.69-5.01l-2.12,3.76
				c-2.44,4.33-4.19,9.01-5.19,13.88l-0.2,0.99l-2.5-5.01l-0.22,0.83c-3.52,13.22,2.9,27.44,15.57,32.6c3.33,1.36,6.98,2.1,10.8,2.1
				l0,0c3.83,0,7.48-0.75,10.82-2.11c12.66-5.16,19.07-19.39,15.55-32.59l-0.22-0.83L280.05-130.3z"/>
		</g>
		<g>
			<path class="st12" d="M274.26-125.33L274.26-125.33c-0.75-4.11-2.2-8.06-4.29-11.67l-1.39-2.4l-2.7,3.78l0,0
				c-1.56-4.14-3.9-7.93-6.9-11.17l-2.57-2.78l-2.94,3.31c-2.58,2.9-4.64,6.21-6.11,9.81l-0.34,0.84l-2.79-3.78l-1.6,2.84
				c-1.84,3.27-3.17,6.81-3.92,10.48l-0.15,0.75l-1.89-3.78l-0.17,0.63c-2.66,9.98,2.19,20.72,11.76,24.62
				c2.52,1.02,5.27,1.59,8.16,1.59l0,0c2.89,0,5.65-0.57,8.17-1.6c9.56-3.9,14.4-14.64,11.74-24.62l-0.17-0.63L274.26-125.33z"/>
		</g>
		<g>
			<path class="st13" d="M259.03-130.71l-2.57-2.78l-2.94,3.31c-0.79,0.89-1.57,1.87-2.31,2.91c-2.75,3.84-4.14,8.5-4.15,13.22l0,0
				c-0.02,5.18,4.18,9.4,9.37,9.4l0,0c5.17,0,9.37-4.19,9.37-9.36v-0.23c0-4.61-1.27-9.19-3.92-12.96
				C260.99-128.44,260.05-129.61,259.03-130.71z"/>
		</g>
		<g>
			<path class="st1" d="M267.23-101.88c12.66-5.16,19.07-19.39,15.55-32.59l-0.22-0.83l-2.5,5.01c-0.99-5.44-2.91-10.67-5.68-15.45
				l-1.84-3.18l-3.58,5.01c-2.06-5.48-5.17-10.5-9.14-14.8l-3.4-3.68l0,0v12.83l0,0l2.57,2.78c3,3.24,5.35,7.04,6.9,11.17l2.7-3.78
				l1.39,2.4c2.09,3.61,3.54,7.56,4.29,11.67l1.89-3.78l0.17,0.63c2.66,9.97-2.18,20.71-11.74,24.61c-2.52,1.03-5.28,1.6-8.17,1.6
				l0,0v2.5l0,0C260.24-99.77,263.89-100.52,267.23-101.88z"/>
		</g>
		<g class="st10">
			<path class="st1" d="M256.46-133.49l2.57,2.78c1.02,1.11,1.97,2.28,2.83,3.5c2.65,3.77,3.92,8.35,3.92,12.96v0.23
				c0,5.17-4.19,9.36-9.37,9.36v2.38l0,0c2.89,0,5.65-0.57,8.17-1.6c9.56-3.9,14.4-14.64,11.74-24.61l-0.17-0.63l-1.89,3.78
				c-0.75-4.11-2.2-8.06-4.29-11.67l-1.39-2.4l-2.7,3.78c-1.56-4.14-3.9-7.93-6.9-11.17l-2.57-2.78l0,0v16.13L256.46-133.49z"/>
		</g>
		<g>
			<path class="st1" d="M265.78-114.02v-0.23c0-4.61-1.27-9.19-3.92-12.96c-0.86-1.23-1.81-2.4-2.83-3.5l-2.57-2.78l-0.04,0.05
				v28.79C261.58-104.65,265.78-108.85,265.78-114.02z"/>
		</g>
		<g>
			<path class="st13" d="M269.02-134.48l-0.63-0.68l-0.72,0.81c-0.2,0.22-0.39,0.46-0.57,0.71c-0.67,0.94-1.01,2.08-1.02,3.24l0,0
				c0,1.27,1.02,2.3,2.29,2.3l0,0c1.27,0,2.29-1.03,2.29-2.29v-0.06c0-1.13-0.31-2.25-0.96-3.17
				C269.51-133.92,269.28-134.21,269.02-134.48z"/>
		</g>
		<g>
			<path class="st13" d="M243.94-126.15l-0.63-0.68l-0.72,0.81c-0.19,0.22-0.39,0.46-0.57,0.71c-0.67,0.94-1.01,2.08-1.02,3.24l0,0
				c0,1.27,1.02,2.3,2.29,2.3l0,0c1.27,0,2.29-1.03,2.29-2.29v-0.06c0-1.13-0.31-2.25-0.96-3.17
				C244.42-125.59,244.19-125.88,243.94-126.15z"/>
		</g>
		<g>
			<path class="st12" d="M257.19-158.2l-0.77-0.83l-0.88,0.99c-0.24,0.27-0.47,0.56-0.69,0.87c-0.82,1.15-1.24,2.54-1.24,3.96l0,0
				c0,1.55,1.25,2.81,2.8,2.81l0,0c1.55,0,2.8-1.25,2.8-2.8v-0.07c0-1.38-0.38-2.75-1.17-3.88
				C257.78-157.52,257.5-157.87,257.19-158.2z"/>
		</g>
	</g>
	<g>
		<polygon points="282.4,-149.54 277.39,-154.55 256.41,-133.56 235.43,-154.55 230.42,-149.54 251.4,-128.55 230.42,-107.57 
			235.43,-102.56 256.41,-123.54 277.39,-102.56 282.4,-107.57 261.42,-128.55 		"/>
	</g>
</g>
<g>
	<g>
		<g>
			<polygon class="st7" points="-44.29,-297.33 -74.32,-274.46 -14.26,-274.46 			"/>
		</g>
		<g>
			<rect x="-68.92" y="-274.46" class="st5" width="49.27" height="37.09"/>
		</g>
		<g class="st2">
			<rect x="-44.29" y="-274.97" class="st7" width="24.64" height="37.6"/>
		</g>
		<g>
			<g>
				<rect x="-71.14" y="-237.37" class="st7" width="53.7" height="5.54"/>
			</g>
		</g>
		<g>
			<rect x="-44.29" y="-237.37" width="26.85" height="5.54"/>
		</g>
		<g>
			<rect x="-53.79" y="-269.26" width="18.36" height="31.89"/>
		</g>
	</g>
	<g>
		<polygon points="-44.29,-297.33 -44.61,-297.04 -44.61,-274.46 -14.26,-274.46 		"/>
	</g>
	<g>
		<g>
			<path class="st0" d="M-32.09-253.98L-32.09-253.98c-0.51-2.81-1.5-5.5-2.93-7.97l-0.95-1.64l-1.85,2.58l0,0
				c-1.06-2.82-2.67-5.42-4.72-7.63l-1.76-1.9l-2.01,2.26c-1.76,1.98-3.17,4.24-4.17,6.7l-0.23,0.57l-1.9-2.58l-1.09,1.94
				c-1.26,2.23-2.16,4.65-2.68,7.16l-0.1,0.51l-1.29-2.58l-0.11,0.43c-1.82,6.82,1.5,14.15,8.03,16.82c1.72,0.7,3.6,1.09,5.57,1.09
				l0,0c1.97,0,3.86-0.39,5.58-1.09c6.53-2.66,9.84-10,8.02-16.81l-0.11-0.43L-32.09-253.98z"/>
		</g>
		<g>
			<path class="st12" d="M-35.08-251.42L-35.08-251.42c-0.38-2.12-1.13-4.15-2.21-6.02l-0.72-1.24l-1.39,1.95l0,0
				c-0.8-2.13-2.01-4.09-3.56-5.76l-1.33-1.43l-1.52,1.71c-1.33,1.5-2.39,3.21-3.15,5.06l-0.18,0.43l-1.44-1.95l-0.83,1.46
				c-0.95,1.69-1.63,3.51-2.02,5.41l-0.08,0.39l-0.98-1.95l-0.09,0.32c-1.37,5.15,1.13,10.69,6.06,12.7
				c1.3,0.53,2.72,0.82,4.21,0.82l0,0c1.49,0,2.91-0.29,4.21-0.82c4.93-2.01,7.43-7.55,6.06-12.7l-0.09-0.32L-35.08-251.42z"/>
		</g>
		<g>
			<path class="st13" d="M-42.94-254.2l-1.33-1.43l-1.52,1.71c-0.41,0.46-0.81,0.97-1.19,1.5c-1.42,1.98-2.13,4.38-2.14,6.82l0,0
				c-0.01,2.67,2.16,4.85,4.83,4.85l0,0c2.67,0,4.83-2.16,4.83-4.83v-0.12c0-2.38-0.65-4.74-2.02-6.68
				C-41.93-253.02-42.41-253.63-42.94-254.2z"/>
		</g>
		<g>
			<path class="st1" d="M-38.71-239.33c6.53-2.66,9.84-10,8.02-16.81l-0.11-0.43l-1.29,2.58c-0.51-2.81-1.5-5.5-2.93-7.97
				l-0.95-1.64l-1.85,2.58c-1.06-2.82-2.67-5.42-4.72-7.63l-1.76-1.9l0,0v6.62l0,0l1.33,1.43c1.55,1.67,2.76,3.63,3.56,5.76
				l1.39-1.95l0.72,1.24c1.08,1.86,1.83,3.9,2.21,6.02l0.98-1.95l0.09,0.32c1.37,5.15-1.13,10.68-6.06,12.7
				c-1.3,0.53-2.72,0.82-4.21,0.82l0,0v1.29l0,0C-42.31-238.24-40.43-238.63-38.71-239.33z"/>
		</g>
		<g class="st10">
			<path class="st1" d="M-44.27-255.63l1.33,1.43c0.53,0.57,1.02,1.17,1.46,1.81c1.37,1.95,2.02,4.31,2.02,6.68v0.12
				c0,2.67-2.16,4.83-4.83,4.83v1.23l0,0c1.49,0,2.91-0.29,4.21-0.82c4.93-2.01,7.43-7.55,6.06-12.7l-0.09-0.32l-0.98,1.95
				c-0.38-2.12-1.13-4.15-2.21-6.02l-0.72-1.24l-1.39,1.95c-0.8-2.13-2.01-4.09-3.56-5.76l-1.33-1.43l0,0v8.32L-44.27-255.63z"/>
		</g>
		<g>
			<path class="st1" d="M-39.46-245.59v-0.12c0-2.38-0.65-4.74-2.02-6.68c-0.45-0.63-0.93-1.24-1.46-1.81l-1.33-1.43l-0.02,0.03
				v14.85C-41.62-240.76-39.46-242.92-39.46-245.59z"/>
		</g>
		<g>
			<path class="st13" d="M-37.78-256.14l-0.32-0.35l-0.37,0.42c-0.1,0.11-0.2,0.24-0.29,0.37c-0.35,0.49-0.52,1.07-0.52,1.67l0,0
				c0,0.66,0.53,1.19,1.18,1.19l0,0c0.65,0,1.18-0.53,1.18-1.18v-0.03c0-0.58-0.16-1.16-0.5-1.64
				C-37.53-255.85-37.65-256-37.78-256.14z"/>
		</g>
		<g>
			<path class="st13" d="M-50.72-251.84l-0.32-0.35l-0.37,0.42c-0.1,0.11-0.2,0.24-0.29,0.37c-0.35,0.49-0.52,1.07-0.52,1.67l0,0
				c0,0.66,0.53,1.19,1.18,1.19l0,0c0.65,0,1.18-0.53,1.18-1.18v-0.03c0-0.58-0.16-1.16-0.5-1.64
				C-50.47-251.56-50.59-251.7-50.72-251.84z"/>
		</g>
		<g>
			<path class="st12" d="M-43.89-268.38l-0.4-0.43l-0.45,0.51c-0.12,0.14-0.24,0.29-0.36,0.45c-0.42,0.59-0.64,1.31-0.64,2.04l0,0
				c0,0.8,0.65,1.45,1.45,1.45l0,0c0.8,0,1.45-0.65,1.45-1.45v-0.04c0-0.71-0.2-1.42-0.61-2
				C-43.58-268.03-43.73-268.21-43.89-268.38z"/>
		</g>
	</g>
</g>
<g>
	<path d="M-266.99-60.68l-5.22-5.06h-15.45l-2.73,2.64l-9.18-8.51l-1.65,1.78l9.08,8.42l-0.75,0.72c-0.43,0.42-0.68,1-0.68,1.6v16.3
		c0,1.43,1.16,2.59,2.59,2.59h22.07c1.43,0,2.59-1.16,2.59-2.59v-16.3C-266.31-59.68-266.56-60.26-266.99-60.68z"/>
	
		<ellipse transform="matrix(0.2278 -0.9737 0.9737 0.2278 -134.634 -337.2433)" class="st0" cx="-279.93" cy="-83.74" rx="20.37" ry="20.37"/>
	<path class="st1" d="M-283.52-46.89c0,1.07-0.87,1.95-1.95,1.95c-1.07,0-1.95-0.87-1.95-1.95c0-1.08,0.87-1.95,1.95-1.95
		C-284.39-48.83-283.52-47.96-283.52-46.89z"/>
	<circle class="st1" cx="-300.31" cy="-70.89" r="1.95"/>
	<path class="st1" d="M-272.45-46.89c0,1.07-0.87,1.95-1.95,1.95s-1.95-0.87-1.95-1.95c0-1.08,0.87-1.95,1.95-1.95
		S-272.45-47.96-272.45-46.89z"/>
	<path class="st1" d="M-277.99-46.89c0,1.07-0.87,1.95-1.95,1.95c-1.08,0-1.95-0.87-1.95-1.95c0-1.08,0.87-1.95,1.95-1.95
		C-278.86-48.83-277.99-47.96-277.99-46.89z"/>
	<rect x="-287.41" y="-54.43" class="st1" width="14.96" height="2.13"/>
	<path class="st1" d="M-259.56-83.74c0-11.25-9.12-20.37-20.37-20.37v40.75C-268.68-63.37-259.56-72.49-259.56-83.74z"/>
	<path class="st5" d="M-276.59-83.5c0,1.85-1.5,3.34-3.34,3.34c-1.85,0-3.34-1.5-3.34-3.34c0-1.85,1.5-3.34,3.34-3.34
		C-278.09-86.84-276.59-85.35-276.59-83.5z"/>
</g>
<g>
	<g>
		<path class="st0" d="M-454.07-61.31h-48.13v-4.68c0-13.29,10.77-24.07,24.07-24.07l0,0c13.29,0,24.06,10.78,24.06,24.07V-61.31z"
			/>
	</g>
	<g>
		<g>
			<path class="st7" d="M-440.22-52.01h-10.95c-4.69,0-9.66-0.9-14.75-2.69c-2.93-1.03-5.99-1.55-9.1-1.55h-6.22
				c-3.11,0-6.17,0.52-9.1,1.55c-5.09,1.79-10.06,2.69-14.75,2.69h-10.96v-1.94h10.96c4.48,0,9.22-0.87,14.11-2.58
				c3.14-1.1,6.42-1.66,9.74-1.66h6.22c3.33,0,6.61,0.56,9.74,1.66c4.89,1.71,9.63,2.58,14.11,2.58h10.95V-52.01z"/>
		</g>
	</g>
	<g class="st4">
		<path d="M-453.97-66.19c0-11.82-8.54-21.64-19.78-23.66v9.61l2.92,0.75v6.21c0,3.18-1.6,6.15-4.26,7.89l-3.06,2.01l-0.1-0.06v1.94
			h24.27V-66.19z"/>
	</g>
	<g>
		<path class="st0" d="M-502.2-61.31l-13.85,7.35H-505c4.93,0,9.78-1,14.43-2.63c2.95-1.03,6.12-1.6,9.42-1.6h2.9v-3.12H-502.2z"/>
	</g>
	<g>
		<path class="st1" d="M-465.51-56.59c4.65,1.63,9.5,2.63,14.43,2.63h10.86l-13.85-7.35h-24.18v3.12h3.31
			C-471.63-58.19-468.46-57.62-465.51-56.59z"/>
	</g>
	<g class="st4">
		<rect x="-502.2" y="-65.07" width="23.86" height="3.76"/>
	</g>
	<g>
		<path class="st5" d="M-473.85-80.04v-12.25h-8.58v12.2l-3.14,0.81v6.21c0,3.18,1.6,6.15,4.26,7.89l3.06,2.01l3.06-2.01
			c2.66-1.74,4.26-4.71,4.26-7.89v-6.21L-473.85-80.04z"/>
	</g>
	<g>
		<path class="st0" d="M-475.97-67.21l-2.27,1.49l-2.27-1.49c-1.98-1.29-3.17-3.5-3.17-5.86v-4.61l5.44-1.39l5.44,1.39v4.61
			C-472.81-70.71-474-68.5-475.97-67.21z"/>
	</g>
	<g class="st2">
		<path class="st7" d="M-473.85-80.04v-9.61v-2.64h-4.5v2.25v10.99l0.1-0.02l5.44,1.39v4.61c0,2.36-1.19,4.57-3.17,5.86l-2.27,1.49
			l-0.1-0.06v2.54l0.1,0.06l3.06-2.01c2.66-1.74,4.26-4.71,4.26-7.89v-6.21L-473.85-80.04z"/>
	</g>
	<g>
		<path class="st1" d="M-475.97-67.21c1.98-1.29,3.17-3.5,3.17-5.86v-4.61l-5.44-1.39l-0.1,0.02v13.27l0.1,0.06L-475.97-67.21z"/>
	</g>
</g>
<g>
	<g>
		<path class="st1" d="M-454.47-277.96c-0.82-0.82-2.15-0.82-2.97,0l-11.94,11.94l-0.6-0.6l14.89-14.89c1.02-1.02,1.02-2.67,0-3.68
			c-1.02-1.02-2.67-1.02-3.68,0l-14.89,14.89l-0.5-0.5l16.15-16.15c1.02-1.02,1.02-2.67,0-3.68c-1.02-1.02-2.67-1.02-3.68,0
			l-16.15,16.15l-0.53-0.53l14.84-14.84c1.02-1.02,1.02-2.67,0-3.68c-1.02-1.02-2.67-1.02-3.68,0l-17.36,17.36l-0.95-0.95l9.75-9.75
			c1.11-1.11,1.39-2.91,0.46-4.19c-1.17-1.63-3.46-1.77-4.82-0.41l-14.32,14.32c-1.23,1.23-2.06,2.78-2.41,4.48l-2.88,9.14
			l-10.5,10.5l14.42,14.42l10.5-10.5l0,0c5.81-2.53,12.36-7.39,16.85-11.88l2.03-2.03l0.05-0.05l11.94-11.94
			C-453.65-275.81-453.65-277.14-454.47-277.96z"/>
	</g>
	<path class="st0" d="M-446.1-274.81c-0.82-0.82-2.15-0.82-2.97,0l-11.94,11.94l-0.6-0.6l14.89-14.89c1.02-1.02,1.02-2.67,0-3.68
		c-1.02-1.02-2.67-1.02-3.68,0l-14.89,14.89l-0.5-0.5l16.15-16.15c1.02-1.02,1.02-2.67,0-3.68c-1.02-1.02-2.67-1.02-3.68,0
		l-16.15,16.15l-0.53-0.53l14.84-14.84c1.02-1.02,1.02-2.67,0-3.68c-1.02-1.02-2.67-1.02-3.68,0l-17.37,17.37l-0.95-0.95l9.75-9.75
		c1.11-1.11,1.39-2.91,0.46-4.19c-1.17-1.63-3.46-1.77-4.82-0.41l-14.32,14.32c-1.23,1.23-2.07,2.78-2.41,4.48l-2.88,9.14
		l-10.5,10.5l14.42,14.42l10.5-10.5l0,0c5.81-2.53,12.36-7.39,16.85-11.88l2.03-2.03l0.05-0.05l11.94-11.94
		C-445.28-272.66-445.28-273.99-446.1-274.81z"/>
	<rect x="-512.06" y="-250.48" transform="matrix(0.7071 0.7071 -0.7071 0.7071 -321.9302 281.7437)" width="22.01" height="5.52"/>
	<path class="st5" d="M-489.02-267.88l-0.93,2.97l16.94,16.94c0.81-0.46,1.62-0.95,2.43-1.47L-489.02-267.88z"/>
	<path class="st5" d="M-463.52-254.7l-20.93-20.93l-1.65,1.65c-0.1,0.1-0.18,0.22-0.28,0.32l20.71,20.71
		C-464.92-253.52-464.21-254.11-463.52-254.7z"/>
	<path d="M-467.44-251.6l-20.23-20.23c-0.26,0.5-0.46,1.02-0.62,1.56l19.58,19.58C-468.29-250.99-467.86-251.29-467.44-251.6z"/>
	
		<rect x="-503.72" y="-247.36" transform="matrix(0.7071 0.7071 -0.7071 0.7071 -317.2632 276.7542)" class="st7" width="22.01" height="5.52"/>
</g>
<g>
	<g>
		<path class="st1" d="M-562.13-101.29l-21.7,24.75l4.43,3.89l21.7-24.75c1.07-1.22,0.95-3.09-0.27-4.16l0,0
			C-559.19-102.64-561.06-102.51-562.13-101.29z"/>
		<rect x="-587.46" y="-75.67" transform="matrix(0.7519 0.6592 -0.6592 0.7519 -192.0014 367.6549)" width="5.9" height="8.75"/>
		<path class="st6" d="M-604.41-43.19l-3.42-1.51l-1.94-3.2c-3.15-5.18-2.57-11.81,1.43-16.38l10.95-12.49l19.99,17.53l-10.95,12.49
			C-592.36-42.18-598.86-40.75-604.41-43.19z"/>
		<path class="st7" d="M-589.62-69.94l-9.87,11.26c-1.19,1.36-1.81,3.12-1.73,4.95l0.01,0.3c0.03,0.61,0.56,1.08,1.17,1.02l0.3-0.03
			c1.82-0.16,3.49-1,4.68-2.36l9.87-11.26L-589.62-69.94z"/>
		
			<rect x="-602.59" y="-68.35" transform="matrix(0.7519 0.6593 -0.6593 0.7519 -190.1152 371.2624)" class="st7" width="28.55" height="2.78"/>
		<path class="st4" d="M-588.33-46.78l10.92-12.46L-587.4-68l-20.43,23.3l3.38,1.49C-598.87-40.75-592.35-42.2-588.33-46.78z"/>
	</g>
	<g>
		<rect x="-583.26" y="-45" class="st1" width="40.56" height="2.98"/>
		<path class="st1" d="M-564.7-89.68L-575.79-45h25.63l-11.09-44.69C-561.78-91.37-564.17-91.37-564.7-89.68z"/>
		<polygon class="st5" points="-574.33,-50.88 -551.62,-50.88 -553.03,-56.59 -572.91,-56.59 		"/>
		<polygon class="st5" points="-571.48,-62.38 -554.47,-62.38 -555.89,-68.08 -570.06,-68.08 		"/>
		<polygon class="st5" points="-558.74,-79.58 -567.21,-79.58 -568.62,-73.88 -557.32,-73.88 		"/>
	</g>
</g>
<g>
	<g>
		<path class="st0" d="M-272.54-254.96c-2.24,1.95-5.16,3.14-8.37,3.14c-3.2,0-6.13-1.19-8.37-3.14l-11.95,13.43
			c-0.52,0.59-0.2,1.53,0.58,1.66l4.94,0.84c1.26,0.21,2.48,0.61,3.62,1.2c3.44,1.76,7.21,3.65,11.17,3.65s7.74-1.89,11.17-3.65
			c1.14-0.58,2.36-0.98,3.62-1.2l4.94-0.84c0.78-0.13,1.11-1.07,0.58-1.66L-272.54-254.96z"/>
		<path class="st0" d="M-264.57-288.99c-2.41,0-4.76-0.68-6.8-1.98c-2.99-1.9-6.19-4.01-9.54-4.01c-3.35,0-6.55,2.1-9.54,4.01
			c-2.03,1.29-4.39,1.98-6.8,1.98h-2.95c-0.87,0-1.33,1.02-0.75,1.67l11.67,13.11c2.24-1.95,5.16-3.14,8.37-3.14
			c3.21,0,6.13,1.19,8.37,3.14l11.67-13.11c0.58-0.65,0.12-1.67-0.75-1.67H-264.57z"/>
		<path class="st0" d="M-255.36-279.37l-0.84-4.94c-0.13-0.78-1.07-1.11-1.66-0.58l-13.43,11.95c1.95,2.24,3.14,5.16,3.14,8.37
			c0,3.2-1.19,6.13-3.14,8.37l13.43,11.95c0.59,0.52,1.52,0.2,1.66-0.58l0.84-4.94c0.21-1.26,0.61-2.48,1.2-3.62
			c1.76-3.44,3.65-7.21,3.65-11.17c0-3.97-1.89-7.74-3.65-11.17C-254.75-276.89-255.15-278.11-255.36-279.37z"/>
		<path class="st0" d="M-290.53-272.95l-13.11-11.67c-0.65-0.58-1.67-0.12-1.67,0.75v2.95c0,2.41-0.68,4.76-1.98,6.8
			c-1.9,2.99-4,6.19-4,9.54c0,3.35,2.1,6.55,4,9.54c1.29,2.03,1.98,4.39,1.98,6.8v2.95c0,0.87,1.02,1.33,1.67,0.75l13.11-11.67
			c-1.95-2.24-3.14-5.16-3.14-8.37C-293.67-267.78-292.48-270.71-290.53-272.95z"/>
	</g>
	<path d="M-261.29-264.58c0,10.83-8.78,19.62-19.62,19.62c-10.83,0-19.62-8.78-19.62-19.62c0-10.83,8.78-19.62,19.62-19.62
		C-270.07-284.2-261.29-275.41-261.29-264.58z"/>
	<g>
		<path class="st1" d="M-280.91-247.54c-9.35,0-16.96-7.61-16.96-16.96c0-9.35,7.61-16.96,16.96-16.96
			c9.35,0,16.96,7.61,16.96,16.96C-263.95-255.15-271.56-247.54-280.91-247.54z M-280.91-278.91c-7.95,0-14.42,6.47-14.42,14.42
			c0,7.95,6.47,14.42,14.42,14.42c7.95,0,14.42-6.47,14.42-14.42C-266.49-272.45-272.96-278.91-280.91-278.91z"/>
	</g>
	<g>
		<path class="st5" d="M-280.91-250.08c-7.95,0-14.42-6.47-14.42-14.42c0-7.95,6.47-14.42,14.42-14.42
			c7.95,0,14.42,6.47,14.42,14.42C-266.49-256.55-272.96-250.08-280.91-250.08z M-280.91-277.48c-7.16,0-12.98,5.82-12.98,12.98
			c0,7.16,5.82,12.98,12.98,12.98s12.98-5.82,12.98-12.98C-267.93-271.65-273.75-277.48-280.91-277.48z"/>
	</g>
	<g>
		<path class="st5" d="M-269.58-266.49L-269.58-266.49l-0.05-0.05l-1.14-0.16c-1.3-0.18-2.5-0.78-3.42-1.7l-2.56-2.56l-2.75-1.72
			l1.53,2.94l-0.83,0.83c-0.22,0.22-0.22,0.57,0,0.78l0.84,0.84l-1.77,1.77l0,0l-0.92,0.92l-0.92-0.92l-1.83-1.83l-1.36,1.36
			l2.75,2.75l-5.32,5.32c-0.38,0.37-0.38,0.98,0,1.36c0.37,0.37,0.98,0.37,1.36,0l5.32-5.32l5.32,5.32c0.38,0.37,0.98,0.37,1.36,0
			c0.38-0.37,0.38-0.98,0-1.36l-5.32-5.32l0.92-0.92l1.77-1.77c0.91,0.92,1.5,2.11,1.68,3.4l0.16,1.14l0.05,0.05
			c0.31-0.04,0.62-0.11,0.92-0.2c0.91-0.28,1.78-0.78,2.51-1.52c0.66-0.66,1.13-1.44,1.42-2.25
			C-269.74-265.7-269.63-266.09-269.58-266.49L-269.58-266.49z"/>
		<path class="st5" d="M-289.34-271.95l2.01,3.73c-0.07,0.05-0.15,0.11-0.21,0.17c-0.69,0.69-0.69,1.82,0,2.51l0.53,0.53
			c-0.44-0.44-0.44-1.14,0-1.58c0.43-0.44,1.14-0.44,1.58,0l0.04,0.04l0.63,0.54l0.01-0.01l1.35-1.35l-2.17-2.55L-289.34-271.95z"/>
	</g>
</g>
</svg>
