<?xml version="1.0" encoding="utf-8"?>
<!-- Generator: Adobe Illustrator 25.3.0, SVG Export Plug-In . SVG Version: 6.00 Build 0)  -->
<svg version="1.1" id="Ñëîé_1" xmlns="http://www.w3.org/2000/svg" xmlns:xlink="http://www.w3.org/1999/xlink" x="0px" y="0px"
	 viewBox="0 0 60.07 65.5" style="enable-background:new 0 0 60.07 65.5;" xml:space="preserve">
<style type="text/css">
	.st0{fill:#FF4431;}
	.st1{fill:#E53013;}
	.st2{opacity:0.2;}
	.st3{opacity:0.3;}
	.st4{opacity:0.1;}
	.st5{fill:#CCD7E2;}
	.st6{fill:#4F5266;}
	.st7{fill:#353747;}
	.st8{opacity:0.4;}
	.st9{fill:#78CFF1;}
	.st10{opacity:0.5;}
	.st11{fill:#049AB2;}
	.st12{fill:#FFB32C;}
	.st13{fill:#FFD67B;}
</style>
<g>
	<g>
		<rect x="-320.89" y="306.95" class="st0" width="30.67" height="41.42"/>
	</g>
	<g>
		<rect x="-290.23" y="311.25" class="st1" width="2.55" height="15.95"/>
	</g>
	<g>
		<path class="st0" d="M-305.56,293.79c-6.82,0-12.59,4.45-14.58,10.61h29.16C-292.97,298.24-298.74,293.79-305.56,293.79z"/>
	</g>
	<g>
		<rect x="-287.67" y="313.29" class="st0" width="2.56" height="11.86"/>
	</g>
	<g class="st2">
		<rect x="-306.54" y="297.16" width="2.56" height="3.87"/>
	</g>
	<g class="st2">
		<rect x="-316.08" y="331.78" width="2.56" height="14.01"/>
	</g>
	<g class="st2">
		<rect x="-306.39" y="331.78" width="2.56" height="14.01"/>
	</g>
	<g class="st2">
		<rect x="-296.7" y="331.78" width="2.56" height="14.01"/>
	</g>
	<g>
		<rect x="-323.64" y="304.39" class="st1" width="36.16" height="2.56"/>
	</g>
	<g>
		<rect x="-320.89" y="348.37" class="st1" width="30.67" height="2.55"/>
	</g>
	<g>
		<polygon class="st0" points="-324.98,355.52 -286.14,355.52 -290.23,350.92 -320.89,350.92 		"/>
	</g>
	<g>
		<rect x="-311.31" y="292.32" class="st1" width="11.5" height="2.55"/>
	</g>
	<g class="st2">
		<path d="M-314.7,301.02h2.91c0.47-1.19,2.74-3.24,3.85-3.87h-2.98C-312.47,297.95-313.92,299.57-314.7,301.02z"/>
	</g>
	<g class="st2">
		<path d="M-295.47,301.02h-2.79c-0.82-1.64-2.86-3.24-3.96-3.87h2.98C-297.7,297.95-296.25,299.57-295.47,301.02z"/>
	</g>
	<g>
		<g>
			<path class="st1" d="M-304.71,327.2c-4.4,0-7.97-3.58-7.97-7.97c0-4.4,3.58-7.97,7.97-7.97c4.4,0,7.97,3.58,7.97,7.97
				C-296.73,323.62-300.31,327.2-304.71,327.2z M-304.71,313.8c-2.99,0-5.42,2.43-5.42,5.42c0,2.99,2.43,5.42,5.42,5.42
				c2.99,0,5.42-2.43,5.42-5.42C-299.29,316.23-301.72,313.8-304.71,313.8z"/>
		</g>
	</g>
	<g>
		<rect x="-323.45" y="311.25" class="st1" width="2.56" height="15.95"/>
	</g>
	<g>
		<rect x="-326" y="313.29" class="st0" width="2.56" height="11.86"/>
	</g>
	<g class="st3">
		<polygon points="-306.46,322.27 -308.22,319.22 -306.46,316.18 -302.95,316.18 -301.19,319.22 -302.95,322.27 		"/>
	</g>
	<g class="st4">
		<rect x="-305.11" y="306.95" width="14.89" height="41.42"/>
	</g>
	<g class="st4">
		<path d="M-305.11,304.39h14.13c-1.42-4.38-4.76-7.85-9.02-9.52h-5.12V304.39z"/>
	</g>
	<g class="st4">
		<polygon points="-305.11,306.95 -290.23,306.95 -287.48,306.95 -287.48,304.39 -290.98,304.39 -305.11,304.39 		"/>
	</g>
	<g class="st4">
		<rect x="-305.11" y="348.37" width="14.89" height="2.55"/>
	</g>
	<g class="st4">
		<polygon points="-290.23,350.92 -305.11,350.92 -305.11,355.52 -286.14,355.52 		"/>
	</g>
	<g class="st4">
		<polygon points="-305.11,292.32 -305.11,293.82 -305.11,294.87 -299.99,294.87 -299.81,294.87 -299.81,292.32 		"/>
	</g>
</g>
<g>
	<g>
		<path d="M-417.7,125.39l-1.1,0.32l-5.6,1.61l-1.04,0.3l2.69,9.33l1.04-0.3l4.49,15.58c0.45,1.55,2.06,2.44,3.61,1.99l0,0
			c1.55-0.45,2.44-2.06,1.99-3.61l-4.49-15.58l1.11-0.32L-417.7,125.39z"/>
	</g>
	<g>
		<path d="M-419.87,120.41c0,3.75-3.04,6.8-6.8,6.8s-6.8-3.04-6.8-6.8s3.04-6.8,6.8-6.8S-419.87,116.66-419.87,120.41z"/>
	</g>
	<g>
		<path class="st5" d="M-374.17,120.41c0,3.75-3.04,6.8-6.8,6.8s-6.8-3.04-6.8-6.8s3.04-6.8,6.8-6.8S-374.17,116.66-374.17,120.41z"
			/>
	</g>
	<g>
		<path class="st6" d="M-417.14,111.67h-13.19v17.48h13.19c0.17,0,0.33,0.01,0.5,0.02v-17.51
			C-416.81,111.66-416.98,111.67-417.14,111.67z"/>
	</g>
	<g>
		<path class="st6" d="M-395.71,105.82c-5.51,3.25-11.67,5.18-18.02,5.69v17.79c6.35,0.51,12.51,2.44,18.02,5.69l14.75,11.44V94.38
			L-395.71,105.82z"/>
	</g>
	<g>
		<path d="M-416.65,111.65v17.51c0.97,0.01,1.95,0.06,2.91,0.14v-17.79C-414.7,111.59-415.67,111.64-416.65,111.65z"/>
	</g>
	<g>
		<path class="st7" d="M-417.14,129.15c0.17,0,0.33,0.01,0.5,0.02v-8.76h-13.69v8.74H-417.14z"/>
	</g>
	<g>
		<path class="st7" d="M-413.73,129.3c6.35,0.51,12.51,2.44,18.02,5.69l14.75,11.44v-26.02h-32.77V129.3z"/>
	</g>
	<g>
		<polygon class="st5" points="-387.39,99.37 -387.39,141.45 -385.87,142.63 -385.87,98.19 		"/>
	</g>
	<g>
		<polygon class="st5" points="-392.44,103.29 -392.44,137.53 -390.93,138.71 -390.93,102.11 		"/>
	</g>
</g>
<g>
	<g>
		<g>
			<rect x="-504.57" y="96.3" class="st6" width="4.62" height="10.9"/>
		</g>
	</g>
	<g class="st2">
		<path d="M-499.95,107.04V96.3h-2.31v10.52C-501.47,106.82-500.7,106.9-499.95,107.04z"/>
	</g>
	<g>
		<path class="st0" d="M-492.91,157.05h-18.7c-1.76,0-3.19-1.43-3.19-3.19v-34.5c0-6.93,5.62-12.54,12.54-12.54l0,0
			c6.93,0,12.54,5.62,12.54,12.54v34.5C-489.72,155.62-491.15,157.05-492.91,157.05z"/>
	</g>
	<g>
		<path class="st1" d="M-489.72,119.36c0-6.14-4.41-11.23-10.23-12.32l0,0h-2.31v50.01h9.35c1.76,0,3.19-1.43,3.19-3.19V119.36z"/>
	</g>
	<g>
		<g>
			<path class="st7" d="M-481.49,101.21l-17.06-5.08l0.66-2.22l14.93,4.45c1.18,0.35,1.85,1.59,1.5,2.77L-481.49,101.21z"/>
		</g>
	</g>
	<g>
		<g>
			<rect x="-505.23" y="104.74" width="5.95" height="2.31"/>
		</g>
	</g>
	<g>
		<path d="M-507.95,93.99L-507.95,93.99c0,1.28,1.03,2.31,2.31,2.31h0.4v2.31h5.95V96.3h0.28c1.26,0,2.49-0.32,3.59-0.92l0,0
			c1.1-0.61,2.34-0.92,3.59-0.92h9.07c1.53,0,2.77-1.24,2.77-2.77l0,0h-25.66C-506.92,91.68-507.95,92.71-507.95,93.99z"/>
	</g>
	<g>
		<g>
			<path class="st7" d="M-518.82,124.39h-2.31v-4.1c0-10.82,8.77-19.59,19.59-19.59h2.25v2.31h-2.77c-9.26,0-16.76,7.5-16.76,16.76
				V124.39z"/>
		</g>
	</g>
	<g>
		<polygon points="-514.31,137.11 -525.87,137.11 -522.17,124.39 -518.01,124.39 		"/>
	</g>
	<g>
		<rect x="-514.8" y="120.64" class="st5" width="25.08" height="1.2"/>
	</g>
	<g>
		<rect x="-514.8" y="124.77" class="st5" width="25.08" height="1.2"/>
	</g>
	<g class="st8">
		<polygon class="st6" points="-518.01,124.39 -520.09,124.39 -520.09,137.11 -514.31,137.11 		"/>
	</g>
</g>
<g>
	<g>
		<path class="st9" d="M-365.64,329.75c0,3.24-2.63,5.86-5.86,5.86c-3.24,0-5.86-2.63-5.86-5.86c0-3.24,5.86-11.2,5.86-11.2
			S-365.64,326.52-365.64,329.75z"/>
	</g>
	<g>
		<path class="st5" d="M-372.17,329.2c0,0.74-0.6,1.34-1.34,1.34c-0.74,0-1.34-0.6-1.34-1.34c0-0.74,0.6-1.34,1.34-1.34
			C-372.77,327.86-372.17,328.46-372.17,329.2z"/>
	</g>
	<g class="st10">
		<path class="st11" d="M-365.64,329.75c0-3.24-5.86-11.2-5.86-11.2v0v17.07l0,0C-368.27,335.62-365.64,332.99-365.64,329.75z"/>
	</g>
	<g>
		<g>
			<path class="st11" d="M-364.61,310.47h-1.25c-0.48,0-0.87,0.39-0.87,0.87c0,0.48,0.39,0.87,0.87,0.87h1.25
				c0.48,0,0.87-0.39,0.87-0.87C-363.74,310.86-364.13,310.47-364.61,310.47z"/>
		</g>
		<g>
			<path class="st11" d="M-361.72,311.34c0,0.48,0.39,0.87,0.87,0.87h1.25c0.48,0,0.87-0.39,0.87-0.87c0-0.48-0.39-0.87-0.87-0.87
				h-1.25C-361.33,310.47-361.72,310.86-361.72,311.34z"/>
		</g>
		<g>
			<path class="st11" d="M-356.71,311.34c0,0.48,0.39,0.87,0.87,0.87h1.25c0.48,0,0.87-0.39,0.87-0.87c0-0.48-0.39-0.87-0.87-0.87
				h-1.25C-356.32,310.47-356.71,310.86-356.71,311.34z"/>
		</g>
		<g>
			<path class="st11" d="M-369.62,310.47h-0.67c-0.48,0-0.87,0.39-0.87,0.87c0,0.48,0.39,0.87,0.87,0.87h0.67
				c0.48,0,0.87-0.39,0.87-0.87C-368.76,310.86-369.14,310.47-369.62,310.47z"/>
		</g>
		<g>
			<path class="st11" d="M-360.24,318.03l-1.14-0.53c-0.43-0.2-0.95-0.01-1.15,0.42c-0.2,0.43-0.02,0.95,0.42,1.15l1.14,0.53
				c0.43,0.2,0.95,0.01,1.15-0.42C-359.61,318.75-359.8,318.23-360.24,318.03z"/>
		</g>
		<g>
			<path class="st11" d="M-364.78,315.91l-1.14-0.53c-0.43-0.2-0.95-0.02-1.15,0.42c-0.2,0.44-0.02,0.95,0.42,1.15l1.14,0.53
				c0.43,0.2,0.95,0.01,1.15-0.42C-364.15,316.63-364.34,316.11-364.78,315.91z"/>
		</g>
		<g>
			<path class="st11" d="M-355.69,320.15l-1.14-0.53c-0.44-0.2-0.95-0.01-1.15,0.42c-0.2,0.44-0.01,0.95,0.42,1.15l1.14,0.53
				c0.43,0.2,0.95,0.01,1.15-0.42C-355.07,320.87-355.26,320.35-355.69,320.15z"/>
		</g>
		<g>
			<path class="st11" d="M-369.32,313.79l-0.6-0.28c-0.43-0.2-0.95-0.01-1.15,0.42c-0.2,0.43-0.02,0.95,0.42,1.15l0.6,0.28
				c0.44,0.2,0.95,0.02,1.15-0.42C-368.7,314.51-368.88,313.99-369.32,313.79z"/>
		</g>
		<g>
			<path class="st11" d="M-357.98,302.64c0.2,0.44,0.72,0.62,1.15,0.42l1.14-0.53c0.44-0.2,0.62-0.72,0.42-1.15
				c-0.2-0.43-0.72-0.62-1.15-0.42l-1.14,0.53C-358,301.69-358.19,302.2-357.98,302.64z"/>
		</g>
		<g>
			<path class="st11" d="M-367.07,306.87c0.2,0.44,0.72,0.62,1.15,0.42l1.14-0.53c0.43-0.2,0.62-0.72,0.42-1.15
				c-0.2-0.43-0.72-0.62-1.15-0.42l-1.14,0.53C-367.08,305.92-367.27,306.44-367.07,306.87z"/>
		</g>
		<g>
			<path class="st11" d="M-362.53,304.76c0.2,0.43,0.72,0.62,1.15,0.42l1.14-0.53c0.44-0.2,0.62-0.72,0.42-1.15
				c-0.2-0.43-0.72-0.62-1.15-0.42l-1.14,0.53C-362.54,303.81-362.73,304.32-362.53,304.76z"/>
		</g>
		<g>
			<path class="st11" d="M-369.92,309.16l0.6-0.28c0.43-0.2,0.62-0.72,0.42-1.15c-0.2-0.43-0.72-0.62-1.15-0.42l-0.6,0.28
				c-0.44,0.2-0.62,0.72-0.42,1.15C-370.88,309.18-370.36,309.37-369.92,309.16z"/>
		</g>
	</g>
	<g>
		<g>
			<path d="M-431.61,319.14h-1.63v-15.6h1.63c0.94,0,1.71,0.77,1.71,1.71v12.18C-429.9,318.37-430.67,319.14-431.61,319.14z"/>
		</g>
	</g>
	<g>
		<g>
			<path class="st6" d="M-395.48,351.39c-4.69,0-8.51-3.82-8.51-8.51v-37.93c0-1.01-0.82-1.84-1.84-1.84
				c-1.01,0-1.84,0.82-1.84,1.84v38.09c0,4.6-3.74,8.34-8.34,8.34c-4.6,0-8.34-3.74-8.34-8.34v-25.98c0-1.26-1.03-2.29-2.29-2.29
				h-3.27v-6.67h3.27c4.94,0,8.96,4.02,8.96,8.96v25.98c0,0.92,0.75,1.67,1.67,1.67c0.92,0,1.67-0.75,1.67-1.67v-38.09
				c0-4.69,3.82-8.51,8.51-8.51c4.69,0,8.51,3.82,8.51,8.51v37.93c0,1.01,0.82,1.84,1.83,1.84c1.01,0,1.83-0.82,1.83-1.84v-25.81
				c0-4.94,4.02-8.96,8.96-8.96h2.72v6.67h-2.72c-1.26,0-2.29,1.03-2.29,2.29v25.81C-386.97,347.57-390.79,351.39-395.48,351.39z"/>
		</g>
	</g>
	<g>
		<path d="M-372.3,316.47h-9.02c-0.36,0-0.65-0.29-0.65-0.65v-8.96c0-0.36,0.29-0.65,0.65-0.65h9.02c0.36,0,0.65,0.29,0.65,0.65
			v8.96C-371.65,316.18-371.94,316.47-372.3,316.47z"/>
	</g>
	<g>
		<path class="st7" d="M-382.27,311.34h-3.1c-2.72,0-4.92,2.2-4.92,4.92v27.43c0,2.72-2.2,4.92-4.92,4.92h-0.46
			c-2.72,0-4.92-2.2-4.92-4.92v-38.88c0-2.72-2.2-4.92-4.92-4.92h-0.56c-2.72,0-4.92,2.2-4.92,4.92v38.39c0,2.72-2.2,4.92-4.92,4.92
			h-0.08c-2.72,0-4.92-2.2-4.92-4.92v-26.95c0-2.72-2.2-4.92-4.92-4.92h-3.1c-0.33,0-0.65,0.04-0.96,0.1v3.35h3.27
			c1.26,0,2.29,1.03,2.29,2.29v25.98c0,2.76,1.36,5.18,3.43,6.71c1.38,1.02,3.07,1.64,4.92,1.64c1.89,0,3.61-0.65,5.01-1.71
			c2.01-1.52,3.34-3.92,3.34-6.63v-38.09c0-1.01,0.82-1.84,1.84-1.84c1.01,0,1.84,0.82,1.84,1.84v37.93c0,2.77,1.35,5.2,3.39,6.76
			c1.43,1.08,3.19,1.75,5.12,1.75c1.96,0,3.75-0.69,5.19-1.81c2.01-1.56,3.32-3.97,3.32-6.7v-25.81c0-1.26,1.03-2.29,2.29-2.29h2.72
			v-3.42C-382.07,311.36-382.16,311.34-382.27,311.34z"/>
	</g>
</g>
<g>
	<g>
		<g>
			<path d="M-187.25,114.66h-2.56v-2.17c0-9.25-7.53-16.78-16.78-16.78c-9.25,0-16.78,7.53-16.78,16.78v2.17h-2.56v-2.17
				c0-10.66,8.67-19.34,19.34-19.34c10.66,0,19.34,8.67,19.34,19.34V114.66z"/>
		</g>
	</g>
	<g>
		<path class="st0" d="M-206.33,155.58L-206.33,155.58l-0.05-0.03c-12.88-8.96-20.57-23.65-20.57-39.35v-1.55h40.72v1.91
			C-186.23,132.06-193.72,146.59-206.33,155.58L-206.33,155.58z"/>
	</g>
	<g>
		<path class="st7" d="M-191.34,110.37v4.28h5.11v-4.28c0-1.41-1.14-2.56-2.55-2.56l0,0C-190.19,107.82-191.34,108.96-191.34,110.37
			z"/>
	</g>
	<g>
		<path class="st7" d="M-226.94,110.37v4.28h5.11v-4.28c0-1.41-1.14-2.56-2.56-2.56l0,0C-225.8,107.82-226.94,108.96-226.94,110.37z
			"/>
	</g>
	<g>
		<path class="st1" d="M-206.33,155.58c12.61-8.99,20.1-23.53,20.1-39.02v-1.91h-20.32v40.77c0.06,0.04,0.11,0.09,0.17,0.13
			L-206.33,155.58z"/>
	</g>
	<g>
		<rect x="-226.94" y="114.63" width="40.72" height="1.33"/>
	</g>
	<g>
		<path class="st5" d="M-186.51,121.57h-40.13c0.05,0.44,0.11,0.89,0.18,1.33h39.79C-186.6,122.46-186.55,122.01-186.51,121.57z"/>
	</g>
	<g>
		<path class="st5" d="M-225.59,127.5h38.09c0.1-0.44,0.19-0.89,0.28-1.33h-38.66C-225.78,126.61-225.69,127.06-225.59,127.5z"/>
	</g>
</g>
<g>
	<g>
		<g>
			<path class="st1" d="M-300.54,23.49l-30.44,30.44c-1.21,1.21-1.21,3.17,0,4.38l0,0c1.21,1.21,3.17,1.21,4.38,0l30.44-30.44
				L-300.54,23.49z"/>
		</g>
		<g>
			<rect x="-304.4" y="24.45" transform="matrix(0.7071 0.7071 -0.7071 0.7071 -68.014 221.457)" width="6.19" height="8.36"/>
		</g>
		<g>
			<path class="st6" d="M-273.63,26.31l-0.17-0.17l-3.7-0.52c-4.18-0.58-8.06-2.52-11.05-5.5l-8.28-8.28l-8.89-5.55l4.95,9.5
				l-2.68,2.68c-0.7,0.7-0.7,1.83,0,2.53l7.01,7.01c2.99,2.99,4.92,6.87,5.5,11.05l0.52,3.7l0.17,0.17
				c3.99-0.53,7.92-2.39,11.07-5.54C-276.02,34.22-274.16,30.29-273.63,26.31z"/>
		</g>
		<g>
			<path class="st7" d="M-303.45,20.99l7.01,7.01c2.99,2.99,4.92,6.87,5.5,11.05l0.51,3.7l0.17,0.17c3.99-0.53,7.92-2.39,11.07-5.54
				l-21.6-21.6l-2.68,2.68C-304.15,19.16-304.15,20.29-303.45,20.99z"/>
		</g>
		<g class="st4">
			<path d="M-273.63,26.31l-0.17-0.17l-3.7-0.52c-0.08-0.01-0.16-0.04-0.24-0.05c-0.88,3.01-2.52,5.89-4.94,8.31
				c-2.42,2.42-5.3,4.06-8.31,4.94c0.01,0.08,0.04,0.16,0.05,0.24l0.51,3.7l0.17,0.17c3.99-0.53,7.92-2.39,11.07-5.54
				C-276.02,34.22-274.16,30.29-273.63,26.31z"/>
		</g>
	</g>
	<g>
		<g>
			<path class="st1" d="M-318.29,23.49l30.44,30.44c1.21,1.21,1.21,3.17,0,4.38l0,0c-1.21,1.21-3.17,1.21-4.38,0l-30.44-30.44
				L-318.29,23.49z"/>
		</g>
		<g>
			
				<rect x="-320.62" y="24.45" transform="matrix(-0.7071 0.7071 -0.7071 -0.7071 -521.7903 273.4199)" width="6.19" height="8.36"/>
		</g>
		<g>
			<path class="st6" d="M-331.67,21.28c0.21-0.21,0.45-0.39,0.68-0.56l-6.51-12.05l12.18,6.58l7.01,8.24l-4.35,4.35l-0.03,0.03
				l-2.04-1.73l-0.14-0.12c-1.41-1.41-3.68-1.41-5.09,0c-1.41,1.41-1.41,3.69,0,5.09l-1.72-1.72
				C-333.91,27.15-333.91,23.52-331.67,21.28z"/>
		</g>
		<g>
			<path class="st7" d="M-324.85,26.02c-1.41-1.41-3.68-1.41-5.09,0c-1.41,1.41-1.41,3.69,0,5.09l-1.72-1.72
				c-2.24-2.24-2.24-5.87,0-8.1c0.21-0.21,0.45-0.39,0.68-0.56l-6.51-12.05l0.27,0.14l16.8,16.8l-2.22,2.22l-0.03,0.03l-2.04-1.73
				L-324.85,26.02z"/>
		</g>
	</g>
</g>
<g>
	<g>
		<path class="st6" d="M-311.43,208.61c-1.76,0-3.19-1.43-3.19-3.19v-7.06c0-1.54-1.25-2.8-2.8-2.8l0,0c-1.54,0-2.79,1.25-2.79,2.8
			v53.57c0,1.58,1.28,2.87,2.87,2.87h24.18c1.58,0,2.87-1.28,2.87-2.87v-40.45c0-1.58-1.28-2.87-2.87-2.87H-311.43z"/>
	</g>
	<g>
		<rect x="-315.18" y="213.67" class="st5" width="19.85" height="11.9"/>
	</g>
	<g>
		<path class="st7" d="M-295.96,250.13h-18.6c-0.35,0-0.63-0.28-0.63-0.63v-1.55c0-0.35,0.28-0.63,0.63-0.63h18.6
			c0.35,0,0.63,0.28,0.63,0.63v1.55C-295.33,249.85-295.61,250.13-295.96,250.13z"/>
	</g>
	<g>
		<path class="st7" d="M-310.11,236.15h-4.55c-0.29,0-0.52-0.23-0.52-0.52v-4.55c0-0.29,0.23-0.52,0.52-0.52h4.55
			c0.29,0,0.52,0.23,0.52,0.52v4.55C-309.59,235.92-309.82,236.15-310.11,236.15z"/>
	</g>
	<g>
		<path class="st7" d="M-302.8,236.15h-4.55c-0.29,0-0.52-0.23-0.52-0.52v-4.55c0-0.29,0.23-0.52,0.52-0.52h4.55
			c0.29,0,0.52,0.23,0.52,0.52v4.55C-302.28,235.92-302.51,236.15-302.8,236.15z"/>
	</g>
	<g>
		<path class="st1" d="M-295.49,236.15h-4.55c-0.29,0-0.52-0.23-0.52-0.52v-4.55c0-0.29,0.23-0.52,0.52-0.52h4.55
			c0.29,0,0.52,0.23,0.52,0.52v4.55C-294.97,235.92-295.2,236.15-295.49,236.15z"/>
	</g>
	<g>
		<path class="st7" d="M-310.02,243.32h-4.55c-0.29,0-0.52-0.23-0.52-0.52v-4.55c0-0.29,0.23-0.52,0.52-0.52h4.55
			c0.29,0,0.52,0.23,0.52,0.52v4.55C-309.5,243.09-309.73,243.32-310.02,243.32z"/>
	</g>
	<g>
		<path class="st7" d="M-302.71,243.32h-4.55c-0.29,0-0.52-0.23-0.52-0.52v-4.55c0-0.29,0.23-0.52,0.52-0.52h4.55
			c0.29,0,0.52,0.23,0.52,0.52v4.55C-302.19,243.09-302.42,243.32-302.71,243.32z"/>
	</g>
	<g>
		<path class="st7" d="M-295.4,243.32h-4.55c-0.29,0-0.52-0.23-0.52-0.52v-4.55c0-0.29,0.23-0.52,0.52-0.52h4.55
			c0.29,0,0.52,0.23,0.52,0.52v4.55C-294.87,243.09-295.11,243.32-295.4,243.32z"/>
	</g>
	<g>
		<path class="st1" d="M-314.62,198.36c0-1.54-1.25-2.8-2.8-2.8c-1.54,0-2.79,1.25-2.79,2.8v2.8h5.59V198.36z"/>
	</g>
	<g>
		<g>
			<path class="st1" d="M-288.3,206.82c-0.41,0.28-0.52,0.83-0.24,1.24c0.39,0.57,0.59,1.24,0.59,1.94c0,0.55-0.12,1.07-0.37,1.55
				c-0.22,0.44-0.04,0.98,0.4,1.2c0.13,0.06,0.27,0.09,0.4,0.09c0.33,0,0.64-0.18,0.8-0.49c0.37-0.73,0.56-1.54,0.56-2.36
				c0-1.05-0.31-2.07-0.9-2.94C-287.33,206.65-287.89,206.55-288.3,206.82z"/>
		</g>
		<g>
			<path class="st1" d="M-279.39,201.88c-0.28-0.41-0.84-0.52-1.24-0.24c-0.41,0.28-0.52,0.83-0.24,1.24
				c1.42,2.1,2.18,4.57,2.18,7.12c0,2.27-0.6,4.5-1.75,6.44c-0.25,0.43-0.11,0.98,0.32,1.23c0.14,0.08,0.3,0.12,0.45,0.12
				c0.31,0,0.61-0.16,0.77-0.44c1.31-2.22,2-4.76,2-7.35C-276.9,207.09-277.76,204.28-279.39,201.88z"/>
		</g>
		<g>
			<path class="st1" d="M-284.21,204.49c-0.42,0.26-0.55,0.81-0.29,1.23c0.79,1.28,1.21,2.76,1.21,4.27c0,1.35-0.34,2.69-0.98,3.87
				c-0.24,0.43-0.08,0.98,0.36,1.21c0.14,0.07,0.28,0.11,0.43,0.11c0.32,0,0.63-0.17,0.79-0.47c0.78-1.44,1.2-3.08,1.2-4.73
				c0-1.85-0.51-3.65-1.48-5.22C-283.24,204.36-283.79,204.23-284.21,204.49z"/>
		</g>
	</g>
	<g class="st2">
		<rect x="-305.26" y="213.67" class="st7" width="9.92" height="11.9"/>
	</g>
</g>
<g>
	<g>
		<rect x="-528.49" y="295.81" class="st0" width="51.13" height="56.22"/>
	</g>
	<g>
		<rect x="-523.32" y="321.36" class="st7" width="41.02" height="25.54"/>
	</g>
	<g>
		<rect x="-515.74" y="331.12" width="25.84" height="5.11"/>
	</g>
	<g>
		<rect x="-523.38" y="300.92" class="st5" width="41.02" height="15.33"/>
	</g>
	<g>
		<path class="st1" d="M-508.78,333.67c0,3.29,2.67,5.96,5.96,5.96c3.29,0,5.96-2.67,5.96-5.96c0-3.29-2.67-5.96-5.96-5.96
			C-506.11,327.71-508.78,330.38-508.78,333.67z"/>
	</g>
	<g>
		<g>
			<path class="st1" d="M-514.39,304.6h5.2v1.77h-3.09v1.52h2.65v1.76h-2.65v2.92h-2.11V304.6z"/>
		</g>
		<g>
			<path class="st1" d="M-507.81,304.6h2.11v7.97h-2.11V304.6z"/>
		</g>
		<g>
			<path class="st1" d="M-499.64,312.57l-1.37-2.67h-0.81v2.67h-2.11v-7.97h3.02c1.72,0,3.19,0.59,3.19,2.57
				c0,1.14-0.52,1.89-1.29,2.3l1.73,3.09H-499.64z M-501.83,308.23h0.76c0.83,0,1.27-0.37,1.27-1.05c0-0.69-0.44-0.91-1.27-0.91
				h-0.76V308.23z"/>
		</g>
		<g>
			<path class="st1" d="M-496.21,304.6h5.15v1.77h-3.04v1.25h2.6v1.77h-2.6v1.42h3.16v1.76h-5.27V304.6z"/>
		</g>
	</g>
</g>
<g>
	<g>
		<path class="st6" d="M-206.61,344.97L-206.61,344.97c-11.55,0-20.91-9.36-20.91-20.91v-27.54c0-1.69,1.37-3.06,3.06-3.06h35.7
			c1.69,0,3.06,1.37,3.06,3.06v27.54C-185.7,335.61-195.06,344.97-206.61,344.97z"/>
	</g>
	<g>
		<path class="st5" d="M-191.92,319.55h-29.39c-0.4,0-0.72-0.32-0.72-0.72v-19.04c0-0.4,0.32-0.72,0.72-0.72h29.39
			c0.4,0,0.72,0.32,0.72,0.72v19.04C-191.2,319.23-191.53,319.55-191.92,319.55z"/>
	</g>
	<g>
		<rect x="-223.01" y="335.57" transform="matrix(0.7071 -0.7071 0.7071 0.7071 -303.1835 -54.9478)" width="10.18" height="5.87"/>
	</g>
	<g>
		<rect x="-231.77" y="347.41" transform="matrix(0.7071 -0.7071 0.7071 0.7071 -315.5673 -60.0773)" width="2.93" height="6.95"/>
	</g>
	<g>
		<path class="st1" d="M-225.35,353.76l-7.83-7.83c-0.26-0.26-0.26-0.69,0-0.96l6.79-6.79c0.26-0.26,0.69-0.26,0.96,0l7.83,7.83
			c0.26,0.26,0.26,0.69,0,0.96l-6.79,6.79C-224.66,354.03-225.09,354.03-225.35,353.76z"/>
	</g>
	<g>
		<rect x="-198.19" y="333.11" transform="matrix(0.7071 -0.7071 0.7071 0.7071 -296.3329 -39.0055)" width="5.87" height="10.18"/>
	</g>
	<g>
		<rect x="-186.34" y="349.12" transform="matrix(0.7071 -0.7071 0.7071 0.7071 -301.4625 -26.6219)" width="6.95" height="2.94"/>
	</g>
	<g>
		<path class="st1" d="M-187.82,353.46l7.83-7.83c0.26-0.26,0.26-0.69,0-0.96l-6.79-6.79c-0.26-0.26-0.69-0.26-0.96,0l-7.83,7.83
			c-0.26,0.26-0.26,0.69,0,0.96l6.79,6.79C-188.51,353.73-188.08,353.73-187.82,353.46z"/>
	</g>
	<g>
		<path class="st7" d="M-196.8,333.79c0,5.42-4.39,9.81-9.81,9.81c-5.42,0-9.81-4.39-9.81-9.81s4.39-9.81,9.81-9.81
			C-201.2,323.99-196.8,328.38-196.8,333.79z"/>
	</g>
	<g>
		<path d="M-199.76,333.79c0,3.79-3.07,6.85-6.85,6.85s-6.85-3.07-6.85-6.85c0-3.79,3.07-6.85,6.85-6.85
			S-199.76,330.01-199.76,333.79z"/>
	</g>
	<g>
		<path class="st5" d="M-202.53,333.79c0,2.26-1.83,4.08-4.08,4.08c-2.26,0-4.09-1.83-4.09-4.08c0-2.26,1.83-4.08,4.09-4.08
			C-204.36,329.71-202.53,331.54-202.53,333.79z"/>
	</g>
	<g class="st2">
		<path class="st7" d="M-191.2,318.69v-18.76c0-0.47-0.38-0.85-0.85-0.85h-14.56v20.47h14.56
			C-191.59,319.55-191.2,319.16-191.2,318.69z"/>
	</g>
	<g>
		<path class="st5" d="M-198.91,301.24v1.53h3.44c0.3,0,0.54,0.24,0.54,0.54v12.83h1.53v-13.78c0-0.62-0.5-1.11-1.11-1.11H-198.91z"
			/>
	</g>
</g>
<g>
	<g>
		<g>
			<path class="st0" d="M-281.92,125.15L-281.92,125.15c-0.99-5.44-2.91-10.67-5.68-15.45l-1.84-3.18l-3.58,5.01l0,0
				c-2.06-5.48-5.17-10.5-9.14-14.8l-3.4-3.68l-3.9,4.38c-3.41,3.84-6.15,8.23-8.09,12.98l-0.45,1.11l-3.69-5.01l-2.12,3.76
				c-2.44,4.33-4.19,9.01-5.19,13.88l-0.2,0.99l-2.5-5.01l-0.22,0.83c-3.52,13.22,2.9,27.44,15.57,32.6c3.33,1.36,6.98,2.1,10.8,2.1
				l0,0c3.83,0,7.48-0.75,10.82-2.11c12.66-5.16,19.07-19.39,15.55-32.59l-0.22-0.83L-281.92,125.15z"/>
		</g>
		<g>
			<path class="st12" d="M-287.71,130.12L-287.71,130.12c-0.75-4.11-2.2-8.06-4.29-11.67l-1.39-2.4l-2.7,3.78l0,0
				c-1.56-4.14-3.9-7.93-6.9-11.17l-2.57-2.78l-2.94,3.31c-2.58,2.9-4.64,6.21-6.11,9.81l-0.34,0.84l-2.79-3.78l-1.6,2.84
				c-1.84,3.27-3.17,6.81-3.92,10.48l-0.15,0.75l-1.89-3.78l-0.17,0.63c-2.66,9.98,2.19,20.72,11.76,24.62
				c2.52,1.02,5.27,1.59,8.16,1.59l0,0c2.89,0,5.65-0.57,8.17-1.6c9.56-3.9,14.4-14.64,11.74-24.62l-0.17-0.63L-287.71,130.12z"/>
		</g>
		<g>
			<path class="st13" d="M-302.95,124.73l-2.57-2.78l-2.94,3.31c-0.79,0.89-1.57,1.87-2.31,2.91c-2.75,3.84-4.14,8.5-4.15,13.22l0,0
				c-0.02,5.18,4.18,9.4,9.37,9.4l0,0c5.17,0,9.37-4.19,9.37-9.36v-0.23c0-4.61-1.27-9.19-3.92-12.96
				C-300.98,127.01-301.92,125.84-302.95,124.73z"/>
		</g>
		<g>
			<path class="st1" d="M-294.74,153.56c12.66-5.16,19.07-19.39,15.55-32.59l-0.22-0.83l-2.5,5.01c-0.99-5.44-2.91-10.67-5.68-15.45
				l-1.84-3.18l-3.58,5.01c-2.06-5.48-5.17-10.5-9.14-14.8l-3.4-3.68l0,0v12.83l0,0l2.57,2.78c3,3.24,5.35,7.04,6.9,11.17l2.7-3.78
				l1.39,2.4c2.09,3.61,3.54,7.56,4.29,11.67l1.89-3.78l0.17,0.63c2.66,9.97-2.18,20.71-11.74,24.61c-2.52,1.03-5.28,1.6-8.17,1.6
				l0,0v2.5l0,0C-301.73,155.68-298.08,154.93-294.74,153.56z"/>
		</g>
		<g class="st10">
			<path class="st1" d="M-305.51,121.96l2.57,2.78c1.02,1.11,1.97,2.28,2.83,3.5c2.65,3.77,3.92,8.35,3.92,12.96v0.23
				c0,5.17-4.19,9.36-9.37,9.36v2.38l0,0c2.89,0,5.65-0.57,8.17-1.6c9.56-3.9,14.4-14.64,11.74-24.61l-0.17-0.63l-1.89,3.78
				c-0.75-4.11-2.2-8.06-4.29-11.67l-1.39-2.4l-2.7,3.78c-1.56-4.14-3.9-7.93-6.9-11.17l-2.57-2.78l0,0v16.13L-305.51,121.96z"/>
		</g>
		<g>
			<path class="st1" d="M-296.19,141.43v-0.23c0-4.61-1.27-9.19-3.92-12.96c-0.86-1.23-1.81-2.4-2.83-3.5l-2.57-2.78l-0.04,0.05
				v28.79C-300.39,150.79-296.19,146.6-296.19,141.43z"/>
		</g>
		<g>
			<path class="st13" d="M-292.95,120.97l-0.63-0.68l-0.72,0.81c-0.2,0.22-0.39,0.46-0.57,0.71c-0.67,0.94-1.01,2.08-1.02,3.24l0,0
				c0,1.27,1.02,2.3,2.29,2.3l0,0c1.27,0,2.29-1.03,2.29-2.29V125c0-1.13-0.31-2.25-0.96-3.17
				C-292.46,121.53-292.7,121.24-292.95,120.97z"/>
		</g>
		<g>
			<path class="st13" d="M-318.04,129.3l-0.63-0.68l-0.72,0.81c-0.19,0.22-0.39,0.46-0.57,0.71c-0.67,0.94-1.01,2.08-1.02,3.24l0,0
				c0,1.27,1.02,2.3,2.29,2.3l0,0c1.27,0,2.29-1.03,2.29-2.29v-0.06c0-1.13-0.31-2.25-0.96-3.17
				C-317.55,129.85-317.79,129.57-318.04,129.3z"/>
		</g>
		<g>
			<path class="st12" d="M-304.78,97.24l-0.77-0.83l-0.88,0.99c-0.24,0.27-0.47,0.56-0.69,0.87c-0.82,1.15-1.24,2.54-1.24,3.96l0,0
				c0,1.55,1.25,2.81,2.8,2.81l0,0c1.55,0,2.8-1.25,2.8-2.8v-0.07c0-1.38-0.38-2.75-1.17-3.88
				C-304.19,97.92-304.47,97.57-304.78,97.24z"/>
		</g>
	</g>
	<g>
		<polygon points="-279.57,105.91 -284.58,100.9 -305.56,121.88 -326.54,100.9 -331.55,105.91 -310.57,126.89 -331.55,147.88 
			-326.54,152.89 -305.56,131.9 -284.58,152.89 -279.57,147.87 -300.55,126.89 		"/>
	</g>
</g>
<g>
	<g>
		<g>
			<polygon class="st7" points="30.03,0 0,22.87 60.07,22.87 			"/>
		</g>
		<g>
			<rect x="5.4" y="22.87" class="st5" width="49.27" height="37.09"/>
		</g>
		<g class="st2">
			<rect x="30.03" y="22.36" class="st7" width="24.64" height="37.6"/>
		</g>
		<g>
			<g>
				<rect x="3.18" y="59.96" class="st7" width="53.7" height="5.54"/>
			</g>
		</g>
		<g>
			<rect x="30.03" y="59.96" width="26.85" height="5.54"/>
		</g>
		<g>
			<rect x="20.53" y="28.07" width="18.36" height="31.89"/>
		</g>
	</g>
	<g>
		<polygon points="30.03,0 29.71,0.28 29.71,22.87 60.07,22.87 		"/>
	</g>
	<g>
		<g>
			<path class="st0" d="M42.23,43.34L42.23,43.34c-0.51-2.81-1.5-5.5-2.93-7.97l-0.95-1.64l-1.85,2.58l0,0
				c-1.06-2.82-2.67-5.42-4.72-7.63l-1.76-1.9l-2.01,2.26c-1.76,1.98-3.17,4.24-4.17,6.7l-0.23,0.57l-1.9-2.58l-1.09,1.94
				c-1.26,2.23-2.16,4.65-2.68,7.16l-0.1,0.51l-1.29-2.58l-0.11,0.43c-1.82,6.82,1.5,14.15,8.03,16.82c1.72,0.7,3.6,1.09,5.57,1.09
				l0,0c1.97,0,3.86-0.39,5.58-1.09c6.53-2.66,9.84-10,8.02-16.81l-0.11-0.43L42.23,43.34z"/>
		</g>
		<g>
			<path class="st12" d="M39.24,45.91L39.24,45.91c-0.38-2.12-1.13-4.15-2.21-6.02l-0.72-1.24l-1.39,1.95l0,0
				c-0.8-2.13-2.01-4.09-3.56-5.76l-1.33-1.43l-1.52,1.71c-1.33,1.5-2.39,3.21-3.15,5.06l-0.18,0.43l-1.44-1.95l-0.83,1.46
				c-0.95,1.69-1.63,3.51-2.02,5.41l-0.08,0.39l-0.98-1.95l-0.09,0.32c-1.37,5.15,1.13,10.69,6.06,12.7
				c1.3,0.53,2.72,0.82,4.21,0.82l0,0c1.49,0,2.91-0.29,4.21-0.82c4.93-2.01,7.43-7.55,6.06-12.7l-0.09-0.32L39.24,45.91z"/>
		</g>
		<g>
			<path class="st13" d="M31.38,43.13l-1.33-1.43l-1.52,1.71c-0.41,0.46-0.81,0.97-1.19,1.5c-1.42,1.98-2.13,4.38-2.14,6.82l0,0
				c-0.01,2.67,2.16,4.85,4.83,4.85l0,0c2.67,0,4.83-2.16,4.83-4.83v-0.12c0-2.38-0.65-4.74-2.02-6.68
				C32.4,44.3,31.91,43.7,31.38,43.13z"/>
		</g>
		<g>
			<path class="st1" d="M35.61,58c6.53-2.66,9.84-10,8.02-16.81l-0.11-0.43l-1.29,2.58c-0.51-2.81-1.5-5.5-2.93-7.97l-0.95-1.64
				l-1.85,2.58c-1.06-2.82-2.67-5.42-4.72-7.63l-1.76-1.9l0,0v6.62l0,0l1.33,1.43c1.55,1.67,2.76,3.63,3.56,5.76l1.39-1.95
				l0.72,1.24c1.08,1.86,1.83,3.9,2.21,6.02l0.98-1.95l0.09,0.32c1.37,5.15-1.13,10.68-6.06,12.7c-1.3,0.53-2.72,0.82-4.21,0.82l0,0
				v1.29l0,0C32.01,59.09,33.89,58.7,35.61,58z"/>
		</g>
		<g class="st10">
			<path class="st1" d="M30.06,41.7l1.33,1.43c0.53,0.57,1.02,1.17,1.46,1.81c1.37,1.95,2.02,4.31,2.02,6.68v0.12
				c0,2.67-2.16,4.83-4.83,4.83v1.23l0,0c1.49,0,2.91-0.29,4.21-0.82c4.93-2.01,7.43-7.55,6.06-12.7l-0.09-0.32l-0.98,1.95
				c-0.38-2.12-1.13-4.15-2.21-6.02l-0.72-1.24l-1.39,1.95c-0.8-2.13-2.01-4.09-3.56-5.76l-1.33-1.43l0,0v8.32L30.06,41.7z"/>
		</g>
		<g>
			<path class="st1" d="M34.86,51.74v-0.12c0-2.38-0.65-4.74-2.02-6.68c-0.45-0.63-0.93-1.24-1.46-1.81l-1.33-1.43l-0.02,0.03v14.85
				C32.7,56.57,34.86,54.41,34.86,51.74z"/>
		</g>
		<g>
			<path class="st13" d="M36.54,41.19l-0.32-0.35l-0.37,0.42c-0.1,0.11-0.2,0.24-0.29,0.37c-0.35,0.49-0.52,1.07-0.52,1.67l0,0
				c0,0.66,0.53,1.19,1.18,1.19l0,0c0.65,0,1.18-0.53,1.18-1.18v-0.03c0-0.58-0.16-1.16-0.5-1.64
				C36.79,41.48,36.67,41.33,36.54,41.19z"/>
		</g>
		<g>
			<path class="st13" d="M23.6,45.48l-0.32-0.35l-0.37,0.42c-0.1,0.11-0.2,0.24-0.29,0.37c-0.35,0.49-0.52,1.07-0.52,1.67l0,0
				c0,0.66,0.53,1.19,1.18,1.19l0,0c0.65,0,1.18-0.53,1.18-1.18v-0.03c0-0.58-0.16-1.16-0.5-1.64
				C23.85,45.77,23.73,45.62,23.6,45.48z"/>
		</g>
		<g>
			<path class="st12" d="M30.44,28.95l-0.4-0.43l-0.45,0.51c-0.12,0.14-0.24,0.29-0.36,0.45c-0.42,0.59-0.64,1.31-0.64,2.04l0,0
				c0,0.8,0.65,1.45,1.45,1.45l0,0c0.8,0,1.45-0.65,1.45-1.45v-0.04c0-0.71-0.2-1.42-0.61-2C30.74,29.3,30.59,29.12,30.44,28.95z"/>
		</g>
	</g>
</g>
<g>
	<path d="M-192.67,236.65l-5.22-5.06h-15.45l-2.73,2.64l-9.18-8.51l-1.65,1.78l9.08,8.42l-0.75,0.72c-0.43,0.42-0.68,1-0.68,1.6
		v16.3c0,1.43,1.16,2.59,2.59,2.59h22.07c1.43,0,2.59-1.16,2.59-2.59v-16.3C-191.99,237.64-192.23,237.07-192.67,236.65z"/>
	
		<ellipse transform="matrix(0.2278 -0.9737 0.9737 0.2278 -366.7531 -35.2683)" class="st0" cx="-205.61" cy="213.59" rx="20.37" ry="20.37"/>
	<path class="st1" d="M-209.2,250.44c0,1.07-0.87,1.95-1.95,1.95c-1.07,0-1.95-0.87-1.95-1.95c0-1.08,0.87-1.95,1.95-1.95
		C-210.07,248.49-209.2,249.36-209.2,250.44z"/>
	<circle class="st1" cx="-225.98" cy="226.44" r="1.95"/>
	<path class="st1" d="M-198.13,250.44c0,1.07-0.87,1.95-1.95,1.95c-1.08,0-1.95-0.87-1.95-1.95c0-1.08,0.87-1.95,1.95-1.95
		C-199,248.49-198.13,249.36-198.13,250.44z"/>
	<path class="st1" d="M-203.67,250.44c0,1.07-0.87,1.95-1.95,1.95c-1.08,0-1.95-0.87-1.95-1.95c0-1.08,0.87-1.95,1.95-1.95
		C-204.54,248.49-203.67,249.36-203.67,250.44z"/>
	<rect x="-213.09" y="242.9" class="st1" width="14.96" height="2.13"/>
	<path class="st1" d="M-185.24,213.59c0-11.25-9.12-20.37-20.37-20.37v40.75C-194.36,233.96-185.24,224.84-185.24,213.59z"/>
	<path class="st5" d="M-202.27,213.83c0,1.85-1.5,3.34-3.34,3.34c-1.85,0-3.34-1.5-3.34-3.34c0-1.85,1.5-3.34,3.34-3.34
		C-203.76,210.48-202.27,211.98-202.27,213.83z"/>
</g>
<g>
	<g>
		<path class="st0" d="M-379.75,236.02h-48.13v-4.68c0-13.29,10.77-24.07,24.07-24.07l0,0c13.29,0,24.06,10.78,24.06,24.07V236.02z"
			/>
	</g>
	<g>
		<g>
			<path class="st7" d="M-365.9,245.31h-10.95c-4.69,0-9.66-0.9-14.75-2.69c-2.93-1.03-5.99-1.55-9.1-1.55h-6.22
				c-3.11,0-6.17,0.52-9.1,1.55c-5.09,1.79-10.06,2.69-14.75,2.69h-10.96v-1.94h10.96c4.48,0,9.22-0.87,14.11-2.58
				c3.14-1.1,6.42-1.66,9.74-1.66h6.22c3.33,0,6.61,0.56,9.74,1.66c4.89,1.71,9.63,2.58,14.11,2.58h10.95V245.31z"/>
		</g>
	</g>
	<g class="st4">
		<path d="M-379.65,231.14c0-11.82-8.54-21.64-19.78-23.66v9.61l2.92,0.75v6.21c0,3.18-1.6,6.15-4.26,7.89l-3.06,2.01l-0.1-0.06
			v1.94h24.27V231.14z"/>
	</g>
	<g>
		<path class="st0" d="M-427.88,236.02l-13.85,7.35h11.05c4.93,0,9.78-1,14.43-2.63c2.95-1.03,6.12-1.6,9.42-1.6h2.9v-3.12H-427.88z
			"/>
	</g>
	<g>
		<path class="st1" d="M-391.19,240.74c4.65,1.63,9.5,2.63,14.43,2.63h10.86l-13.85-7.35h-24.18v3.12h3.31
			C-397.31,239.14-394.14,239.7-391.19,240.74z"/>
	</g>
	<g class="st4">
		<rect x="-427.88" y="232.26" width="23.86" height="3.76"/>
	</g>
	<g>
		<path class="st5" d="M-399.52,217.29v-12.25h-8.58v12.2l-3.14,0.81v6.21c0,3.18,1.6,6.15,4.26,7.89l3.06,2.01l3.06-2.01
			c2.66-1.74,4.26-4.71,4.26-7.89v-6.21L-399.52,217.29z"/>
	</g>
	<g>
		<path class="st0" d="M-401.65,230.12l-2.27,1.49l-2.27-1.49c-1.98-1.29-3.17-3.5-3.17-5.86v-4.61l5.44-1.39l5.44,1.39v4.61
			C-398.49,226.62-399.68,228.82-401.65,230.12z"/>
	</g>
	<g class="st2">
		<path class="st7" d="M-399.52,217.29v-9.61v-2.64h-4.5v2.25v10.99l0.1-0.02l5.44,1.39v4.61c0,2.36-1.19,4.57-3.17,5.86l-2.27,1.49
			l-0.1-0.06v2.54l0.1,0.06l3.06-2.01c2.66-1.74,4.26-4.71,4.26-7.89v-6.21L-399.52,217.29z"/>
	</g>
	<g>
		<path class="st1" d="M-401.65,230.12c1.98-1.29,3.17-3.5,3.17-5.86v-4.61l-5.44-1.39l-0.1,0.02v13.27l0.1,0.06L-401.65,230.12z"/>
	</g>
</g>
<g>
	<g>
		<path class="st1" d="M-380.15,19.37c-0.82-0.82-2.15-0.82-2.97,0l-11.94,11.94l-0.6-0.6l14.89-14.89c1.02-1.02,1.02-2.67,0-3.68
			c-1.02-1.02-2.67-1.02-3.68,0l-14.89,14.89l-0.5-0.5l16.15-16.15c1.02-1.02,1.02-2.67,0-3.68c-1.02-1.02-2.67-1.02-3.68,0
			l-16.15,16.15l-0.53-0.53l14.84-14.84c1.02-1.02,1.02-2.67,0-3.68c-1.02-1.02-2.67-1.02-3.68,0l-17.36,17.36l-0.95-0.95l9.75-9.75
			c1.11-1.11,1.39-2.91,0.46-4.19c-1.17-1.63-3.46-1.77-4.82-0.41l-14.32,14.32c-1.23,1.23-2.06,2.78-2.41,4.48l-2.88,9.14
			l-10.5,10.5l14.42,14.42l10.5-10.5l0,0c5.81-2.53,12.36-7.39,16.85-11.88l2.03-2.03l0.05-0.05l11.94-11.94
			C-379.33,21.51-379.33,20.19-380.15,19.37z"/>
	</g>
	<path class="st0" d="M-371.78,22.52c-0.82-0.82-2.15-0.82-2.97,0l-11.94,11.94l-0.6-0.6l14.89-14.89c1.02-1.02,1.02-2.67,0-3.68
		s-2.67-1.02-3.68,0l-14.89,14.89l-0.5-0.5l16.15-16.15c1.02-1.02,1.02-2.67,0-3.68c-1.02-1.02-2.67-1.02-3.68,0L-395.15,26
		l-0.53-0.53l14.84-14.84c1.02-1.02,1.02-2.67,0-3.68c-1.02-1.02-2.67-1.02-3.68,0l-17.37,17.37l-0.95-0.95l9.75-9.75
		c1.11-1.11,1.39-2.91,0.46-4.19c-1.17-1.63-3.46-1.77-4.82-0.41l-14.32,14.32c-1.23,1.23-2.07,2.78-2.41,4.48l-2.88,9.14
		l-10.5,10.5l14.42,14.42l10.5-10.5l0,0c5.81-2.53,12.36-7.39,16.85-11.88l2.03-2.03l0.05-0.05l11.94-11.94
		C-370.96,24.66-370.96,23.34-371.78,22.52z"/>
	<rect x="-437.74" y="46.84" transform="matrix(0.7071 0.7071 -0.7071 0.7071 -89.9154 316.2782)" width="22.01" height="5.52"/>
	<path class="st5" d="M-414.7,29.45l-0.93,2.97l16.94,16.94c0.81-0.46,1.62-0.95,2.43-1.47L-414.7,29.45z"/>
	<path class="st5" d="M-389.19,42.62l-20.93-20.93l-1.65,1.65c-0.1,0.1-0.18,0.22-0.28,0.32l20.71,20.71
		C-390.6,43.8-389.89,43.22-389.19,42.62z"/>
	<path d="M-393.12,45.72l-20.23-20.23c-0.26,0.5-0.46,1.02-0.62,1.56l19.58,19.58C-393.96,46.33-393.54,46.03-393.12,45.72z"/>
	
		<rect x="-429.4" y="49.97" transform="matrix(0.7071 0.7071 -0.7071 0.7071 -85.2568 311.2837)" class="st7" width="22.01" height="5.52"/>
</g>
<g>
	<g>
		<path class="st1" d="M-487.81,196.04l-21.7,24.75l4.43,3.89l21.7-24.75c1.07-1.22,0.95-3.09-0.27-4.16l0,0
			C-484.87,194.69-486.73,194.81-487.81,196.04z"/>
		<rect x="-513.14" y="221.66" transform="matrix(0.7519 0.6592 -0.6592 0.7519 22.4484 392.4179)" width="5.9" height="8.75"/>
		<path class="st6" d="M-530.09,254.13l-3.42-1.51l-1.94-3.2c-3.15-5.18-2.57-11.81,1.43-16.38l10.95-12.49l19.99,17.53
			l-10.95,12.49C-518.04,255.14-524.53,256.58-530.09,254.13z"/>
		<path class="st7" d="M-515.3,227.38l-9.87,11.26c-1.19,1.36-1.81,3.12-1.73,4.95l0.01,0.3c0.03,0.61,0.56,1.08,1.17,1.02l0.3-0.03
			c1.82-0.16,3.49-1,4.68-2.36l9.87-11.26L-515.3,227.38z"/>
		
			<rect x="-528.27" y="228.98" transform="matrix(0.7519 0.6593 -0.6593 0.7519 24.3524 396.0345)" class="st7" width="28.55" height="2.78"/>
		<path class="st4" d="M-514.01,250.55l10.92-12.46l-9.99-8.76l-20.43,23.3l3.38,1.49C-524.55,256.57-518.03,255.13-514.01,250.55z"
			/>
	</g>
	<g>
		<rect x="-508.93" y="252.33" class="st1" width="40.56" height="2.98"/>
		<path class="st1" d="M-490.38,207.65l-11.09,44.69h25.63l-11.09-44.69C-487.46,205.96-489.85,205.96-490.38,207.65z"/>
		<polygon class="st5" points="-500.01,246.45 -477.3,246.45 -478.71,240.74 -498.59,240.74 		"/>
		<polygon class="st5" points="-497.16,234.95 -480.15,234.95 -481.57,229.24 -495.74,229.24 		"/>
		<polygon class="st5" points="-484.42,217.75 -492.89,217.75 -494.3,223.45 -483,223.45 		"/>
	</g>
</g>
<g>
	<g>
		<path class="st0" d="M-198.22,42.37c-2.24,1.95-5.16,3.14-8.37,3.14c-3.2,0-6.13-1.19-8.37-3.14L-226.9,55.8
			c-0.52,0.59-0.2,1.53,0.58,1.66l4.94,0.84c1.26,0.21,2.48,0.61,3.62,1.2c3.44,1.76,7.21,3.65,11.17,3.65s7.74-1.89,11.17-3.65
			c1.14-0.58,2.36-0.98,3.62-1.2l4.94-0.84c0.78-0.13,1.11-1.07,0.58-1.66L-198.22,42.37z"/>
		<path class="st0" d="M-190.25,8.34c-2.41,0-4.76-0.68-6.8-1.98c-2.99-1.9-6.19-4.01-9.54-4.01s-6.55,2.1-9.54,4.01
			c-2.03,1.29-4.39,1.98-6.8,1.98h-2.95c-0.87,0-1.33,1.02-0.75,1.67l11.67,13.11c2.24-1.95,5.16-3.14,8.37-3.14
			c3.21,0,6.13,1.19,8.37,3.14l11.67-13.11c0.58-0.65,0.12-1.67-0.75-1.67H-190.25z"/>
		<path class="st0" d="M-181.04,17.95l-0.84-4.94c-0.13-0.78-1.07-1.11-1.66-0.58l-13.43,11.95c1.95,2.24,3.14,5.16,3.14,8.37
			c0,3.2-1.19,6.13-3.14,8.37l13.43,11.95c0.59,0.52,1.52,0.2,1.66-0.58l0.84-4.94c0.21-1.26,0.61-2.48,1.2-3.62
			c1.76-3.44,3.65-7.21,3.65-11.17s-1.89-7.74-3.65-11.17C-180.42,20.43-180.83,19.21-181.04,17.95z"/>
		<path class="st0" d="M-216.21,24.38l-13.11-11.67c-0.65-0.58-1.67-0.12-1.67,0.75v2.95c0,2.41-0.68,4.76-1.98,6.8
			c-1.9,2.99-4,6.19-4,9.54c0,3.35,2.1,6.55,4,9.54c1.29,2.03,1.98,4.39,1.98,6.8v2.95c0,0.87,1.02,1.33,1.67,0.75l13.11-11.67
			c-1.95-2.24-3.14-5.16-3.14-8.37C-219.35,29.54-218.16,26.62-216.21,24.38z"/>
	</g>
	<path d="M-186.97,32.75c0,10.83-8.78,19.62-19.62,19.62c-10.83,0-19.62-8.78-19.62-19.62c0-10.83,8.78-19.62,19.62-19.62
		C-195.75,13.13-186.97,21.91-186.97,32.75z"/>
	<g>
		<path class="st1" d="M-206.59,49.79c-9.35,0-16.96-7.61-16.96-16.96c0-9.35,7.61-16.96,16.96-16.96s16.96,7.61,16.96,16.96
			C-189.63,42.18-197.24,49.79-206.59,49.79z M-206.59,18.41c-7.95,0-14.42,6.47-14.42,14.42c0,7.95,6.47,14.42,14.42,14.42
			c7.95,0,14.42-6.47,14.42-14.42C-192.17,24.88-198.64,18.41-206.59,18.41z"/>
	</g>
	<g>
		<path class="st5" d="M-206.59,47.25c-7.95,0-14.42-6.47-14.42-14.42c0-7.95,6.47-14.42,14.42-14.42s14.42,6.47,14.42,14.42
			C-192.17,40.78-198.63,47.25-206.59,47.25z M-206.59,19.85c-7.16,0-12.98,5.82-12.98,12.98c0,7.16,5.82,12.98,12.98,12.98
			s12.98-5.82,12.98-12.98C-193.6,25.67-199.43,19.85-206.59,19.85z"/>
	</g>
	<g>
		<path class="st5" d="M-195.25,30.84L-195.25,30.84l-0.05-0.05l-1.14-0.16c-1.3-0.18-2.5-0.78-3.42-1.7l-2.56-2.56l-2.75-1.72
			l1.53,2.94l-0.83,0.83c-0.22,0.22-0.22,0.57,0,0.78l0.84,0.84l-1.77,1.77l0,0l-0.92,0.92l-0.92-0.92l-1.83-1.83l-1.36,1.36
			l2.75,2.75l-5.32,5.32c-0.38,0.37-0.38,0.98,0,1.36c0.37,0.37,0.98,0.37,1.36,0l5.32-5.32l5.32,5.32c0.38,0.37,0.98,0.37,1.36,0
			c0.38-0.37,0.38-0.98,0-1.36l-5.32-5.32l0.92-0.92l1.77-1.77c0.91,0.92,1.5,2.11,1.68,3.4l0.16,1.14l0.05,0.05
			c0.31-0.04,0.62-0.11,0.92-0.2c0.91-0.28,1.78-0.78,2.51-1.52c0.66-0.66,1.13-1.44,1.42-2.25
			C-195.42,31.62-195.31,31.23-195.25,30.84L-195.25,30.84z"/>
		<path class="st5" d="M-215.02,25.38l2.01,3.73c-0.07,0.05-0.15,0.11-0.21,0.17c-0.69,0.69-0.69,1.82,0,2.51l0.53,0.53
			c-0.44-0.44-0.44-1.14,0-1.58c0.43-0.44,1.14-0.44,1.58,0l0.04,0.04l0.63,0.54l0.01-0.01l1.35-1.35l-2.17-2.55L-215.02,25.38z"/>
	</g>
</g>
</svg>
