<?xml version="1.0" encoding="utf-8"?>
<!-- Generator: Adobe Illustrator 25.3.0, SVG Export Plug-In . SVG Version: 6.00 Build 0)  -->
<svg version="1.1" id="Ñëîé_1" xmlns="http://www.w3.org/2000/svg" xmlns:xlink="http://www.w3.org/1999/xlink" x="0px" y="0px"
	 viewBox="0 0 45.89 65.38" style="enable-background:new 0 0 45.89 65.38;" xml:space="preserve">
<style type="text/css">
	.st0{fill:#FF4431;}
	.st1{fill:#E53013;}
	.st2{opacity:0.2;}
	.st3{opacity:0.3;}
	.st4{opacity:0.1;}
	.st5{fill:#CCD7E2;}
	.st6{fill:#4F5266;}
	.st7{fill:#353747;}
	.st8{opacity:0.4;}
	.st9{fill:#78CFF1;}
	.st10{opacity:0.5;}
	.st11{fill:#049AB2;}
	.st12{fill:#FFB32C;}
	.st13{fill:#FFD67B;}
</style>
<g>
	<g>
		<rect x="-335.34" y="167.08" class="st0" width="30.67" height="41.42"/>
	</g>
	<g>
		<rect x="-304.67" y="171.38" class="st1" width="2.55" height="15.95"/>
	</g>
	<g>
		<path class="st0" d="M-320,153.92c-6.82,0-12.59,4.45-14.58,10.61h29.16C-307.42,158.37-313.19,153.92-320,153.92z"/>
	</g>
	<g>
		<rect x="-302.12" y="173.42" class="st0" width="2.56" height="11.86"/>
	</g>
	<g class="st2">
		<rect x="-320.98" y="157.29" width="2.56" height="3.87"/>
	</g>
	<g class="st2">
		<rect x="-330.53" y="191.91" width="2.56" height="14.01"/>
	</g>
	<g class="st2">
		<rect x="-320.84" y="191.91" width="2.56" height="14.01"/>
	</g>
	<g class="st2">
		<rect x="-311.15" y="191.91" width="2.56" height="14.01"/>
	</g>
	<g>
		<rect x="-338.08" y="164.52" class="st1" width="36.16" height="2.56"/>
	</g>
	<g>
		<rect x="-335.34" y="208.5" class="st1" width="30.67" height="2.55"/>
	</g>
	<g>
		<polygon class="st0" points="-339.43,215.65 -300.58,215.65 -304.67,211.05 -335.34,211.05 		"/>
	</g>
	<g>
		<rect x="-325.75" y="152.45" class="st1" width="11.5" height="2.55"/>
	</g>
	<g class="st2">
		<path d="M-329.15,161.15h2.91c0.47-1.19,2.74-3.24,3.85-3.87h-2.98C-326.91,158.08-328.36,159.7-329.15,161.15z"/>
	</g>
	<g class="st2">
		<path d="M-309.91,161.15h-2.79c-0.82-1.64-2.86-3.24-3.96-3.87h2.98C-312.15,158.08-310.7,159.7-309.91,161.15z"/>
	</g>
	<g>
		<g>
			<path class="st1" d="M-319.15,187.33c-4.4,0-7.97-3.58-7.97-7.97c0-4.4,3.58-7.97,7.97-7.97c4.4,0,7.97,3.58,7.97,7.97
				C-311.18,183.75-314.76,187.33-319.15,187.33z M-319.15,173.93c-2.99,0-5.42,2.43-5.42,5.42c0,2.99,2.43,5.42,5.42,5.42
				c2.99,0,5.42-2.43,5.42-5.42C-313.73,176.36-316.16,173.93-319.15,173.93z"/>
		</g>
	</g>
	<g>
		<rect x="-337.89" y="171.38" class="st1" width="2.56" height="15.95"/>
	</g>
	<g>
		<rect x="-340.45" y="173.42" class="st0" width="2.56" height="11.86"/>
	</g>
	<g class="st3">
		<polygon points="-320.91,182.4 -322.67,179.35 -320.91,176.31 -317.4,176.31 -315.64,179.35 -317.4,182.4 		"/>
	</g>
	<g class="st4">
		<rect x="-319.56" y="167.08" width="14.89" height="41.42"/>
	</g>
	<g class="st4">
		<path d="M-319.56,164.52h14.13c-1.42-4.38-4.76-7.85-9.02-9.52h-5.12V164.52z"/>
	</g>
	<g class="st4">
		<polygon points="-319.56,167.08 -304.67,167.08 -301.92,167.08 -301.92,164.52 -305.42,164.52 -319.56,164.52 		"/>
	</g>
	<g class="st4">
		<rect x="-319.56" y="208.5" width="14.89" height="2.55"/>
	</g>
	<g class="st4">
		<polygon points="-304.67,211.05 -319.56,211.05 -319.56,215.65 -300.58,215.65 		"/>
	</g>
	<g class="st4">
		<polygon points="-319.56,152.45 -319.56,153.95 -319.56,155 -314.44,155 -314.25,155 -314.25,152.45 		"/>
	</g>
</g>
<g>
	<g>
		<path d="M156.04,24.56l-1.1,0.32l-5.6,1.61l-1.04,0.3l2.69,9.33l1.04-0.3l4.49,15.58c0.45,1.55,2.06,2.44,3.61,1.99l0,0
			c1.55-0.45,2.44-2.06,1.99-3.61l-4.49-15.58l1.11-0.32L156.04,24.56z"/>
	</g>
	<g>
		<path d="M153.88,19.58c0,3.75-3.04,6.8-6.8,6.8c-3.75,0-6.8-3.04-6.8-6.8s3.04-6.8,6.8-6.8
			C150.84,12.78,153.88,15.82,153.88,19.58z"/>
	</g>
	<g>
		<path class="st5" d="M199.58,19.58c0,3.75-3.04,6.8-6.8,6.8s-6.8-3.04-6.8-6.8s3.04-6.8,6.8-6.8S199.58,15.82,199.58,19.58z"/>
	</g>
	<g>
		<path class="st6" d="M156.61,10.84h-13.19v17.48h13.19c0.17,0,0.33,0.01,0.5,0.02V10.82C156.94,10.82,156.77,10.84,156.61,10.84z"
			/>
	</g>
	<g>
		<path class="st6" d="M178.04,4.99c-5.51,3.25-11.67,5.18-18.02,5.69v17.79c6.35,0.51,12.51,2.44,18.02,5.69l14.75,11.44V-6.45
			L178.04,4.99z"/>
	</g>
	<g>
		<path d="M157.1,10.82v17.51c0.97,0.01,1.95,0.06,2.91,0.14V10.68C159.05,10.76,158.08,10.81,157.1,10.82z"/>
	</g>
	<g>
		<path class="st7" d="M156.61,28.32c0.17,0,0.33,0.01,0.5,0.02v-8.76h-13.69v8.74H156.61z"/>
	</g>
	<g>
		<path class="st7" d="M160.01,28.47c6.35,0.51,12.51,2.44,18.02,5.69l14.75,11.44V19.58h-32.77V28.47z"/>
	</g>
	<g>
		<polygon class="st5" points="186.36,-1.46 186.36,40.62 187.88,41.8 187.88,-2.64 		"/>
	</g>
	<g>
		<polygon class="st5" points="181.3,2.46 181.3,36.7 182.82,37.87 182.82,1.28 		"/>
	</g>
</g>
<g>
	<g>
		<g>
			<rect x="21.3" y="4.62" class="st6" width="4.62" height="10.9"/>
		</g>
	</g>
	<g class="st2">
		<path d="M25.92,15.37V4.62h-2.31v10.52C24.4,15.14,25.17,15.23,25.92,15.37z"/>
	</g>
	<g>
		<path class="st0" d="M32.96,65.38h-18.7c-1.76,0-3.19-1.43-3.19-3.19v-34.5c0-6.93,5.62-12.54,12.54-12.54l0,0
			c6.93,0,12.54,5.62,12.54,12.54v34.5C36.15,63.95,34.72,65.38,32.96,65.38z"/>
	</g>
	<g>
		<path class="st1" d="M36.15,27.69c0-6.14-4.41-11.23-10.23-12.32l0,0h-2.31v50.01h9.35c1.76,0,3.19-1.43,3.19-3.19V27.69z"/>
	</g>
	<g>
		<g>
			<path class="st7" d="M44.38,9.54L27.32,4.45l0.66-2.22l14.93,4.45c1.18,0.35,1.85,1.59,1.5,2.77L44.38,9.54z"/>
		</g>
	</g>
	<g>
		<g>
			<rect x="20.63" y="13.06" width="5.95" height="2.31"/>
		</g>
	</g>
	<g>
		<path d="M17.92,2.31L17.92,2.31c0,1.28,1.03,2.31,2.31,2.31h0.4v2.31h5.95V4.62h0.28c1.26,0,2.49-0.32,3.59-0.92l0,0
			c1.1-0.61,2.34-0.92,3.59-0.92h9.06c1.53,0,2.77-1.24,2.77-2.77l0,0H20.23C18.95,0,17.92,1.04,17.92,2.31z"/>
	</g>
	<g>
		<g>
			<path class="st7" d="M7.05,32.71H4.74v-4.1c0-10.82,8.77-19.59,19.59-19.59h2.25v2.31h-2.77c-9.26,0-16.76,7.5-16.76,16.76V32.71
				z"/>
		</g>
	</g>
	<g>
		<polygon points="11.56,45.43 0,45.43 3.7,32.71 7.86,32.71 		"/>
	</g>
	<g>
		<rect x="11.07" y="28.97" class="st5" width="25.08" height="1.2"/>
	</g>
	<g>
		<rect x="11.07" y="33.09" class="st5" width="25.08" height="1.2"/>
	</g>
	<g class="st8">
		<polygon class="st6" points="7.86,32.71 5.78,32.71 5.78,45.43 11.56,45.43 		"/>
	</g>
</g>
<g>
	<g>
		<path class="st9" d="M-380.09,189.88c0,3.24-2.63,5.86-5.86,5.86c-3.24,0-5.86-2.63-5.86-5.86c0-3.24,5.86-11.2,5.86-11.2
			S-380.09,186.65-380.09,189.88z"/>
	</g>
	<g>
		<path class="st5" d="M-386.61,189.33c0,0.74-0.6,1.34-1.34,1.34c-0.74,0-1.34-0.6-1.34-1.34c0-0.74,0.6-1.34,1.34-1.34
			C-387.21,187.99-386.61,188.59-386.61,189.33z"/>
	</g>
	<g class="st10">
		<path class="st11" d="M-380.09,189.88c0-3.24-5.86-11.2-5.86-11.2v0v17.07l0,0C-382.71,195.75-380.09,193.12-380.09,189.88z"/>
	</g>
	<g>
		<g>
			<path class="st11" d="M-379.06,170.6h-1.25c-0.48,0-0.87,0.39-0.87,0.87c0,0.48,0.39,0.87,0.87,0.87h1.25
				c0.48,0,0.87-0.39,0.87-0.87C-378.19,170.99-378.58,170.6-379.06,170.6z"/>
		</g>
		<g>
			<path class="st11" d="M-376.17,171.47c0,0.48,0.39,0.87,0.87,0.87h1.25c0.48,0,0.87-0.39,0.87-0.87c0-0.48-0.39-0.87-0.87-0.87
				h-1.25C-375.78,170.6-376.17,170.99-376.17,171.47z"/>
		</g>
		<g>
			<path class="st11" d="M-371.16,171.47c0,0.48,0.39,0.87,0.87,0.87h1.25c0.48,0,0.87-0.39,0.87-0.87c0-0.48-0.39-0.87-0.87-0.87
				h-1.25C-370.77,170.6-371.16,170.99-371.16,171.47z"/>
		</g>
		<g>
			<path class="st11" d="M-384.07,170.6h-0.67c-0.48,0-0.87,0.39-0.87,0.87c0,0.48,0.39,0.87,0.87,0.87h0.67
				c0.48,0,0.87-0.39,0.87-0.87C-383.2,170.99-383.59,170.6-384.07,170.6z"/>
		</g>
		<g>
			<path class="st11" d="M-374.68,178.16l-1.14-0.53c-0.43-0.2-0.95-0.01-1.15,0.42c-0.2,0.43-0.02,0.95,0.42,1.15l1.14,0.53
				c0.43,0.2,0.95,0.01,1.15-0.42C-374.06,178.88-374.25,178.36-374.68,178.16z"/>
		</g>
		<g>
			<path class="st11" d="M-379.22,176.04l-1.14-0.53c-0.43-0.2-0.95-0.02-1.15,0.42c-0.2,0.44-0.02,0.95,0.42,1.15l1.14,0.53
				c0.43,0.2,0.95,0.01,1.15-0.42C-378.6,176.76-378.79,176.24-379.22,176.04z"/>
		</g>
		<g>
			<path class="st11" d="M-370.14,180.28l-1.14-0.53c-0.44-0.2-0.95-0.01-1.15,0.42c-0.2,0.44-0.01,0.95,0.42,1.15l1.14,0.53
				c0.43,0.2,0.95,0.01,1.15-0.42C-369.52,181-369.7,180.48-370.14,180.28z"/>
		</g>
		<g>
			<path class="st11" d="M-383.77,173.92l-0.6-0.28c-0.43-0.2-0.95-0.01-1.15,0.42c-0.2,0.43-0.02,0.95,0.42,1.15l0.6,0.28
				c0.44,0.2,0.95,0.02,1.15-0.42C-383.14,174.64-383.33,174.13-383.77,173.92z"/>
		</g>
		<g>
			<path class="st11" d="M-372.43,162.77c0.2,0.44,0.72,0.62,1.15,0.42l1.14-0.53c0.44-0.2,0.62-0.72,0.42-1.15
				c-0.2-0.43-0.72-0.62-1.15-0.42l-1.14,0.53C-372.44,161.82-372.63,162.33-372.43,162.77z"/>
		</g>
		<g>
			<path class="st11" d="M-381.51,167c0.2,0.44,0.72,0.62,1.15,0.42l1.14-0.53c0.43-0.2,0.62-0.72,0.42-1.15
				c-0.2-0.43-0.72-0.62-1.15-0.42l-1.14,0.53C-381.53,166.05-381.72,166.57-381.51,167z"/>
		</g>
		<g>
			<path class="st11" d="M-376.97,164.89c0.2,0.43,0.72,0.62,1.15,0.42l1.14-0.53c0.44-0.2,0.62-0.72,0.42-1.15
				c-0.2-0.43-0.72-0.62-1.15-0.42l-1.14,0.53C-376.99,163.94-377.17,164.45-376.97,164.89z"/>
		</g>
		<g>
			<path class="st11" d="M-384.37,169.3l0.6-0.28c0.43-0.2,0.62-0.72,0.42-1.15c-0.2-0.43-0.72-0.62-1.15-0.42l-0.6,0.28
				c-0.44,0.2-0.62,0.72-0.42,1.15C-385.32,169.31-384.8,169.5-384.37,169.3z"/>
		</g>
	</g>
	<g>
		<g>
			<path d="M-446.06,179.27h-1.63v-15.6h1.63c0.94,0,1.71,0.77,1.71,1.71v12.18C-444.35,178.5-445.11,179.27-446.06,179.27z"/>
		</g>
	</g>
	<g>
		<g>
			<path class="st6" d="M-409.92,211.52c-4.69,0-8.51-3.82-8.51-8.51v-37.93c0-1.01-0.82-1.84-1.84-1.84
				c-1.01,0-1.84,0.82-1.84,1.84v38.09c0,4.6-3.74,8.34-8.34,8.34c-4.6,0-8.34-3.74-8.34-8.34V177.2c0-1.26-1.03-2.29-2.29-2.29
				h-3.27v-6.67h3.27c4.94,0,8.96,4.02,8.96,8.96v25.98c0,0.92,0.75,1.67,1.67,1.67c0.92,0,1.67-0.75,1.67-1.67v-38.09
				c0-4.69,3.82-8.51,8.51-8.51c4.69,0,8.51,3.82,8.51,8.51v37.93c0,1.01,0.82,1.84,1.83,1.84c1.01,0,1.83-0.82,1.83-1.84V177.2
				c0-4.94,4.02-8.96,8.96-8.96h2.72v6.67h-2.72c-1.26,0-2.29,1.03-2.29,2.29v25.81C-401.42,207.71-405.23,211.52-409.92,211.52z"/>
		</g>
	</g>
	<g>
		<path d="M-386.74,176.6h-9.02c-0.36,0-0.65-0.29-0.65-0.65v-8.96c0-0.36,0.29-0.65,0.65-0.65h9.02c0.36,0,0.65,0.29,0.65,0.65
			v8.96C-386.09,176.31-386.38,176.6-386.74,176.6z"/>
	</g>
	<g>
		<path class="st7" d="M-396.71,171.47h-3.1c-2.72,0-4.92,2.2-4.92,4.92v27.43c0,2.72-2.2,4.92-4.92,4.92h-0.46
			c-2.72,0-4.92-2.2-4.92-4.92v-38.88c0-2.72-2.2-4.92-4.92-4.92h-0.56c-2.72,0-4.92,2.2-4.92,4.92v38.39c0,2.72-2.2,4.92-4.92,4.92
			h-0.08c-2.72,0-4.92-2.2-4.92-4.92v-26.95c0-2.72-2.2-4.92-4.92-4.92h-3.1c-0.33,0-0.65,0.04-0.96,0.1v3.35h3.27
			c1.26,0,2.29,1.03,2.29,2.29v25.98c0,2.76,1.36,5.18,3.43,6.71c1.38,1.02,3.07,1.64,4.92,1.64c1.89,0,3.61-0.65,5.01-1.71
			c2.01-1.52,3.34-3.92,3.34-6.63v-38.09c0-1.01,0.82-1.84,1.84-1.84c1.01,0,1.84,0.82,1.84,1.84v37.93c0,2.77,1.35,5.2,3.39,6.76
			c1.43,1.08,3.19,1.75,5.12,1.75c1.96,0,3.75-0.69,5.19-1.81c2.01-1.56,3.32-3.97,3.32-6.7V177.2c0-1.26,1.03-2.29,2.29-2.29h2.72
			v-3.42C-396.51,171.49-396.61,171.47-396.71,171.47z"/>
	</g>
</g>
<g>
	<g>
		<g>
			<path d="M-201.69-25.21h-2.56v-2.17c0-9.25-7.53-16.78-16.78-16.78c-9.25,0-16.78,7.53-16.78,16.78v2.17h-2.56v-2.17
				c0-10.66,8.67-19.34,19.34-19.34c10.66,0,19.34,8.67,19.34,19.34V-25.21z"/>
		</g>
	</g>
	<g>
		<path class="st0" d="M-220.78,15.71L-220.78,15.71l-0.05-0.03c-12.88-8.96-20.57-23.65-20.57-39.35v-1.55h40.72v1.91
			C-200.67-7.81-208.16,6.72-220.78,15.71L-220.78,15.71z"/>
	</g>
	<g>
		<path class="st7" d="M-205.78-29.5v4.28h5.11v-4.28c0-1.41-1.14-2.56-2.55-2.56l0,0C-204.64-32.05-205.78-30.91-205.78-29.5z"/>
	</g>
	<g>
		<path class="st7" d="M-241.39-29.5v4.28h5.11v-4.28c0-1.41-1.14-2.56-2.56-2.56l0,0C-240.24-32.05-241.39-30.91-241.39-29.5z"/>
	</g>
	<g>
		<path class="st1" d="M-220.78,15.71c12.61-8.99,20.1-23.53,20.1-39.02v-1.91h-20.32v40.77c0.06,0.04,0.11,0.09,0.17,0.13
			L-220.78,15.71z"/>
	</g>
	<g>
		<rect x="-241.39" y="-25.24" width="40.72" height="1.33"/>
	</g>
	<g>
		<path class="st5" d="M-200.95-18.3h-40.13c0.05,0.44,0.11,0.89,0.18,1.33h39.79C-201.05-17.41-201-17.85-200.95-18.3z"/>
	</g>
	<g>
		<path class="st5" d="M-240.03-12.37h38.09c0.1-0.44,0.19-0.89,0.28-1.33h-38.66C-240.23-13.26-240.14-12.81-240.03-12.37z"/>
	</g>
</g>
<g>
	<g>
		<g>
			<path class="st1" d="M-314.99-116.38l-30.44,30.44c-1.21,1.21-1.21,3.17,0,4.38l0,0c1.21,1.21,3.17,1.21,4.38,0l30.44-30.44
				L-314.99-116.38z"/>
		</g>
		<g>
			<rect x="-318.85" y="-115.42" transform="matrix(0.7071 0.7071 -0.7071 0.7071 -171.154 190.6998)" width="6.19" height="8.36"/>
		</g>
		<g>
			<path class="st6" d="M-288.07-113.56l-0.17-0.17l-3.7-0.52c-4.18-0.58-8.06-2.52-11.05-5.5l-8.28-8.28l-8.89-5.55l4.95,9.5
				l-2.68,2.68c-0.7,0.7-0.7,1.83,0,2.53l7.01,7.01c2.99,2.99,4.92,6.87,5.5,11.05l0.52,3.7l0.17,0.17
				c3.99-0.53,7.92-2.39,11.07-5.54C-290.46-105.65-288.61-109.58-288.07-113.56z"/>
		</g>
		<g>
			<path class="st7" d="M-317.89-118.88l7.01,7.01c2.99,2.99,4.92,6.87,5.5,11.05l0.51,3.7l0.17,0.17
				c3.99-0.53,7.92-2.39,11.07-5.54l-21.6-21.6l-2.68,2.68C-318.59-120.71-318.59-119.58-317.89-118.88z"/>
		</g>
		<g class="st4">
			<path d="M-288.07-113.56l-0.17-0.17l-3.7-0.52c-0.08-0.01-0.16-0.04-0.24-0.05c-0.88,3.01-2.52,5.89-4.94,8.31
				c-2.42,2.42-5.3,4.06-8.31,4.94c0.01,0.08,0.04,0.16,0.05,0.24l0.51,3.7l0.17,0.17c3.99-0.53,7.92-2.39,11.07-5.54
				C-290.46-105.65-288.61-109.58-288.07-113.56z"/>
		</g>
	</g>
	<g>
		<g>
			<path class="st1" d="M-332.74-116.38l30.44,30.44c1.21,1.21,1.21,3.17,0,4.38l0,0c-1.21,1.21-3.17,1.21-4.38,0L-337.12-112
				L-332.74-116.38z"/>
		</g>
		<g>
			
				<rect x="-335.07" y="-115.42" transform="matrix(-0.7071 0.7071 -0.7071 -0.7071 -645.3586 44.8686)" width="6.19" height="8.36"/>
		</g>
		<g>
			<path class="st6" d="M-346.11-118.59c0.21-0.21,0.45-0.39,0.68-0.56l-6.51-12.05l12.18,6.58l7.01,8.24l-4.35,4.35l-0.03,0.03
				l-2.04-1.73l-0.14-0.12c-1.41-1.41-3.68-1.41-5.09,0c-1.41,1.41-1.41,3.69,0,5.09l-1.72-1.72
				C-348.35-112.72-348.35-116.35-346.11-118.59z"/>
		</g>
		<g>
			<path class="st7" d="M-339.3-113.85c-1.41-1.41-3.68-1.41-5.09,0c-1.41,1.41-1.41,3.69,0,5.09l-1.72-1.72
				c-2.24-2.24-2.24-5.87,0-8.1c0.21-0.21,0.45-0.39,0.68-0.56l-6.51-12.05l0.27,0.15l16.8,16.8l-2.22,2.22l-0.03,0.03l-2.04-1.73
				L-339.3-113.85z"/>
		</g>
	</g>
</g>
<g>
	<g>
		<path class="st6" d="M68.66,170.51c-1.76,0-3.19-1.43-3.19-3.19v-7.06c0-1.54-1.25-2.8-2.8-2.8l0,0c-1.54,0-2.79,1.25-2.79,2.8
			v53.57c0,1.58,1.28,2.87,2.87,2.87h24.18c1.58,0,2.87-1.28,2.87-2.87v-40.45c0-1.58-1.28-2.87-2.87-2.87H68.66z"/>
	</g>
	<g>
		<rect x="64.91" y="175.57" class="st5" width="19.85" height="11.9"/>
	</g>
	<g>
		<path class="st7" d="M84.13,212.03h-18.6c-0.35,0-0.63-0.28-0.63-0.63v-1.55c0-0.35,0.28-0.63,0.63-0.63h18.6
			c0.35,0,0.63,0.28,0.63,0.63v1.55C84.76,211.75,84.48,212.03,84.13,212.03z"/>
	</g>
	<g>
		<path class="st7" d="M69.98,198.05h-4.55c-0.29,0-0.52-0.23-0.52-0.52v-4.55c0-0.29,0.23-0.52,0.52-0.52h4.55
			c0.29,0,0.52,0.23,0.52,0.52v4.55C70.5,197.81,70.27,198.05,69.98,198.05z"/>
	</g>
	<g>
		<path class="st7" d="M77.29,198.05h-4.55c-0.29,0-0.52-0.23-0.52-0.52v-4.55c0-0.29,0.23-0.52,0.52-0.52h4.55
			c0.29,0,0.52,0.23,0.52,0.52v4.55C77.81,197.81,77.58,198.05,77.29,198.05z"/>
	</g>
	<g>
		<path class="st1" d="M84.6,198.05h-4.55c-0.29,0-0.52-0.23-0.52-0.52v-4.55c0-0.29,0.23-0.52,0.52-0.52h4.55
			c0.29,0,0.52,0.23,0.52,0.52v4.55C85.12,197.81,84.89,198.05,84.6,198.05z"/>
	</g>
	<g>
		<path class="st7" d="M70.07,205.22h-4.55c-0.29,0-0.52-0.23-0.52-0.52v-4.55c0-0.29,0.23-0.52,0.52-0.52h4.55
			c0.29,0,0.52,0.23,0.52,0.52v4.55C70.59,204.99,70.36,205.22,70.07,205.22z"/>
	</g>
	<g>
		<path class="st7" d="M77.38,205.22h-4.55c-0.29,0-0.52-0.23-0.52-0.52v-4.55c0-0.29,0.23-0.52,0.52-0.52h4.55
			c0.29,0,0.52,0.23,0.52,0.52v4.55C77.9,204.99,77.67,205.22,77.38,205.22z"/>
	</g>
	<g>
		<path class="st7" d="M84.7,205.22h-4.55c-0.29,0-0.52-0.23-0.52-0.52v-4.55c0-0.29,0.23-0.52,0.52-0.52h4.55
			c0.29,0,0.52,0.23,0.52,0.52v4.55C85.22,204.99,84.98,205.22,84.7,205.22z"/>
	</g>
	<g>
		<path class="st1" d="M65.47,160.25c0-1.54-1.25-2.8-2.8-2.8c-1.54,0-2.79,1.25-2.79,2.8v2.8h5.59V160.25z"/>
	</g>
	<g>
		<g>
			<path class="st1" d="M91.79,168.72c-0.41,0.28-0.52,0.83-0.24,1.24c0.39,0.57,0.59,1.24,0.59,1.94c0,0.55-0.12,1.07-0.37,1.55
				c-0.22,0.44-0.04,0.98,0.4,1.2c0.13,0.06,0.27,0.09,0.4,0.09c0.33,0,0.64-0.18,0.8-0.49c0.37-0.73,0.56-1.54,0.56-2.36
				c0-1.05-0.31-2.07-0.9-2.94C92.76,168.55,92.2,168.44,91.79,168.72z"/>
		</g>
		<g>
			<path class="st1" d="M100.7,163.77c-0.28-0.41-0.84-0.52-1.24-0.24c-0.41,0.28-0.52,0.83-0.24,1.24c1.42,2.1,2.18,4.57,2.18,7.12
				c0,2.27-0.6,4.5-1.75,6.44c-0.25,0.43-0.11,0.98,0.32,1.23c0.14,0.08,0.3,0.12,0.45,0.12c0.31,0,0.61-0.16,0.77-0.44
				c1.31-2.22,2-4.76,2-7.35C103.19,168.98,102.33,166.18,100.7,163.77z"/>
		</g>
		<g>
			<path class="st1" d="M95.88,166.39c-0.42,0.26-0.55,0.81-0.29,1.23c0.79,1.28,1.21,2.76,1.21,4.27c0,1.35-0.34,2.69-0.98,3.87
				c-0.24,0.43-0.08,0.98,0.36,1.21c0.14,0.07,0.28,0.11,0.43,0.11c0.32,0,0.63-0.17,0.79-0.47c0.78-1.44,1.2-3.08,1.2-4.73
				c0-1.85-0.51-3.65-1.48-5.22C96.85,166.26,96.3,166.13,95.88,166.39z"/>
		</g>
	</g>
	<g class="st2">
		<rect x="74.83" y="175.57" class="st7" width="9.92" height="11.9"/>
	</g>
</g>
<g>
	<g>
		<rect x="204.29" y="174.32" class="st0" width="51.13" height="56.22"/>
	</g>
	<g>
		<rect x="209.45" y="199.87" class="st7" width="41.02" height="25.54"/>
	</g>
	<g>
		<rect x="217.04" y="209.62" width="25.84" height="5.11"/>
	</g>
	<g>
		<rect x="209.4" y="179.43" class="st5" width="41.02" height="15.33"/>
	</g>
	<g>
		<path class="st1" d="M223.99,212.18c0,3.29,2.67,5.96,5.96,5.96c3.29,0,5.96-2.67,5.96-5.96c0-3.29-2.67-5.96-5.96-5.96
			C226.66,206.22,223.99,208.89,223.99,212.18z"/>
	</g>
	<g>
		<g>
			<path class="st1" d="M218.39,183.11h5.2v1.77h-3.09v1.52h2.65v1.76h-2.65v2.92h-2.11V183.11z"/>
		</g>
		<g>
			<path class="st1" d="M224.96,183.11h2.11v7.97h-2.11V183.11z"/>
		</g>
		<g>
			<path class="st1" d="M233.13,191.08l-1.37-2.67h-0.81v2.67h-2.11v-7.97h3.02c1.72,0,3.19,0.59,3.19,2.57
				c0,1.14-0.52,1.89-1.29,2.3l1.73,3.09H233.13z M230.95,186.74h0.76c0.83,0,1.27-0.37,1.27-1.05c0-0.69-0.44-0.91-1.27-0.91h-0.76
				V186.74z"/>
		</g>
		<g>
			<path class="st1" d="M236.57,183.11h5.15v1.77h-3.04v1.25h2.6v1.77h-2.6v1.42h3.16v1.76h-5.27V183.11z"/>
		</g>
	</g>
</g>
<g>
	<g>
		<path class="st6" d="M-221.06,205.1L-221.06,205.1c-11.55,0-20.91-9.36-20.91-20.91v-27.54c0-1.69,1.37-3.06,3.06-3.06h35.7
			c1.69,0,3.06,1.37,3.06,3.06v27.54C-200.15,195.74-209.51,205.1-221.06,205.1z"/>
	</g>
	<g>
		<path class="st5" d="M-206.37,179.68h-29.39c-0.4,0-0.72-0.32-0.72-0.72v-19.04c0-0.4,0.32-0.72,0.72-0.72h29.39
			c0.4,0,0.72,0.32,0.72,0.72v19.04C-205.65,179.36-205.97,179.68-206.37,179.68z"/>
	</g>
	<g>
		<rect x="-237.45" y="195.7" transform="matrix(0.7071 -0.7071 0.7071 0.7071 -208.5119 -106.1294)" width="10.18" height="5.87"/>
	</g>
	<g>
		<rect x="-246.22" y="207.54" transform="matrix(0.7071 -0.7071 0.7071 0.7071 -220.8957 -111.2589)" width="2.93" height="6.95"/>
	</g>
	<g>
		<path class="st1" d="M-239.8,213.89l-7.83-7.83c-0.26-0.26-0.26-0.69,0-0.96l6.79-6.79c0.26-0.26,0.69-0.26,0.96,0l7.83,7.83
			c0.26,0.26,0.26,0.69,0,0.96l-6.79,6.79C-239.1,214.16-239.53,214.16-239.8,213.89z"/>
	</g>
	<g>
		<rect x="-212.63" y="193.25" transform="matrix(0.7071 -0.7071 0.7071 0.7071 -201.6612 -90.1871)" width="5.87" height="10.18"/>
	</g>
	<g>
		<rect x="-200.79" y="209.25" transform="matrix(0.7071 -0.7071 0.7071 0.7071 -206.7908 -77.8034)" width="6.95" height="2.94"/>
	</g>
	<g>
		<path class="st1" d="M-202.26,213.59l7.83-7.83c0.26-0.26,0.26-0.69,0-0.96l-6.79-6.79c-0.26-0.26-0.69-0.26-0.96,0l-7.83,7.83
			c-0.26,0.26-0.26,0.69,0,0.96l6.79,6.79C-202.96,213.86-202.53,213.86-202.26,213.59z"/>
	</g>
	<g>
		<path class="st7" d="M-211.25,193.92c0,5.42-4.39,9.81-9.81,9.81c-5.42,0-9.81-4.39-9.81-9.81c0-5.42,4.39-9.81,9.81-9.81
			C-215.64,184.12-211.25,188.51-211.25,193.92z"/>
	</g>
	<g>
		<path d="M-214.21,193.92c0,3.79-3.07,6.85-6.85,6.85s-6.85-3.07-6.85-6.85c0-3.79,3.07-6.85,6.85-6.85
			S-214.21,190.14-214.21,193.92z"/>
	</g>
	<g>
		<path class="st5" d="M-216.98,193.92c0,2.26-1.83,4.09-4.08,4.09c-2.26,0-4.09-1.83-4.09-4.09c0-2.26,1.83-4.08,4.09-4.08
			C-218.8,189.84-216.98,191.67-216.98,193.92z"/>
	</g>
	<g class="st2">
		<path class="st7" d="M-205.65,178.82v-18.76c0-0.47-0.38-0.85-0.85-0.85h-14.56v20.47h14.56
			C-206.03,179.68-205.65,179.29-205.65,178.82z"/>
	</g>
	<g>
		<path class="st5" d="M-213.36,161.37v1.53h3.44c0.3,0,0.54,0.24,0.54,0.54v12.83h1.53v-13.78c0-0.62-0.5-1.11-1.11-1.11H-213.36z"
			/>
	</g>
</g>
<g>
	<g>
		<g>
			<path class="st0" d="M339.93,27.16L339.93,27.16c-0.99-5.44-2.91-10.67-5.68-15.45l-1.84-3.18l-3.58,5.01l0,0
				c-2.06-5.48-5.17-10.5-9.14-14.8l-3.4-3.68l-3.9,4.38c-3.41,3.84-6.15,8.23-8.09,12.98l-0.45,1.11l-3.69-5.01l-2.12,3.76
				c-2.44,4.33-4.19,9.01-5.19,13.88l-0.2,0.99l-2.5-5.01l-0.22,0.83c-3.52,13.22,2.9,27.44,15.57,32.6c3.33,1.36,6.98,2.1,10.8,2.1
				l0,0c3.83,0,7.48-0.75,10.82-2.11c12.66-5.16,19.07-19.39,15.55-32.59l-0.22-0.83L339.93,27.16z"/>
		</g>
		<g>
			<path class="st12" d="M334.14,32.13L334.14,32.13c-0.75-4.11-2.2-8.06-4.29-11.67l-1.39-2.4l-2.7,3.78l0,0
				c-1.56-4.14-3.9-7.93-6.9-11.17l-2.57-2.78l-2.94,3.31c-2.58,2.9-4.64,6.21-6.11,9.81l-0.34,0.84l-2.79-3.78l-1.6,2.84
				c-1.84,3.27-3.17,6.81-3.92,10.48l-0.15,0.75l-1.89-3.78l-0.17,0.63c-2.66,9.98,2.19,20.72,11.76,24.62
				c2.52,1.02,5.27,1.59,8.16,1.59l0,0c2.89,0,5.65-0.57,8.17-1.6c9.56-3.9,14.4-14.64,11.74-24.62l-0.17-0.63L334.14,32.13z"/>
		</g>
		<g>
			<path class="st13" d="M318.9,26.74l-2.57-2.78l-2.94,3.31c-0.79,0.89-1.57,1.87-2.31,2.91c-2.75,3.84-4.14,8.5-4.15,13.22l0,0
				c-0.02,5.18,4.18,9.39,9.37,9.39l0,0c5.17,0,9.37-4.19,9.37-9.36v-0.23c0-4.61-1.27-9.19-3.92-12.96
				C320.87,29.02,319.92,27.85,318.9,26.74z"/>
		</g>
		<g>
			<path class="st1" d="M327.11,55.57c12.66-5.16,19.07-19.39,15.55-32.59l-0.22-0.83l-2.5,5.01c-0.99-5.44-2.91-10.67-5.68-15.45
				l-1.84-3.18l-3.58,5.01c-2.06-5.48-5.17-10.5-9.14-14.8l-3.4-3.68l0,0V7.89l0,0l2.57,2.78c3,3.24,5.35,7.04,6.9,11.17l2.7-3.78
				l1.39,2.4c2.09,3.61,3.54,7.56,4.29,11.67l1.89-3.78l0.17,0.63c2.66,9.97-2.18,20.71-11.74,24.61c-2.52,1.03-5.28,1.6-8.17,1.6
				l0,0v2.5l0,0C320.12,57.69,323.77,56.94,327.11,55.57z"/>
		</g>
		<g class="st10">
			<path class="st1" d="M316.33,23.97l2.57,2.78c1.02,1.11,1.97,2.28,2.83,3.5c2.65,3.77,3.92,8.35,3.92,12.96v0.23
				c0,5.17-4.19,9.36-9.37,9.36v2.38l0,0c2.89,0,5.65-0.57,8.17-1.6c9.56-3.9,14.4-14.64,11.74-24.61l-0.17-0.63l-1.89,3.78
				c-0.75-4.11-2.2-8.06-4.29-11.67l-1.39-2.4l-2.7,3.78c-1.56-4.14-3.9-7.93-6.9-11.17l-2.57-2.78l0,0v16.13L316.33,23.97z"/>
		</g>
		<g>
			<path class="st1" d="M325.65,43.44v-0.23c0-4.61-1.27-9.19-3.92-12.96c-0.86-1.23-1.81-2.4-2.83-3.5l-2.57-2.78l-0.04,0.05V52.8
				C321.46,52.8,325.65,48.61,325.65,43.44z"/>
		</g>
		<g>
			<path class="st13" d="M328.9,22.98l-0.63-0.68l-0.72,0.81c-0.2,0.22-0.39,0.46-0.57,0.71c-0.67,0.94-1.01,2.08-1.02,3.24l0,0
				c0,1.27,1.02,2.3,2.29,2.3l0,0c1.27,0,2.29-1.03,2.29-2.29v-0.06c0-1.13-0.31-2.25-0.96-3.17
				C329.38,23.54,329.15,23.25,328.9,22.98z"/>
		</g>
		<g>
			<path class="st13" d="M303.81,31.31l-0.63-0.68l-0.72,0.81c-0.19,0.22-0.39,0.46-0.57,0.71c-0.67,0.94-1.01,2.08-1.02,3.24l0,0
				c0,1.27,1.02,2.3,2.29,2.3l0,0c1.27,0,2.29-1.03,2.29-2.29v-0.06c0-1.13-0.31-2.25-0.96-3.17
				C304.29,31.87,304.06,31.58,303.81,31.31z"/>
		</g>
		<g>
			<path class="st12" d="M317.07-0.75l-0.77-0.83l-0.88,0.99c-0.24,0.27-0.47,0.56-0.69,0.87c-0.82,1.15-1.24,2.54-1.24,3.96l0,0
				c0,1.55,1.25,2.81,2.8,2.81l0,0c1.55,0,2.8-1.25,2.8-2.8V4.18c0-1.38-0.38-2.75-1.17-3.88C317.66-0.07,317.38-0.42,317.07-0.75z"
				/>
		</g>
	</g>
	<g>
		<polygon points="342.28,7.92 337.27,2.91 316.29,23.89 295.31,2.91 290.3,7.92 311.28,28.9 290.3,49.89 295.31,54.9 316.29,33.91 
			337.27,54.9 342.28,49.88 321.3,28.9 		"/>
	</g>
</g>
<g>
	<g>
		<g>
			<polygon class="st7" points="15.59,-139.87 -14.45,-117 45.62,-117 			"/>
		</g>
		<g>
			<rect x="-9.05" y="-117" class="st5" width="49.27" height="37.09"/>
		</g>
		<g class="st2">
			<rect x="15.59" y="-117.51" class="st7" width="24.64" height="37.6"/>
		</g>
		<g>
			<g>
				<rect x="-11.26" y="-79.91" class="st7" width="53.7" height="5.54"/>
			</g>
		</g>
		<g>
			<rect x="15.59" y="-79.91" width="26.85" height="5.54"/>
		</g>
		<g>
			<rect x="6.09" y="-111.8" width="18.36" height="31.89"/>
		</g>
	</g>
	<g>
		<polygon points="15.59,-139.87 15.27,-139.59 15.27,-117 45.62,-117 		"/>
	</g>
	<g>
		<g>
			<path class="st0" d="M27.78-96.53L27.78-96.53c-0.51-2.81-1.5-5.5-2.93-7.97l-0.95-1.64l-1.85,2.58l0,0
				c-1.06-2.82-2.67-5.42-4.72-7.63l-1.76-1.9l-2.01,2.26c-1.76,1.98-3.17,4.24-4.17,6.7l-0.23,0.57l-1.9-2.58l-1.09,1.94
				c-1.26,2.23-2.16,4.65-2.68,7.16l-0.11,0.51L2.1-99.11l-0.11,0.43c-1.82,6.82,1.5,14.15,8.03,16.82c1.72,0.7,3.6,1.09,5.57,1.09
				l0,0c1.97,0,3.86-0.39,5.58-1.09c6.53-2.66,9.84-10,8.02-16.81l-0.11-0.43L27.78-96.53z"/>
		</g>
		<g>
			<path class="st12" d="M24.8-93.96L24.8-93.96c-0.38-2.12-1.13-4.15-2.21-6.02l-0.72-1.24l-1.39,1.95l0,0
				c-0.8-2.13-2.01-4.09-3.56-5.76l-1.33-1.43l-1.52,1.71c-1.33,1.5-2.39,3.21-3.15,5.06l-0.18,0.43l-1.44-1.95l-0.83,1.46
				c-0.95,1.69-1.63,3.51-2.02,5.41l-0.08,0.39L5.4-95.91l-0.09,0.32c-1.37,5.15,1.13,10.69,6.06,12.7c1.3,0.53,2.72,0.82,4.21,0.82
				l0,0c1.49,0,2.91-0.29,4.21-0.82c4.93-2.01,7.43-7.55,6.06-12.7l-0.09-0.32L24.8-93.96z"/>
		</g>
		<g>
			<path class="st13" d="M16.94-96.74l-1.33-1.43l-1.52,1.71c-0.41,0.46-0.81,0.97-1.19,1.5c-1.42,1.98-2.13,4.38-2.14,6.82l0,0
				c-0.01,2.67,2.16,4.85,4.83,4.85l0,0c2.67,0,4.83-2.16,4.83-4.83v-0.12c0-2.38-0.65-4.74-2.02-6.68
				C17.95-95.56,17.46-96.17,16.94-96.74z"/>
		</g>
		<g>
			<path class="st1" d="M21.17-81.87c6.53-2.66,9.84-10,8.02-16.81l-0.11-0.43l-1.29,2.58c-0.51-2.81-1.5-5.5-2.93-7.97l-0.95-1.64
				l-1.85,2.58c-1.06-2.82-2.67-5.42-4.72-7.63l-1.76-1.9l0,0v6.62l0,0l1.33,1.43c1.55,1.67,2.76,3.63,3.56,5.76l1.39-1.95
				l0.72,1.24c1.08,1.86,1.83,3.9,2.21,6.02l0.98-1.95l0.09,0.32c1.37,5.15-1.13,10.68-6.06,12.7c-1.3,0.53-2.72,0.82-4.21,0.82l0,0
				v1.29l0,0C17.56-80.78,19.45-81.17,21.17-81.87z"/>
		</g>
		<g class="st10">
			<path class="st1" d="M15.61-98.17l1.33,1.43c0.53,0.57,1.02,1.17,1.46,1.81c1.37,1.95,2.02,4.31,2.02,6.68v0.12
				c0,2.67-2.16,4.83-4.83,4.83v1.23l0,0c1.49,0,2.91-0.29,4.21-0.82c4.93-2.01,7.43-7.55,6.06-12.7l-0.09-0.32l-0.98,1.95
				c-0.38-2.12-1.13-4.15-2.21-6.02l-0.72-1.24l-1.39,1.95c-0.8-2.13-2.01-4.09-3.56-5.76l-1.33-1.43l0,0v8.32L15.61-98.17z"/>
		</g>
		<g>
			<path class="st1" d="M20.42-88.13v-0.12c0-2.38-0.65-4.74-2.02-6.68c-0.45-0.63-0.93-1.24-1.46-1.81l-1.33-1.43l-0.02,0.03v14.85
				C18.26-83.3,20.42-85.46,20.42-88.13z"/>
		</g>
		<g>
			<path class="st13" d="M22.09-98.68l-0.32-0.35l-0.37,0.42c-0.1,0.11-0.2,0.24-0.29,0.37c-0.35,0.49-0.52,1.07-0.52,1.67l0,0
				c0,0.66,0.53,1.19,1.18,1.19l0,0c0.65,0,1.18-0.53,1.18-1.18v-0.03c0-0.58-0.16-1.16-0.5-1.64
				C22.34-98.39,22.22-98.54,22.09-98.68z"/>
		</g>
		<g>
			<path class="st13" d="M9.15-94.39l-0.32-0.35l-0.37,0.42c-0.1,0.11-0.2,0.24-0.29,0.37c-0.35,0.49-0.52,1.07-0.52,1.67l0,0
				c0,0.66,0.53,1.19,1.18,1.19l0,0c0.65,0,1.18-0.53,1.18-1.18v-0.03c0-0.58-0.16-1.16-0.5-1.64C9.4-94.1,9.28-94.25,9.15-94.39z"
				/>
		</g>
		<g>
			<path class="st12" d="M15.99-110.92l-0.4-0.43l-0.45,0.51c-0.12,0.14-0.24,0.29-0.36,0.45c-0.42,0.59-0.64,1.31-0.64,2.04l0,0
				c0,0.8,0.65,1.45,1.45,1.45l0,0c0.8,0,1.45-0.65,1.45-1.45v-0.04c0-0.71-0.2-1.42-0.61-2C16.29-110.57,16.15-110.75,15.99-110.92
				z"/>
		</g>
	</g>
</g>
<g>
	<path d="M-207.11,96.78l-5.22-5.06h-15.45l-2.73,2.64l-9.18-8.51l-1.65,1.78l9.08,8.42l-0.75,0.72c-0.43,0.42-0.68,1-0.68,1.6v16.3
		c0,1.43,1.16,2.59,2.59,2.59h22.07c1.43,0,2.59-1.16,2.59-2.59v-16.3C-206.44,97.77-206.68,97.2-207.11,96.78z"/>
	
		<ellipse transform="matrix(0.2278 -0.9737 0.9737 0.2278 -241.7153 -157.3466)" class="st0" cx="-220.06" cy="73.72" rx="20.37" ry="20.37"/>
	<path class="st1" d="M-223.64,110.57c0,1.07-0.87,1.95-1.95,1.95c-1.07,0-1.95-0.87-1.95-1.95c0-1.08,0.87-1.95,1.95-1.95
		C-224.52,108.62-223.64,109.5-223.64,110.57z"/>
	<circle class="st1" cx="-240.43" cy="86.57" r="1.95"/>
	<path class="st1" d="M-212.58,110.57c0,1.07-0.87,1.95-1.95,1.95c-1.08,0-1.95-0.87-1.95-1.95c0-1.08,0.87-1.95,1.95-1.95
		C-213.45,108.62-212.58,109.5-212.58,110.57z"/>
	<path class="st1" d="M-218.11,110.57c0,1.07-0.87,1.95-1.95,1.95c-1.08,0-1.95-0.87-1.95-1.95c0-1.08,0.87-1.95,1.95-1.95
		C-218.98,108.62-218.11,109.5-218.11,110.57z"/>
	<rect x="-227.54" y="103.03" class="st1" width="14.96" height="2.13"/>
	<path class="st1" d="M-199.68,73.72c0-11.25-9.12-20.37-20.37-20.37v40.75C-208.81,94.09-199.68,84.97-199.68,73.72z"/>
	<path class="st5" d="M-216.71,73.96c0,1.85-1.5,3.34-3.34,3.34c-1.85,0-3.34-1.5-3.34-3.34c0-1.85,1.5-3.34,3.34-3.34
		C-218.21,70.62-216.71,72.11-216.71,73.96z"/>
</g>
<g>
	<g>
		<path class="st0" d="M-394.19,96.15h-48.13v-4.68c0-13.29,10.77-24.07,24.07-24.07l0,0c13.29,0,24.06,10.78,24.06,24.07V96.15z"/>
	</g>
	<g>
		<g>
			<path class="st7" d="M-380.35,105.44h-10.95c-4.69,0-9.66-0.9-14.75-2.69c-2.93-1.03-5.99-1.55-9.1-1.55h-6.22
				c-3.11,0-6.17,0.52-9.1,1.55c-5.09,1.79-10.06,2.69-14.75,2.69h-10.96v-1.94h10.96c4.48,0,9.22-0.87,14.11-2.58
				c3.14-1.1,6.42-1.66,9.74-1.66h6.22c3.33,0,6.61,0.56,9.74,1.66c4.89,1.71,9.63,2.58,14.11,2.58h10.95V105.44z"/>
		</g>
	</g>
	<g class="st4">
		<path d="M-394.1,91.27c0-11.82-8.54-21.64-19.78-23.66v9.61l2.92,0.75v6.21c0,3.18-1.6,6.15-4.26,7.89l-3.06,2.01l-0.1-0.06v1.94
			h24.27V91.27z"/>
	</g>
	<g>
		<path class="st0" d="M-442.32,96.15l-13.85,7.35h11.05c4.93,0,9.78-1,14.43-2.63c2.95-1.03,6.12-1.6,9.42-1.6h2.9v-3.12H-442.32z"
			/>
	</g>
	<g>
		<path class="st1" d="M-405.63,100.87c4.65,1.63,9.5,2.63,14.43,2.63h10.86l-13.85-7.35h-24.18v3.12h3.31
			C-411.75,99.27-408.58,99.84-405.63,100.87z"/>
	</g>
	<g class="st4">
		<rect x="-442.32" y="92.39" width="23.86" height="3.76"/>
	</g>
	<g>
		<path class="st5" d="M-413.97,77.42V65.17h-8.58v12.2l-3.14,0.81v6.21c0,3.18,1.6,6.15,4.26,7.89l3.06,2.01l3.06-2.01
			c2.66-1.74,4.26-4.71,4.26-7.89v-6.21L-413.97,77.42z"/>
	</g>
	<g>
		<path class="st0" d="M-416.1,90.25l-2.27,1.49l-2.27-1.49c-1.98-1.29-3.17-3.5-3.17-5.86v-4.61l5.44-1.39l5.44,1.39v4.61
			C-412.93,86.75-414.12,88.95-416.1,90.25z"/>
	</g>
	<g class="st2">
		<path class="st7" d="M-413.97,77.42v-9.61v-2.64h-4.5v2.25v10.99l0.1-0.02l5.44,1.39v4.61c0,2.36-1.19,4.57-3.17,5.86l-2.27,1.49
			l-0.1-0.06v2.54l0.1,0.06l3.06-2.01c2.66-1.74,4.26-4.71,4.26-7.89v-6.21L-413.97,77.42z"/>
	</g>
	<g>
		<path class="st1" d="M-416.1,90.25c1.98-1.29,3.17-3.5,3.17-5.86v-4.61l-5.44-1.39l-0.1,0.02v13.27l0.1,0.06L-416.1,90.25z"/>
	</g>
</g>
<g>
	<g>
		<path class="st1" d="M-394.59-120.5c-0.82-0.82-2.15-0.82-2.97,0l-11.94,11.94l-0.6-0.6l14.89-14.89c1.02-1.02,1.02-2.67,0-3.68
			c-1.02-1.02-2.67-1.02-3.68,0l-14.89,14.89l-0.5-0.5l16.15-16.15c1.02-1.02,1.02-2.67,0-3.68c-1.02-1.02-2.67-1.02-3.68,0
			l-16.15,16.15l-0.53-0.53l14.84-14.84c1.02-1.02,1.02-2.67,0-3.68c-1.02-1.02-2.67-1.02-3.68,0l-17.36,17.36l-0.95-0.95l9.75-9.75
			c1.11-1.11,1.39-2.91,0.46-4.19c-1.17-1.63-3.46-1.77-4.82-0.41l-14.32,14.32c-1.23,1.23-2.06,2.78-2.41,4.48l-2.88,9.14
			l-10.5,10.5l14.42,14.42l10.5-10.5l0,0c5.81-2.53,12.36-7.39,16.85-11.88l2.03-2.03l0.05-0.05l11.94-11.94
			C-393.77-118.36-393.77-119.68-394.59-120.5z"/>
	</g>
	<path class="st0" d="M-386.22-117.35c-0.82-0.82-2.15-0.82-2.97,0l-11.94,11.94l-0.6-0.6l14.89-14.89c1.02-1.02,1.02-2.67,0-3.68
		c-1.02-1.02-2.67-1.02-3.68,0l-14.89,14.89l-0.5-0.5l16.15-16.15c1.02-1.02,1.02-2.67,0-3.68c-1.02-1.02-2.67-1.02-3.68,0
		l-16.15,16.15l-0.53-0.53l14.84-14.84c1.02-1.02,1.02-2.67,0-3.68c-1.02-1.02-2.67-1.02-3.68,0l-17.37,17.37l-0.95-0.95l9.75-9.75
		c1.11-1.11,1.39-2.91,0.46-4.19c-1.17-1.63-3.46-1.77-4.82-0.41l-14.32,14.32c-1.23,1.23-2.07,2.78-2.41,4.48l-2.88,9.14
		l-10.5,10.5l14.42,14.42l10.5-10.5l0,0c5.81-2.53,12.36-7.39,16.85-11.88l2.03-2.03l0.05-0.05l11.94-11.94
		C-385.4-115.21-385.4-116.53-386.22-117.35z"/>
	<rect x="-452.18" y="-93.02" transform="matrix(0.7071 0.7071 -0.7071 0.7071 -193.0509 285.5246)" width="22.01" height="5.52"/>
	<path class="st5" d="M-429.14-110.42l-0.93,2.97l16.94,16.94c0.81-0.46,1.62-0.95,2.43-1.47L-429.14-110.42z"/>
	<path class="st5" d="M-403.64-97.25l-20.93-20.93l-1.65,1.65c-0.1,0.1-0.18,0.22-0.28,0.32l20.71,20.71
		C-405.05-96.07-404.33-96.65-403.64-97.25z"/>
	<path d="M-407.56-94.15l-20.23-20.23c-0.26,0.5-0.46,1.02-0.62,1.56l19.58,19.58C-408.41-93.54-407.99-93.84-407.56-94.15z"/>
	
		<rect x="-443.84" y="-89.9" transform="matrix(0.7071 0.7071 -0.7071 0.7071 -188.3888 280.533)" class="st7" width="22.01" height="5.52"/>
</g>
<g>
	<g>
		<path class="st1" d="M-502.25,56.17l-21.7,24.75l4.43,3.89l21.7-24.75c1.07-1.22,0.95-3.09-0.27-4.16l0,0
			C-499.32,54.82-501.18,54.94-502.25,56.17z"/>
		<rect x="-527.59" y="81.79" transform="matrix(0.7519 0.6592 -0.6592 0.7519 -73.3439 367.2433)" width="5.9" height="8.75"/>
		<path class="st6" d="M-544.53,114.26l-3.42-1.51l-1.94-3.2c-3.15-5.18-2.57-11.81,1.43-16.38l10.95-12.49l19.99,17.53
			l-10.95,12.49C-532.48,115.27-538.98,116.71-544.53,114.26z"/>
		<path class="st7" d="M-529.74,87.51l-9.87,11.26c-1.19,1.36-1.81,3.12-1.73,4.95l0.01,0.3c0.03,0.61,0.56,1.08,1.17,1.02l0.3-0.03
			c1.82-0.16,3.49-1,4.68-2.36l9.87-11.26L-529.74,87.51z"/>
		
			<rect x="-542.71" y="89.11" transform="matrix(0.7519 0.6593 -0.6593 0.7519 -71.4474 370.8546)" class="st7" width="28.55" height="2.78"/>
		<path class="st4" d="M-528.45,110.68l10.92-12.46l-9.99-8.76l-20.43,23.3l3.38,1.49C-539,116.71-532.47,115.26-528.45,110.68z"/>
	</g>
	<g>
		<rect x="-523.38" y="112.46" class="st1" width="40.56" height="2.98"/>
		<path class="st1" d="M-504.83,67.78l-11.09,44.69h25.63l-11.09-44.69C-501.9,66.09-504.29,66.09-504.83,67.78z"/>
		<polygon class="st5" points="-514.45,106.58 -491.74,106.58 -493.16,100.87 -513.04,100.87 		"/>
		<polygon class="st5" points="-511.6,95.08 -494.6,95.08 -496.01,89.38 -510.19,89.38 		"/>
		<polygon class="st5" points="-498.86,77.88 -507.33,77.88 -508.75,83.58 -497.45,83.58 		"/>
	</g>
</g>
<g>
	<g>
		<path class="st0" d="M-212.66-97.5c-2.24,1.95-5.16,3.14-8.37,3.14c-3.2,0-6.13-1.19-8.37-3.14l-11.95,13.43
			c-0.52,0.59-0.2,1.53,0.58,1.66l4.94,0.84c1.26,0.21,2.48,0.61,3.62,1.2c3.44,1.76,7.21,3.65,11.17,3.65s7.74-1.89,11.17-3.65
			c1.14-0.58,2.36-0.98,3.62-1.2l4.94-0.84c0.78-0.13,1.11-1.07,0.58-1.66L-212.66-97.5z"/>
		<path class="st0" d="M-204.7-131.53c-2.41,0-4.76-0.68-6.8-1.98c-2.99-1.9-6.19-4.01-9.54-4.01s-6.55,2.1-9.54,4.01
			c-2.03,1.29-4.39,1.98-6.8,1.98h-2.95c-0.87,0-1.33,1.02-0.75,1.67l11.67,13.11c2.24-1.95,5.16-3.14,8.37-3.14
			c3.21,0,6.13,1.19,8.37,3.14l11.67-13.11c0.58-0.65,0.12-1.67-0.75-1.67H-204.7z"/>
		<path class="st0" d="M-195.49-121.92l-0.84-4.94c-0.13-0.78-1.07-1.11-1.66-0.58l-13.43,11.95c1.95,2.24,3.14,5.16,3.14,8.37
			c0,3.2-1.19,6.13-3.14,8.37l13.43,11.95c0.59,0.52,1.52,0.2,1.66-0.58l0.84-4.94c0.21-1.26,0.61-2.48,1.2-3.62
			c1.76-3.44,3.65-7.21,3.65-11.17c0-3.97-1.89-7.74-3.65-11.17C-194.87-119.43-195.27-120.66-195.49-121.92z"/>
		<path class="st0" d="M-230.65-115.49l-13.11-11.67c-0.65-0.58-1.67-0.12-1.67,0.75v2.95c0,2.41-0.68,4.76-1.98,6.8
			c-1.9,2.99-4,6.19-4,9.54c0,3.35,2.1,6.55,4,9.54c1.29,2.03,1.98,4.39,1.98,6.8v2.95c0,0.87,1.02,1.33,1.67,0.75l13.11-11.67
			c-1.95-2.24-3.14-5.16-3.14-8.37C-233.79-110.33-232.6-113.25-230.65-115.49z"/>
	</g>
	<path d="M-201.41-107.12c0,10.83-8.78,19.62-19.62,19.62c-10.83,0-19.62-8.78-19.62-19.62c0-10.83,8.78-19.62,19.62-19.62
		C-210.2-126.74-201.41-117.96-201.41-107.12z"/>
	<g>
		<path class="st1" d="M-221.03-90.08c-9.35,0-16.96-7.61-16.96-16.96c0-9.35,7.61-16.96,16.96-16.96s16.96,7.61,16.96,16.96
			C-204.08-97.69-211.68-90.08-221.03-90.08z M-221.03-121.46c-7.95,0-14.42,6.47-14.42,14.42c0,7.95,6.47,14.42,14.42,14.42
			c7.95,0,14.42-6.47,14.42-14.42C-206.61-114.99-213.08-121.46-221.03-121.46z"/>
	</g>
	<g>
		<path class="st5" d="M-221.03-92.62c-7.95,0-14.42-6.47-14.42-14.42c0-7.95,6.47-14.42,14.42-14.42s14.42,6.47,14.42,14.42
			C-206.61-99.09-213.08-92.62-221.03-92.62z M-221.03-120.02c-7.16,0-12.98,5.82-12.98,12.98c0,7.16,5.82,12.98,12.98,12.98
			s12.98-5.82,12.98-12.98C-208.05-114.2-213.87-120.02-221.03-120.02z"/>
	</g>
	<g>
		<path class="st5" d="M-209.7-109.03L-209.7-109.03l-0.05-0.05l-1.14-0.16c-1.3-0.18-2.5-0.78-3.42-1.7l-2.56-2.56l-2.75-1.72
			l1.53,2.94l-0.83,0.83c-0.22,0.22-0.22,0.57,0,0.78l0.84,0.84l-1.77,1.77l0,0l-0.92,0.92l-0.92-0.92l-1.83-1.83l-1.36,1.36
			l2.75,2.75l-5.32,5.32c-0.38,0.37-0.38,0.98,0,1.36c0.37,0.37,0.98,0.37,1.36,0l5.32-5.32l5.32,5.32c0.38,0.37,0.98,0.37,1.36,0
			c0.38-0.37,0.38-0.98,0-1.36l-5.32-5.32l0.92-0.92l1.77-1.77c0.91,0.92,1.5,2.11,1.68,3.4l0.16,1.14l0.05,0.05
			c0.31-0.04,0.62-0.11,0.92-0.2c0.91-0.28,1.78-0.78,2.51-1.52c0.66-0.66,1.13-1.44,1.42-2.25
			C-209.86-108.25-209.75-108.64-209.7-109.03L-209.7-109.03z"/>
		<path class="st5" d="M-229.47-114.49l2.01,3.73c-0.07,0.05-0.15,0.11-0.21,0.17c-0.69,0.69-0.69,1.82,0,2.51l0.53,0.53
			c-0.44-0.44-0.44-1.14,0-1.58c0.43-0.44,1.14-0.44,1.58,0l0.04,0.04l0.63,0.54l0.01-0.01l1.35-1.35l-2.17-2.55L-229.47-114.49z"/>
	</g>
</g>
</svg>
