<?xml version="1.0" encoding="utf-8"?>
<!-- Generator: Adobe Illustrator 25.3.0, SVG Export Plug-In . SVG Version: 6.00 Build 0)  -->
<svg version="1.1" id="Ñëîé_1" xmlns="http://www.w3.org/2000/svg" xmlns:xlink="http://www.w3.org/1999/xlink" x="0px" y="0px"
	 viewBox="0 0 59.29 59.96" style="enable-background:new 0 0 59.29 59.96;" xml:space="preserve">
<style type="text/css">
	.st0{fill:#FF4431;}
	.st1{fill:#E53013;}
	.st2{opacity:0.2;}
	.st3{opacity:0.3;}
	.st4{opacity:0.1;}
	.st5{fill:#CCD7E2;}
	.st6{fill:#4F5266;}
	.st7{fill:#353747;}
	.st8{opacity:0.4;}
	.st9{fill:#78CFF1;}
	.st10{opacity:0.5;}
	.st11{fill:#049AB2;}
	.st12{fill:#FFB32C;}
	.st13{fill:#FFD67B;}
</style>
<g>
	<g>
		<rect x="-475.62" y="173.53" class="st0" width="30.67" height="41.42"/>
	</g>
	<g>
		<rect x="-444.96" y="177.83" class="st1" width="2.55" height="15.95"/>
	</g>
	<g>
		<path class="st0" d="M-460.29,160.36c-6.82,0-12.59,4.45-14.58,10.61h29.16C-447.7,164.82-453.48,160.36-460.29,160.36z"/>
	</g>
	<g>
		<rect x="-442.4" y="179.87" class="st0" width="2.56" height="11.86"/>
	</g>
	<g class="st2">
		<rect x="-461.27" y="163.73" width="2.56" height="3.87"/>
	</g>
	<g class="st2">
		<rect x="-470.81" y="198.36" width="2.56" height="14.01"/>
	</g>
	<g class="st2">
		<rect x="-461.12" y="198.36" width="2.56" height="14.01"/>
	</g>
	<g class="st2">
		<rect x="-451.43" y="198.36" width="2.56" height="14.01"/>
	</g>
	<g>
		<rect x="-478.37" y="170.97" class="st1" width="36.16" height="2.56"/>
	</g>
	<g>
		<rect x="-475.62" y="214.94" class="st1" width="30.67" height="2.55"/>
	</g>
	<g>
		<polygon class="st0" points="-479.71,222.1 -440.87,222.1 -444.96,217.5 -475.62,217.5 		"/>
	</g>
	<g>
		<rect x="-466.04" y="158.9" class="st1" width="11.5" height="2.55"/>
	</g>
	<g class="st2">
		<path d="M-469.44,167.6h2.91c0.47-1.19,2.74-3.24,3.85-3.87h-2.98C-467.2,164.53-468.65,166.15-469.44,167.6z"/>
	</g>
	<g class="st2">
		<path d="M-450.2,167.6H-453c-0.82-1.64-2.86-3.24-3.96-3.87h2.98C-452.44,164.53-450.99,166.15-450.2,167.6z"/>
	</g>
	<g>
		<g>
			<path class="st1" d="M-459.44,193.77c-4.4,0-7.97-3.58-7.97-7.97c0-4.4,3.58-7.97,7.97-7.97c4.4,0,7.97,3.58,7.97,7.97
				C-451.47,190.2-455.04,193.77-459.44,193.77z M-459.44,180.38c-2.99,0-5.42,2.43-5.42,5.42c0,2.99,2.43,5.42,5.42,5.42
				c2.99,0,5.42-2.43,5.42-5.42C-454.02,182.81-456.45,180.38-459.44,180.38z"/>
		</g>
	</g>
	<g>
		<rect x="-478.18" y="177.83" class="st1" width="2.56" height="15.95"/>
	</g>
	<g>
		<rect x="-480.74" y="179.87" class="st0" width="2.56" height="11.86"/>
	</g>
	<g class="st3">
		<polygon points="-461.2,188.84 -462.95,185.8 -461.2,182.76 -457.68,182.76 -455.93,185.8 -457.68,188.84 		"/>
	</g>
	<g class="st4">
		<rect x="-459.84" y="173.53" width="14.89" height="41.42"/>
	</g>
	<g class="st4">
		<path d="M-459.84,170.97h14.13c-1.42-4.38-4.76-7.85-9.02-9.52h-5.12V170.97z"/>
	</g>
	<g class="st4">
		<polygon points="-459.84,173.53 -444.96,173.53 -442.21,173.53 -442.21,170.97 -445.71,170.97 -459.84,170.97 		"/>
	</g>
	<g class="st4">
		<rect x="-459.84" y="214.94" width="14.89" height="2.55"/>
	</g>
	<g class="st4">
		<polygon points="-444.96,217.5 -459.84,217.5 -459.84,222.1 -440.87,222.1 		"/>
	</g>
	<g class="st4">
		<polygon points="-459.84,158.9 -459.84,160.4 -459.84,161.45 -454.73,161.45 -454.54,161.45 -454.54,158.9 		"/>
	</g>
</g>
<g>
	<g>
		<path d="M15.76,31.01l-1.11,0.32l-5.6,1.61l-1.04,0.3l2.69,9.33l1.04-0.3l4.49,15.58c0.45,1.55,2.06,2.44,3.61,1.99l0,0
			c1.55-0.45,2.44-2.06,1.99-3.61l-4.49-15.58l1.11-0.32L15.76,31.01z"/>
	</g>
	<g>
		<path d="M13.59,26.02c0,3.75-3.04,6.8-6.8,6.8S0,29.78,0,26.02s3.04-6.8,6.8-6.8S13.59,22.27,13.59,26.02z"/>
	</g>
	<g>
		<path class="st5" d="M59.29,26.02c0,3.75-3.04,6.8-6.8,6.8c-3.75,0-6.8-3.04-6.8-6.8s3.04-6.8,6.8-6.8
			C56.25,19.23,59.29,22.27,59.29,26.02z"/>
	</g>
	<g>
		<path class="st6" d="M16.32,17.29H3.13v17.48h13.19c0.17,0,0.33,0.01,0.5,0.02V17.27C16.65,17.27,16.48,17.29,16.32,17.29z"/>
	</g>
	<g>
		<path class="st6" d="M37.75,11.44c-5.51,3.25-11.67,5.18-18.02,5.69v17.79c6.35,0.51,12.51,2.44,18.02,5.69L52.5,52.05V0
			L37.75,11.44z"/>
	</g>
	<g>
		<path d="M16.81,17.27v17.51c0.97,0.01,1.95,0.06,2.91,0.14V17.13C18.76,17.21,17.79,17.26,16.81,17.27z"/>
	</g>
	<g>
		<path class="st7" d="M16.32,34.76c0.17,0,0.33,0.01,0.5,0.02v-8.76H3.13v8.74H16.32z"/>
	</g>
	<g>
		<path class="st7" d="M19.73,34.92c6.35,0.51,12.51,2.44,18.02,5.69L52.5,52.05V26.02H19.73V34.92z"/>
	</g>
	<g>
		<polygon class="st5" points="46.07,4.98 46.07,47.07 47.59,48.24 47.59,3.81 		"/>
	</g>
	<g>
		<polygon class="st5" points="41.02,8.9 41.02,43.15 42.53,44.32 42.53,7.73 		"/>
	</g>
</g>
<g>
	<g>
		<g>
			<rect x="-118.99" y="11.07" class="st6" width="4.62" height="10.9"/>
		</g>
	</g>
	<g class="st2">
		<path d="M-114.36,21.81V11.07h-2.31v10.52C-115.89,21.59-115.11,21.67-114.36,21.81z"/>
	</g>
	<g>
		<path class="st0" d="M-107.33,71.82h-18.7c-1.76,0-3.19-1.43-3.19-3.19v-34.5c0-6.93,5.62-12.54,12.54-12.54l0,0
			c6.93,0,12.54,5.62,12.54,12.54v34.5C-104.13,70.39-105.56,71.82-107.33,71.82z"/>
	</g>
	<g>
		<path class="st1" d="M-104.13,34.13c0-6.14-4.41-11.23-10.23-12.32l0,0h-2.31v50.01h9.35c1.76,0,3.19-1.43,3.19-3.19V34.13z"/>
	</g>
	<g>
		<g>
			<path class="st7" d="M-95.9,15.98l-17.06-5.08l0.66-2.22l14.93,4.45c1.18,0.35,1.85,1.59,1.5,2.77L-95.9,15.98z"/>
		</g>
	</g>
	<g>
		<g>
			<rect x="-119.65" y="19.51" width="5.95" height="2.31"/>
		</g>
	</g>
	<g>
		<path d="M-122.37,8.76L-122.37,8.76c0,1.28,1.03,2.31,2.31,2.31h0.4v2.31h5.95v-2.31h0.28c1.26,0,2.49-0.32,3.59-0.92l0,0
			c1.1-0.61,2.34-0.92,3.59-0.92h9.07c1.53,0,2.77-1.24,2.77-2.77l0,0h-25.66C-121.33,6.45-122.37,7.48-122.37,8.76z"/>
	</g>
	<g>
		<g>
			<path class="st7" d="M-133.24,39.16h-2.31v-4.1c0-10.82,8.77-19.59,19.59-19.59h2.25v2.31h-2.77c-9.26,0-16.76,7.5-16.76,16.76
				V39.16z"/>
		</g>
	</g>
	<g>
		<polygon points="-128.73,51.88 -140.29,51.88 -136.59,39.16 -132.43,39.16 		"/>
	</g>
	<g>
		<rect x="-129.22" y="35.42" class="st5" width="25.08" height="1.2"/>
	</g>
	<g>
		<rect x="-129.22" y="39.54" class="st5" width="25.08" height="1.2"/>
	</g>
	<g class="st8">
		<polygon class="st6" points="-132.43,39.16 -134.51,39.16 -134.51,51.88 -128.73,51.88 		"/>
	</g>
</g>
<g>
	<g>
		<path class="st9" d="M-520.38,196.33c0,3.24-2.63,5.86-5.86,5.86c-3.24,0-5.86-2.63-5.86-5.86s5.86-11.2,5.86-11.2
			S-520.38,193.09-520.38,196.33z"/>
	</g>
	<g>
		<path class="st5" d="M-526.9,195.77c0,0.74-0.6,1.34-1.34,1.34c-0.74,0-1.34-0.6-1.34-1.34c0-0.74,0.6-1.34,1.34-1.34
			C-527.5,194.43-526.9,195.03-526.9,195.77z"/>
	</g>
	<g class="st10">
		<path class="st11" d="M-520.38,196.33c0-3.24-5.86-11.2-5.86-11.2v0v17.07l0,0C-523,202.19-520.38,199.57-520.38,196.33z"/>
	</g>
	<g>
		<g>
			<path class="st11" d="M-519.35,177.05h-1.25c-0.48,0-0.87,0.39-0.87,0.87c0,0.48,0.39,0.87,0.87,0.87h1.25
				c0.48,0,0.87-0.39,0.87-0.87C-518.48,177.44-518.87,177.05-519.35,177.05z"/>
		</g>
		<g>
			<path class="st11" d="M-516.46,177.92c0,0.48,0.39,0.87,0.87,0.87h1.25c0.48,0,0.87-0.39,0.87-0.87c0-0.48-0.39-0.87-0.87-0.87
				h-1.25C-516.07,177.05-516.46,177.44-516.46,177.92z"/>
		</g>
		<g>
			<path class="st11" d="M-511.45,177.92c0,0.48,0.39,0.87,0.87,0.87h1.25c0.48,0,0.87-0.39,0.87-0.87c0-0.48-0.39-0.87-0.87-0.87
				h-1.25C-511.06,177.05-511.45,177.44-511.45,177.92z"/>
		</g>
		<g>
			<path class="st11" d="M-524.36,177.05h-0.67c-0.48,0-0.87,0.39-0.87,0.87c0,0.48,0.39,0.87,0.87,0.87h0.67
				c0.48,0,0.87-0.39,0.87-0.87C-523.49,177.44-523.88,177.05-524.36,177.05z"/>
		</g>
		<g>
			<path class="st11" d="M-514.97,184.61l-1.14-0.53c-0.43-0.2-0.95-0.01-1.15,0.42c-0.2,0.43-0.02,0.95,0.42,1.15l1.14,0.53
				c0.43,0.2,0.95,0.01,1.15-0.42C-514.35,185.32-514.53,184.81-514.97,184.61z"/>
		</g>
		<g>
			<path class="st11" d="M-519.51,182.49l-1.14-0.53c-0.43-0.2-0.95-0.02-1.15,0.42c-0.2,0.44-0.02,0.95,0.42,1.15l1.14,0.53
				c0.43,0.2,0.95,0.01,1.15-0.42C-518.89,183.21-519.08,182.69-519.51,182.49z"/>
		</g>
		<g>
			<path class="st11" d="M-510.43,186.72l-1.14-0.53c-0.44-0.2-0.95-0.01-1.15,0.42c-0.2,0.44-0.01,0.95,0.42,1.15l1.14,0.53
				c0.43,0.2,0.95,0.01,1.15-0.42C-509.8,187.44-509.99,186.93-510.43,186.72z"/>
		</g>
		<g>
			<path class="st11" d="M-524.05,180.37l-0.61-0.28c-0.43-0.2-0.95-0.01-1.15,0.42c-0.2,0.43-0.02,0.95,0.42,1.15l0.6,0.28
				c0.44,0.2,0.95,0.02,1.15-0.42C-523.43,181.09-523.62,180.57-524.05,180.37z"/>
		</g>
		<g>
			<path class="st11" d="M-512.72,169.22c0.2,0.44,0.72,0.62,1.15,0.42l1.14-0.53c0.44-0.2,0.62-0.72,0.42-1.15
				c-0.2-0.43-0.72-0.62-1.15-0.42l-1.14,0.53C-512.73,168.27-512.92,168.78-512.72,169.22z"/>
		</g>
		<g>
			<path class="st11" d="M-521.8,173.45c0.2,0.44,0.72,0.62,1.15,0.42l1.14-0.53c0.43-0.2,0.62-0.72,0.42-1.15
				c-0.2-0.43-0.72-0.62-1.15-0.42l-1.14,0.53C-521.82,172.5-522,173.02-521.8,173.45z"/>
		</g>
		<g>
			<path class="st11" d="M-517.26,171.33c0.2,0.43,0.72,0.62,1.15,0.42l1.14-0.53c0.44-0.2,0.62-0.72,0.42-1.15
				c-0.2-0.43-0.72-0.62-1.15-0.42l-1.14,0.53C-517.27,170.38-517.46,170.9-517.26,171.33z"/>
		</g>
		<g>
			<path class="st11" d="M-524.66,175.74l0.61-0.28c0.43-0.2,0.62-0.72,0.42-1.15c-0.2-0.43-0.72-0.62-1.15-0.42l-0.6,0.28
				c-0.43,0.2-0.62,0.72-0.42,1.15C-525.61,175.76-525.09,175.94-524.66,175.74z"/>
		</g>
	</g>
	<g>
		<g>
			<path d="M-586.35,185.72h-1.63v-15.6h1.63c0.94,0,1.71,0.77,1.71,1.71v12.18C-584.64,184.95-585.4,185.72-586.35,185.72z"/>
		</g>
	</g>
	<g>
		<g>
			<path class="st6" d="M-550.21,217.97c-4.69,0-8.51-3.82-8.51-8.51v-37.93c0-1.01-0.82-1.84-1.84-1.84
				c-1.01,0-1.84,0.82-1.84,1.84v38.09c0,4.6-3.74,8.34-8.34,8.34c-4.6,0-8.34-3.74-8.34-8.34v-25.98c0-1.26-1.03-2.29-2.29-2.29
				h-3.27v-6.67h3.27c4.94,0,8.96,4.02,8.96,8.96v25.98c0,0.92,0.75,1.67,1.67,1.67c0.92,0,1.67-0.75,1.67-1.67v-38.09
				c0-4.69,3.82-8.51,8.51-8.51s8.51,3.82,8.51,8.51v37.93c0,1.01,0.82,1.84,1.83,1.84c1.01,0,1.84-0.82,1.84-1.84v-25.81
				c0-4.94,4.02-8.96,8.96-8.96h2.72v6.67h-2.72c-1.26,0-2.29,1.03-2.29,2.29v25.81C-541.7,214.15-545.52,217.97-550.21,217.97z"/>
		</g>
	</g>
	<g>
		<path d="M-527.03,183.05h-9.02c-0.36,0-0.65-0.29-0.65-0.65v-8.96c0-0.36,0.29-0.65,0.65-0.65h9.02c0.36,0,0.65,0.29,0.65,0.65
			v8.96C-526.38,182.76-526.67,183.05-527.03,183.05z"/>
	</g>
	<g>
		<path class="st7" d="M-537,177.92h-3.1c-2.72,0-4.92,2.2-4.92,4.92v27.43c0,2.72-2.2,4.92-4.92,4.92h-0.46
			c-2.72,0-4.92-2.2-4.92-4.92v-38.88c0-2.72-2.2-4.92-4.92-4.92h-0.56c-2.72,0-4.92,2.2-4.92,4.92v38.39c0,2.72-2.2,4.92-4.92,4.92
			h-0.08c-2.72,0-4.92-2.2-4.92-4.92v-26.95c0-2.72-2.2-4.92-4.92-4.92h-3.1c-0.33,0-0.65,0.04-0.96,0.1v3.35h3.27
			c1.26,0,2.29,1.03,2.29,2.29v25.98c0,2.76,1.36,5.18,3.43,6.71c1.38,1.02,3.07,1.64,4.92,1.64c1.89,0,3.61-0.65,5.01-1.71
			c2.01-1.52,3.34-3.92,3.34-6.63v-38.09c0-1.01,0.82-1.84,1.84-1.84c1.01,0,1.84,0.82,1.84,1.84v37.93c0,2.77,1.35,5.2,3.39,6.76
			c1.43,1.08,3.19,1.75,5.12,1.75c1.96,0,3.75-0.69,5.19-1.81c2.01-1.56,3.32-3.97,3.32-6.7v-25.81c0-1.26,1.03-2.29,2.29-2.29h2.72
			v-3.42C-536.8,177.94-536.9,177.92-537,177.92z"/>
	</g>
</g>
<g>
	<g>
		<g>
			<path d="M-341.98-18.77h-2.56v-2.17c0-9.25-7.53-16.78-16.78-16.78s-16.78,7.53-16.78,16.78v2.17h-2.56v-2.17
				c0-10.66,8.67-19.34,19.34-19.34c10.66,0,19.34,8.67,19.34,19.34V-18.77z"/>
		</g>
	</g>
	<g>
		<path class="st0" d="M-361.06,22.16L-361.06,22.16l-0.05-0.03c-12.88-8.96-20.57-23.65-20.57-39.35v-1.55h40.72v1.91
			C-340.96-1.37-348.45,13.17-361.06,22.16L-361.06,22.16z"/>
	</g>
	<g>
		<path class="st7" d="M-346.07-23.05v4.28h5.11v-4.28c0-1.41-1.14-2.56-2.55-2.56l0,0C-344.93-25.61-346.07-24.46-346.07-23.05z"/>
	</g>
	<g>
		<path class="st7" d="M-381.68-23.05v4.28h5.11v-4.28c0-1.41-1.14-2.56-2.56-2.56l0,0C-380.53-25.61-381.68-24.46-381.68-23.05z"/>
	</g>
	<g>
		<path class="st1" d="M-361.06,22.16c12.61-8.99,20.1-23.53,20.1-39.02v-1.91h-20.32V22c0.06,0.04,0.11,0.09,0.17,0.13
			L-361.06,22.16z"/>
	</g>
	<g>
		<rect x="-381.68" y="-18.79" width="40.72" height="1.33"/>
	</g>
	<g>
		<path class="st5" d="M-341.24-11.85h-40.13c0.05,0.44,0.11,0.89,0.18,1.33h39.79C-341.33-10.96-341.28-11.41-341.24-11.85z"/>
	</g>
	<g>
		<path class="st5" d="M-380.32-5.92h38.09c0.1-0.44,0.19-0.89,0.28-1.33h-38.66C-380.51-6.81-380.43-6.36-380.32-5.92z"/>
	</g>
</g>
<g>
	<g>
		<g>
			<path class="st1" d="M-455.27-109.93l-30.44,30.44c-1.21,1.21-1.21,3.17,0,4.38l0,0c1.21,1.21,3.17,1.21,4.38,0l30.44-30.44
				L-455.27-109.93z"/>
		</g>
		<g>
			
				<rect x="-459.14" y="-108.97" transform="matrix(0.7071 0.7071 -0.7071 0.7071 -207.6897 291.7922)" width="6.19" height="8.36"/>
		</g>
		<g>
			<path class="st6" d="M-428.36-107.12l-0.17-0.17l-3.7-0.52c-4.18-0.58-8.06-2.52-11.05-5.5l-8.28-8.28l-8.89-5.55l4.95,9.5
				l-2.68,2.68c-0.7,0.7-0.7,1.83,0,2.53l7.01,7.01c2.99,2.99,4.92,6.87,5.5,11.05l0.52,3.7l0.17,0.17
				c3.99-0.53,7.92-2.39,11.07-5.54C-430.75-99.2-428.9-103.13-428.36-107.12z"/>
		</g>
		<g>
			<path class="st7" d="M-458.18-112.44l7.01,7.01c2.99,2.99,4.92,6.87,5.5,11.05l0.51,3.7l0.17,0.17
				c3.99-0.53,7.92-2.39,11.07-5.54l-21.6-21.6l-2.68,2.68C-458.88-114.27-458.88-113.14-458.18-112.44z"/>
		</g>
		<g class="st4">
			<path d="M-428.36-107.12l-0.17-0.17l-3.7-0.52c-0.08-0.01-0.16-0.04-0.24-0.05c-0.88,3.01-2.52,5.89-4.94,8.31
				c-2.42,2.42-5.3,4.06-8.31,4.94c0.01,0.08,0.04,0.16,0.05,0.24l0.51,3.7l0.17,0.17c3.99-0.53,7.92-2.39,11.07-5.54
				C-430.75-99.2-428.9-103.13-428.36-107.12z"/>
		</g>
	</g>
	<g>
		<g>
			<path class="st1" d="M-473.03-109.93l30.44,30.44c1.21,1.21,1.21,3.17,0,4.38l0,0c-1.21,1.21-3.17,1.21-4.38,0l-30.44-30.44
				L-473.03-109.93z"/>
		</g>
		<g>
			
				<rect x="-475.36" y="-108.97" transform="matrix(-0.7071 0.7071 -0.7071 -0.7071 -880.2791 155.0785)" width="6.19" height="8.36"/>
		</g>
		<g>
			<path class="st6" d="M-486.4-112.14c0.21-0.21,0.45-0.39,0.68-0.56l-6.51-12.05l12.18,6.58l7.01,8.24l-4.35,4.35l-0.03,0.03
				l-2.04-1.73l-0.14-0.12c-1.41-1.41-3.68-1.41-5.09,0c-1.41,1.41-1.41,3.69,0,5.09l-1.72-1.72
				C-488.64-106.28-488.64-109.9-486.4-112.14z"/>
		</g>
		<g>
			<path class="st7" d="M-479.59-107.41c-1.41-1.41-3.68-1.41-5.09,0c-1.41,1.41-1.41,3.69,0,5.09l-1.72-1.72
				c-2.24-2.24-2.24-5.87,0-8.1c0.21-0.21,0.45-0.39,0.68-0.56l-6.51-12.05l0.27,0.14l16.8,16.8l-2.22,2.22l-0.03,0.03l-2.04-1.73
				L-479.59-107.41z"/>
		</g>
	</g>
</g>
<g>
	<g>
		<path class="st6" d="M-71.63,176.96c-1.76,0-3.19-1.43-3.19-3.19v-7.06c0-1.54-1.25-2.8-2.8-2.8l0,0c-1.54,0-2.79,1.25-2.79,2.8
			v53.57c0,1.58,1.28,2.87,2.87,2.87h24.18c1.58,0,2.87-1.28,2.87-2.87v-40.45c0-1.58-1.28-2.87-2.87-2.87H-71.63z"/>
	</g>
	<g>
		<rect x="-75.38" y="182.02" class="st5" width="19.85" height="11.9"/>
	</g>
	<g>
		<path class="st7" d="M-56.15,218.47h-18.6c-0.35,0-0.63-0.28-0.63-0.63v-1.55c0-0.35,0.28-0.63,0.63-0.63h18.6
			c0.35,0,0.63,0.28,0.63,0.63v1.55C-55.53,218.19-55.81,218.47-56.15,218.47z"/>
	</g>
	<g>
		<path class="st7" d="M-70.31,204.49h-4.55c-0.29,0-0.52-0.23-0.52-0.52v-4.55c0-0.29,0.23-0.52,0.52-0.52h4.55
			c0.29,0,0.52,0.23,0.52,0.52v4.55C-69.79,204.26-70.02,204.49-70.31,204.49z"/>
	</g>
	<g>
		<path class="st7" d="M-63,204.49h-4.55c-0.29,0-0.52-0.23-0.52-0.52v-4.55c0-0.29,0.23-0.52,0.52-0.52H-63
			c0.29,0,0.52,0.23,0.52,0.52v4.55C-62.48,204.26-62.71,204.49-63,204.49z"/>
	</g>
	<g>
		<path class="st1" d="M-55.69,204.49h-4.55c-0.29,0-0.52-0.23-0.52-0.52v-4.55c0-0.29,0.23-0.52,0.52-0.52h4.55
			c0.29,0,0.52,0.23,0.52,0.52v4.55C-55.16,204.26-55.4,204.49-55.69,204.49z"/>
	</g>
	<g>
		<path class="st7" d="M-70.22,211.67h-4.55c-0.29,0-0.52-0.23-0.52-0.52v-4.55c0-0.29,0.23-0.52,0.52-0.52h4.55
			c0.29,0,0.52,0.23,0.52,0.52v4.55C-69.69,211.44-69.93,211.67-70.22,211.67z"/>
	</g>
	<g>
		<path class="st7" d="M-62.9,211.67h-4.55c-0.29,0-0.52-0.23-0.52-0.52v-4.55c0-0.29,0.23-0.52,0.52-0.52h4.55
			c0.29,0,0.52,0.23,0.52,0.52v4.55C-62.38,211.44-62.62,211.67-62.9,211.67z"/>
	</g>
	<g>
		<path class="st7" d="M-55.59,211.67h-4.55c-0.29,0-0.52-0.23-0.52-0.52v-4.55c0-0.29,0.23-0.52,0.52-0.52h4.55
			c0.29,0,0.52,0.23,0.52,0.52v4.55C-55.07,211.44-55.3,211.67-55.59,211.67z"/>
	</g>
	<g>
		<path class="st1" d="M-74.82,166.7c0-1.54-1.25-2.8-2.8-2.8c-1.54,0-2.79,1.25-2.79,2.8v2.8h5.59V166.7z"/>
	</g>
	<g>
		<g>
			<path class="st1" d="M-48.5,175.17c-0.41,0.28-0.52,0.83-0.24,1.24c0.39,0.57,0.59,1.24,0.59,1.94c0,0.55-0.12,1.07-0.37,1.55
				c-0.22,0.44-0.04,0.98,0.4,1.2c0.13,0.06,0.27,0.09,0.4,0.09c0.33,0,0.64-0.18,0.8-0.49c0.37-0.73,0.56-1.54,0.56-2.36
				c0-1.05-0.31-2.07-0.9-2.94C-47.53,175-48.09,174.89-48.5,175.17z"/>
		</g>
		<g>
			<path class="st1" d="M-39.58,170.22c-0.28-0.41-0.84-0.52-1.24-0.24c-0.41,0.28-0.52,0.83-0.24,1.24
				c1.42,2.1,2.18,4.57,2.18,7.12c0,2.27-0.6,4.5-1.75,6.44c-0.25,0.43-0.11,0.98,0.32,1.23c0.14,0.08,0.3,0.12,0.45,0.12
				c0.31,0,0.61-0.16,0.77-0.44c1.31-2.22,2-4.76,2-7.35C-37.1,175.43-37.96,172.62-39.58,170.22z"/>
		</g>
		<g>
			<path class="st1" d="M-44.41,172.84c-0.42,0.26-0.55,0.81-0.29,1.23c0.79,1.28,1.21,2.76,1.21,4.27c0,1.35-0.34,2.69-0.98,3.87
				c-0.24,0.43-0.08,0.98,0.36,1.21c0.14,0.07,0.28,0.11,0.43,0.11c0.32,0,0.62-0.17,0.79-0.47c0.78-1.44,1.2-3.08,1.2-4.73
				c0-1.85-0.51-3.65-1.48-5.22C-43.44,172.71-43.99,172.58-44.41,172.84z"/>
		</g>
	</g>
	<g class="st2">
		<rect x="-65.45" y="182.02" class="st7" width="9.92" height="11.9"/>
	</g>
</g>
<g>
	<g>
		<rect x="64" y="180.76" class="st0" width="51.13" height="56.22"/>
	</g>
	<g>
		<rect x="69.16" y="206.32" class="st7" width="41.02" height="25.54"/>
	</g>
	<g>
		<rect x="76.75" y="216.07" width="25.84" height="5.11"/>
	</g>
	<g>
		<rect x="69.11" y="185.87" class="st5" width="41.02" height="15.33"/>
	</g>
	<g>
		<path class="st1" d="M83.71,218.63c0,3.29,2.67,5.96,5.96,5.96c3.29,0,5.96-2.67,5.96-5.96c0-3.29-2.67-5.96-5.96-5.96
			C86.38,212.66,83.71,215.33,83.71,218.63z"/>
	</g>
	<g>
		<g>
			<path class="st1" d="M78.1,189.56h5.2v1.77h-3.09v1.52h2.65v1.76h-2.65v2.92H78.1V189.56z"/>
		</g>
		<g>
			<path class="st1" d="M84.68,189.56h2.11v7.97h-2.11V189.56z"/>
		</g>
		<g>
			<path class="st1" d="M92.84,197.53l-1.37-2.67h-0.81v2.67h-2.11v-7.97h3.02c1.72,0,3.19,0.59,3.19,2.57
				c0,1.14-0.52,1.89-1.29,2.3l1.73,3.09H92.84z M90.66,193.18h0.76c0.83,0,1.27-0.37,1.27-1.05c0-0.69-0.44-0.91-1.27-0.91h-0.76
				V193.18z"/>
		</g>
		<g>
			<path class="st1" d="M96.28,189.56h5.15v1.77h-3.04v1.25h2.6v1.77h-2.6v1.42h3.16v1.76h-5.27V189.56z"/>
		</g>
	</g>
</g>
<g>
	<g>
		<path class="st6" d="M-361.35,211.55L-361.35,211.55c-11.55,0-20.91-9.36-20.91-20.91V163.1c0-1.69,1.37-3.06,3.06-3.06h35.7
			c1.69,0,3.06,1.37,3.06,3.06v27.54C-340.43,202.19-349.8,211.55-361.35,211.55z"/>
	</g>
	<g>
		<path class="st5" d="M-346.65,186.12h-29.39c-0.4,0-0.72-0.32-0.72-0.72v-19.04c0-0.4,0.32-0.72,0.72-0.72h29.39
			c0.4,0,0.72,0.32,0.72,0.72v19.04C-345.94,185.8-346.26,186.12-346.65,186.12z"/>
	</g>
	<g>
		
			<rect x="-377.74" y="202.14" transform="matrix(0.7071 -0.7071 0.7071 0.7071 -254.1601 -203.4391)" width="10.18" height="5.87"/>
	</g>
	<g>
		<rect x="-386.5" y="213.99" transform="matrix(0.7071 -0.7071 0.7071 0.7071 -266.5439 -208.5686)" width="2.93" height="6.95"/>
	</g>
	<g>
		<path class="st1" d="M-380.08,220.34l-7.83-7.83c-0.26-0.26-0.26-0.69,0-0.96l6.79-6.79c0.26-0.26,0.69-0.26,0.96,0l7.83,7.83
			c0.26,0.26,0.26,0.69,0,0.96l-6.79,6.79C-379.39,220.6-379.82,220.6-380.08,220.34z"/>
	</g>
	<g>
		
			<rect x="-352.92" y="199.69" transform="matrix(0.7071 -0.7071 0.7071 0.7071 -247.3095 -187.4969)" width="5.87" height="10.18"/>
	</g>
	<g>
		<rect x="-341.07" y="215.7" transform="matrix(0.7071 -0.7071 0.7071 0.7071 -252.439 -175.1132)" width="6.95" height="2.94"/>
	</g>
	<g>
		<path class="st1" d="M-342.55,220.04l7.83-7.83c0.26-0.26,0.26-0.69,0-0.96l-6.79-6.79c-0.26-0.26-0.69-0.26-0.96,0l-7.83,7.83
			c-0.26,0.26-0.26,0.69,0,0.96l6.79,6.79C-343.25,220.3-342.82,220.3-342.55,220.04z"/>
	</g>
	<g>
		<path class="st7" d="M-351.54,200.37c0,5.42-4.39,9.81-9.81,9.81c-5.42,0-9.81-4.39-9.81-9.81c0-5.42,4.39-9.81,9.81-9.81
			C-355.93,190.56-351.54,194.96-351.54,200.37z"/>
	</g>
	<g>
		<path d="M-354.49,200.37c0,3.79-3.07,6.85-6.85,6.85c-3.79,0-6.85-3.07-6.85-6.85c0-3.79,3.07-6.85,6.85-6.85
			C-357.56,193.52-354.49,196.59-354.49,200.37z"/>
	</g>
	<g>
		<path class="st5" d="M-357.26,200.37c0,2.26-1.83,4.08-4.08,4.08c-2.26,0-4.08-1.83-4.08-4.08c0-2.26,1.83-4.08,4.08-4.08
			C-359.09,196.29-357.26,198.12-357.26,200.37z"/>
	</g>
	<g class="st2">
		<path class="st7" d="M-345.94,185.27v-18.76c0-0.47-0.38-0.85-0.85-0.85h-14.56v20.47h14.56
			C-346.32,186.12-345.94,185.74-345.94,185.27z"/>
	</g>
	<g>
		<path class="st5" d="M-353.64,167.82v1.53h3.44c0.3,0,0.54,0.24,0.54,0.54v12.83h1.53v-13.78c0-0.62-0.5-1.11-1.11-1.11H-353.64z"
			/>
	</g>
</g>
<g>
	<g>
		<g>
			<path class="st0" d="M199.64,33.61L199.64,33.61c-0.99-5.44-2.91-10.67-5.68-15.45l-1.84-3.18l-3.58,5.01l0,0
				c-2.06-5.48-5.17-10.5-9.14-14.8L176,1.51l-3.9,4.38c-3.41,3.84-6.15,8.23-8.09,12.98l-0.45,1.11l-3.69-5.01l-2.12,3.76
				c-2.44,4.33-4.19,9.01-5.19,13.88l-0.2,0.99l-2.5-5.01l-0.22,0.83c-3.52,13.22,2.9,27.44,15.57,32.6c3.33,1.36,6.98,2.1,10.8,2.1
				l0,0c3.83,0,7.48-0.75,10.82-2.11c12.66-5.16,19.07-19.39,15.55-32.59l-0.22-0.83L199.64,33.61z"/>
		</g>
		<g>
			<path class="st12" d="M193.85,38.57L193.85,38.57c-0.75-4.11-2.2-8.06-4.29-11.67l-1.39-2.4l-2.7,3.78l0,0
				c-1.56-4.14-3.9-7.93-6.9-11.17L176,14.34l-2.94,3.31c-2.58,2.9-4.64,6.21-6.11,9.81l-0.34,0.84l-2.79-3.78l-1.6,2.84
				c-1.84,3.27-3.17,6.81-3.92,10.48l-0.15,0.75l-1.89-3.78l-0.17,0.63c-2.66,9.98,2.19,20.72,11.76,24.62
				c2.52,1.02,5.27,1.59,8.16,1.59l0,0c2.89,0,5.65-0.57,8.17-1.6c9.56-3.9,14.4-14.64,11.74-24.62l-0.17-0.63L193.85,38.57z"/>
		</g>
		<g>
			<path class="st13" d="M178.61,33.19l-2.57-2.78l-2.94,3.31c-0.79,0.89-1.57,1.87-2.31,2.91c-2.75,3.84-4.14,8.5-4.15,13.22l0,0
				c-0.02,5.18,4.18,9.4,9.37,9.4l0,0c5.17,0,9.37-4.19,9.37-9.36v-0.23c0-4.61-1.27-9.19-3.92-12.96
				C180.58,35.47,179.64,34.3,178.61,33.19z"/>
		</g>
		<g>
			<path class="st1" d="M186.82,62.02c12.66-5.16,19.07-19.39,15.55-32.59l-0.22-0.83l-2.5,5.01c-0.99-5.44-2.91-10.67-5.68-15.45
				l-1.84-3.18l-3.58,5.01c-2.06-5.48-5.17-10.5-9.14-14.8L176,1.51l0,0v12.83l0,0l2.57,2.78c3,3.24,5.35,7.04,6.9,11.17l2.7-3.78
				l1.39,2.4c2.09,3.61,3.54,7.56,4.29,11.67l1.89-3.78l0.17,0.63c2.66,9.97-2.18,20.71-11.74,24.61c-2.52,1.03-5.28,1.6-8.17,1.6
				l0,0v2.5l0,0C179.83,64.13,183.48,63.38,186.82,62.02z"/>
		</g>
		<g class="st10">
			<path class="st1" d="M176.04,30.41l2.57,2.78c1.02,1.11,1.97,2.28,2.83,3.5c2.65,3.77,3.92,8.35,3.92,12.96v0.23
				c0,5.17-4.19,9.36-9.37,9.36v2.38l0,0c2.89,0,5.65-0.57,8.17-1.6c9.56-3.9,14.4-14.64,11.74-24.61l-0.17-0.63l-1.89,3.78
				c-0.75-4.11-2.2-8.06-4.29-11.67l-1.39-2.4l-2.7,3.78c-1.56-4.14-3.9-7.93-6.9-11.17L176,14.34l0,0v16.13L176.04,30.41z"/>
		</g>
		<g>
			<path class="st1" d="M185.37,49.89v-0.23c0-4.61-1.27-9.19-3.92-12.96c-0.86-1.23-1.81-2.4-2.83-3.5l-2.57-2.78L176,30.46v28.79
				C181.17,59.25,185.37,55.06,185.37,49.89z"/>
		</g>
		<g>
			<path class="st13" d="M188.61,29.43l-0.63-0.68l-0.72,0.81c-0.2,0.22-0.39,0.46-0.57,0.71c-0.67,0.94-1.01,2.08-1.02,3.24l0,0
				c0,1.27,1.02,2.3,2.29,2.3l0,0c1.27,0,2.29-1.03,2.29-2.29v-0.06c0-1.13-0.31-2.25-0.96-3.17
				C189.1,29.98,188.86,29.7,188.61,29.43z"/>
		</g>
		<g>
			<path class="st13" d="M163.52,37.75l-0.63-0.68l-0.72,0.81c-0.19,0.22-0.39,0.46-0.57,0.71c-0.67,0.94-1.01,2.08-1.02,3.24l0,0
				c0,1.27,1.02,2.3,2.29,2.3l0,0c1.27,0,2.29-1.03,2.29-2.29v-0.06c0-1.13-0.31-2.25-0.96-3.17
				C164.01,38.31,163.77,38.03,163.52,37.75z"/>
		</g>
		<g>
			<path class="st12" d="M176.78,5.7l-0.77-0.83l-0.88,0.99c-0.24,0.27-0.47,0.56-0.69,0.87c-0.82,1.15-1.24,2.54-1.24,3.96l0,0
				c0,1.55,1.25,2.81,2.8,2.81l0,0c1.55,0,2.8-1.25,2.8-2.8v-0.07c0-1.38-0.38-2.75-1.17-3.88C177.37,6.38,177.09,6.03,176.78,5.7z"
				/>
		</g>
	</g>
	<g>
		<polygon points="201.99,14.37 196.98,9.36 176,30.34 155.02,9.36 150.01,14.37 170.99,35.35 150.01,56.33 155.02,61.34 176,40.36 
			196.98,61.34 201.99,56.33 181.01,35.35 		"/>
	</g>
</g>
<g>
	<g>
		<g>
			<polygon class="st7" points="-124.7,-133.42 -154.73,-110.55 -94.67,-110.55 			"/>
		</g>
		<g>
			<rect x="-149.34" y="-110.55" class="st5" width="49.27" height="37.09"/>
		</g>
		<g class="st2">
			<rect x="-124.7" y="-111.06" class="st7" width="24.64" height="37.6"/>
		</g>
		<g>
			<g>
				<rect x="-151.55" y="-73.46" class="st7" width="53.7" height="5.54"/>
			</g>
		</g>
		<g>
			<rect x="-124.7" y="-73.46" width="26.85" height="5.54"/>
		</g>
		<g>
			<rect x="-134.2" y="-105.35" width="18.36" height="31.89"/>
		</g>
	</g>
	<g>
		<polygon points="-124.7,-133.42 -125.02,-133.14 -125.02,-110.55 -94.67,-110.55 		"/>
	</g>
	<g>
		<g>
			<path class="st0" d="M-112.51-90.08L-112.51-90.08c-0.51-2.81-1.5-5.5-2.93-7.97l-0.95-1.64l-1.85,2.58l0,0
				c-1.06-2.82-2.67-5.42-4.72-7.63l-1.76-1.9l-2.01,2.26c-1.76,1.98-3.17,4.24-4.17,6.7l-0.23,0.57l-1.9-2.58l-1.09,1.94
				c-1.26,2.23-2.16,4.65-2.68,7.16l-0.1,0.51l-1.29-2.58l-0.11,0.43c-1.82,6.82,1.5,14.15,8.03,16.82c1.72,0.7,3.6,1.09,5.57,1.09
				l0,0c1.97,0,3.86-0.39,5.58-1.09c6.53-2.66,9.84-10,8.02-16.81l-0.11-0.43L-112.51-90.08z"/>
		</g>
		<g>
			<path class="st12" d="M-115.49-87.52L-115.49-87.52c-0.38-2.12-1.13-4.15-2.21-6.02l-0.72-1.24l-1.39,1.95l0,0
				c-0.8-2.13-2.01-4.09-3.56-5.76l-1.33-1.43l-1.52,1.71c-1.33,1.5-2.39,3.21-3.15,5.06l-0.18,0.43l-1.44-1.95l-0.83,1.46
				c-0.95,1.69-1.63,3.51-2.02,5.41l-0.08,0.39l-0.98-1.95l-0.09,0.32c-1.37,5.15,1.13,10.69,6.06,12.7
				c1.3,0.53,2.72,0.82,4.21,0.82l0,0c1.49,0,2.91-0.29,4.21-0.82c4.93-2.01,7.43-7.55,6.06-12.7l-0.09-0.32L-115.49-87.52z"/>
		</g>
		<g>
			<path class="st13" d="M-123.35-90.29l-1.33-1.43l-1.52,1.71c-0.41,0.46-0.81,0.97-1.19,1.5c-1.42,1.98-2.13,4.38-2.14,6.82l0,0
				c-0.01,2.67,2.16,4.85,4.83,4.85l0,0c2.67,0,4.83-2.16,4.83-4.83v-0.12c0-2.38-0.65-4.74-2.02-6.68
				C-122.34-89.12-122.82-89.72-123.35-90.29z"/>
		</g>
		<g>
			<path class="st1" d="M-119.12-75.42c6.53-2.66,9.84-10,8.02-16.81l-0.11-0.43l-1.29,2.58c-0.51-2.81-1.5-5.5-2.93-7.97
				l-0.95-1.64l-1.85,2.58c-1.06-2.82-2.67-5.42-4.72-7.63l-1.76-1.9l0,0v6.62l0,0l1.33,1.43c1.55,1.67,2.76,3.63,3.56,5.76
				l1.39-1.95l0.72,1.24c1.08,1.86,1.83,3.9,2.21,6.02l0.98-1.95l0.09,0.32c1.37,5.15-1.13,10.68-6.06,12.7
				c-1.3,0.53-2.72,0.82-4.21,0.82l0,0v1.29l0,0C-122.73-74.33-120.84-74.72-119.12-75.42z"/>
		</g>
		<g class="st10">
			<path class="st1" d="M-124.68-91.72l1.33,1.43c0.53,0.57,1.02,1.17,1.46,1.81c1.37,1.95,2.02,4.31,2.02,6.68v0.12
				c0,2.67-2.16,4.83-4.83,4.83v1.23l0,0c1.49,0,2.91-0.29,4.21-0.82c4.93-2.01,7.43-7.55,6.06-12.7l-0.09-0.32l-0.98,1.95
				c-0.38-2.12-1.13-4.15-2.21-6.02l-0.72-1.24l-1.39,1.95c-0.8-2.13-2.01-4.09-3.56-5.76l-1.33-1.43l0,0v8.32L-124.68-91.72z"/>
		</g>
		<g>
			<path class="st1" d="M-119.87-81.68v-0.12c0-2.38-0.65-4.74-2.02-6.68c-0.45-0.63-0.93-1.24-1.46-1.81l-1.33-1.43l-0.02,0.03
				v14.85C-122.03-76.85-119.87-79.01-119.87-81.68z"/>
		</g>
		<g>
			<path class="st13" d="M-118.19-92.23l-0.32-0.35l-0.37,0.42c-0.1,0.11-0.2,0.24-0.29,0.37c-0.35,0.49-0.52,1.07-0.52,1.67l0,0
				c0,0.66,0.53,1.19,1.18,1.19l0,0c0.65,0,1.18-0.53,1.18-1.18v-0.03c0-0.58-0.16-1.16-0.5-1.64
				C-117.95-91.95-118.06-92.09-118.19-92.23z"/>
		</g>
		<g>
			<path class="st13" d="M-131.14-87.94l-0.32-0.35l-0.37,0.42c-0.1,0.11-0.2,0.24-0.29,0.37c-0.35,0.49-0.52,1.07-0.52,1.67l0,0
				c0,0.66,0.53,1.19,1.18,1.19l0,0c0.65,0,1.18-0.53,1.18-1.18v-0.03c0-0.58-0.16-1.16-0.5-1.64
				C-130.89-87.65-131.01-87.8-131.14-87.94z"/>
		</g>
		<g>
			<path class="st12" d="M-124.3-104.47l-0.4-0.43l-0.45,0.51c-0.12,0.14-0.24,0.29-0.36,0.45c-0.42,0.59-0.64,1.31-0.64,2.04l0,0
				c0,0.8,0.65,1.45,1.45,1.45l0,0c0.8,0,1.45-0.65,1.45-1.45v-0.04c0-0.71-0.2-1.42-0.61-2
				C-123.99-104.12-124.14-104.3-124.3-104.47z"/>
		</g>
	</g>
</g>
<g>
	<path d="M-347.4,103.22l-5.22-5.06h-15.45l-2.73,2.64l-9.18-8.51l-1.65,1.78l9.08,8.42l-0.75,0.72c-0.43,0.42-0.68,1-0.68,1.6v16.3
		c0,1.43,1.16,2.59,2.59,2.59h22.07c1.43,0,2.59-1.16,2.59-2.59v-16.3C-346.72,104.22-346.97,103.64-347.4,103.22z"/>
	
		<ellipse transform="matrix(0.2278 -0.9737 0.9737 0.2278 -356.3281 -288.9678)" class="st0" cx="-360.34" cy="80.16" rx="20.37" ry="20.37"/>
	<path class="st1" d="M-363.93,117.02c0,1.07-0.87,1.95-1.95,1.95c-1.07,0-1.95-0.87-1.95-1.95c0-1.08,0.87-1.95,1.95-1.95
		C-364.8,115.07-363.93,115.94-363.93,117.02z"/>
	<circle class="st1" cx="-380.72" cy="93.02" r="1.95"/>
	<path class="st1" d="M-352.87,117.02c0,1.07-0.87,1.95-1.95,1.95s-1.95-0.87-1.95-1.95c0-1.08,0.87-1.95,1.95-1.95
		S-352.87,115.94-352.87,117.02z"/>
	<path class="st1" d="M-358.4,117.02c0,1.07-0.87,1.95-1.95,1.95c-1.08,0-1.95-0.87-1.95-1.95c0-1.08,0.87-1.95,1.95-1.95
		C-359.27,115.07-358.4,115.94-358.4,117.02z"/>
	<rect x="-367.82" y="109.48" class="st1" width="14.96" height="2.13"/>
	<path class="st1" d="M-339.97,80.16c0-11.25-9.12-20.37-20.37-20.37v40.75C-349.09,100.54-339.97,91.42-339.97,80.16z"/>
	<path class="st5" d="M-357,80.41c0,1.85-1.5,3.34-3.34,3.34c-1.85,0-3.34-1.5-3.34-3.34c0-1.85,1.5-3.34,3.34-3.34
		C-358.5,77.06-357,78.56-357,80.41z"/>
</g>
<g>
	<g>
		<path class="st0" d="M-534.48,102.6h-48.13v-4.68c0-13.29,10.77-24.07,24.07-24.07l0,0c13.29,0,24.06,10.78,24.06,24.07V102.6z"/>
	</g>
	<g>
		<g>
			<path class="st7" d="M-520.63,111.89h-10.95c-4.69,0-9.66-0.9-14.75-2.69c-2.93-1.03-5.99-1.55-9.1-1.55h-6.22
				c-3.11,0-6.17,0.52-9.1,1.55c-5.09,1.79-10.06,2.69-14.75,2.69h-10.96v-1.94h10.96c4.48,0,9.22-0.87,14.11-2.58
				c3.14-1.1,6.42-1.66,9.74-1.66h6.22c3.33,0,6.61,0.56,9.74,1.66c4.89,1.71,9.63,2.58,14.11,2.58h10.95V111.89z"/>
		</g>
	</g>
	<g class="st4">
		<path d="M-534.39,97.71c0-11.82-8.54-21.64-19.78-23.66v9.61l2.92,0.75v6.21c0,3.18-1.6,6.15-4.26,7.89l-3.06,2.01l-0.1-0.06v1.94
			h24.27V97.71z"/>
	</g>
	<g>
		<path class="st0" d="M-582.61,102.6l-13.85,7.35h11.05c4.93,0,9.78-1,14.43-2.63c2.95-1.03,6.12-1.6,9.42-1.6h2.9v-3.12H-582.61z"
			/>
	</g>
	<g>
		<path class="st1" d="M-545.92,107.32c4.65,1.63,9.5,2.63,14.43,2.63h10.86l-13.85-7.35h-24.18v3.12h3.31
			C-552.04,105.72-548.87,106.28-545.92,107.32z"/>
	</g>
	<g class="st4">
		<rect x="-582.61" y="98.84" width="23.86" height="3.76"/>
	</g>
	<g>
		<path class="st5" d="M-554.26,83.86V71.61h-8.58v12.2l-3.14,0.81v6.21c0,3.18,1.6,6.15,4.26,7.89l3.06,2.01l3.06-2.01
			c2.66-1.74,4.26-4.71,4.26-7.89v-6.21L-554.26,83.86z"/>
	</g>
	<g>
		<path class="st0" d="M-556.38,96.7l-2.27,1.49l-2.27-1.49c-1.98-1.29-3.17-3.5-3.17-5.86v-4.61l5.44-1.39l5.44,1.39v4.61
			C-553.22,93.2-554.41,95.4-556.38,96.7z"/>
	</g>
	<g class="st2">
		<path class="st7" d="M-554.26,83.86v-9.61v-2.64h-4.5v2.25v10.99l0.1-0.02l5.44,1.39v4.61c0,2.36-1.19,4.57-3.17,5.86l-2.27,1.49
			l-0.1-0.06v2.54l0.1,0.06l3.06-2.01c2.66-1.74,4.26-4.71,4.26-7.89v-6.21L-554.26,83.86z"/>
	</g>
	<g>
		<path class="st1" d="M-556.38,96.7c1.98-1.29,3.17-3.5,3.17-5.86v-4.61l-5.44-1.39l-0.1,0.02v13.27l0.1,0.06L-556.38,96.7z"/>
	</g>
</g>
<g>
	<g>
		<path class="st1" d="M-534.88-114.06c-0.82-0.82-2.15-0.82-2.97,0l-11.94,11.94l-0.6-0.6l14.89-14.89c1.02-1.02,1.02-2.67,0-3.68
			c-1.02-1.02-2.67-1.02-3.68,0l-14.89,14.89l-0.5-0.5l16.15-16.15c1.02-1.02,1.02-2.67,0-3.68c-1.02-1.02-2.67-1.02-3.68,0
			l-16.15,16.15l-0.53-0.53l14.84-14.84c1.02-1.02,1.02-2.67,0-3.68c-1.02-1.02-2.67-1.02-3.68,0l-17.36,17.36l-0.95-0.95l9.75-9.75
			c1.11-1.11,1.39-2.91,0.46-4.19c-1.17-1.63-3.46-1.77-4.82-0.41l-14.32,14.32c-1.23,1.23-2.06,2.78-2.41,4.48l-2.88,9.14
			l-10.5,10.5l14.42,14.42l10.5-10.5l0,0c5.81-2.53,12.36-7.39,16.85-11.88l2.03-2.03l0.05-0.05l11.94-11.94
			C-534.06-111.91-534.06-113.24-534.88-114.06z"/>
	</g>
	<path class="st0" d="M-526.51-110.91c-0.82-0.82-2.15-0.82-2.97,0l-11.94,11.94l-0.6-0.6l14.89-14.89c1.02-1.02,1.02-2.67,0-3.68
		c-1.02-1.02-2.67-1.02-3.68,0l-14.89,14.89l-0.5-0.5l16.15-16.15c1.02-1.02,1.02-2.67,0-3.68c-1.02-1.02-2.67-1.02-3.68,0
		l-16.15,16.15l-0.53-0.53l14.84-14.84c1.02-1.02,1.02-2.67,0-3.68c-1.02-1.02-2.67-1.02-3.68,0l-17.37,17.37l-0.95-0.95l9.75-9.75
		c1.11-1.11,1.39-2.91,0.46-4.19c-1.17-1.63-3.46-1.77-4.82-0.41l-14.32,14.32c-1.23,1.23-2.07,2.78-2.41,4.48l-2.88,9.14
		l-10.5,10.5l14.42,14.42l10.5-10.5l0,0c5.81-2.53,12.36-7.39,16.85-11.88l2.03-2.03l0.05-0.05l11.94-11.94
		C-525.69-108.76-525.69-110.09-526.51-110.91z"/>
	<rect x="-592.47" y="-86.58" transform="matrix(0.7071 0.7071 -0.7071 0.7071 -229.5826 386.6128)" width="22.01" height="5.52"/>
	<path class="st5" d="M-569.43-103.97l-0.93,2.97l16.94,16.94c0.81-0.46,1.62-0.95,2.43-1.47L-569.43-103.97z"/>
	<path class="st5" d="M-543.93-90.8l-20.93-20.93l-1.65,1.65c-0.1,0.1-0.18,0.22-0.28,0.32l20.71,20.71
		C-545.33-89.62-544.62-90.21-543.93-90.8z"/>
	<path d="M-547.85-87.7l-20.23-20.23c-0.26,0.5-0.46,1.02-0.62,1.56l19.58,19.58C-548.7-87.09-548.27-87.39-547.85-87.7z"/>
	
		<rect x="-584.13" y="-83.46" transform="matrix(0.7071 0.7071 -0.7071 0.7071 -224.9175 381.6178)" class="st7" width="22.01" height="5.52"/>
</g>
<g>
	<g>
		<path class="st1" d="M-642.54,62.62l-21.7,24.75l4.43,3.89l21.7-24.75c1.07-1.22,0.95-3.09-0.27-4.16l0,0
			C-639.61,61.27-641.47,61.39-642.54,62.62z"/>
		<rect x="-667.87" y="88.24" transform="matrix(0.7519 0.6592 -0.6592 0.7519 -103.8951 461.3268)" width="5.9" height="8.75"/>
		<path class="st6" d="M-684.82,120.71l-3.42-1.51l-1.94-3.2c-3.15-5.18-2.57-11.81,1.43-16.38l10.95-12.49l19.99,17.53
			l-10.95,12.49C-672.77,121.72-679.27,123.16-684.82,120.71z"/>
		<path class="st7" d="M-670.03,93.96l-9.87,11.26c-1.19,1.36-1.81,3.12-1.73,4.95l0.01,0.3c0.03,0.61,0.56,1.08,1.17,1.02l0.3-0.03
			c1.82-0.16,3.49-1,4.68-2.36l9.87-11.26L-670.03,93.96z"/>
		
			<rect x="-683" y="95.56" transform="matrix(0.7519 0.6593 -0.6593 0.7519 -102.0044 464.9453)" class="st7" width="28.55" height="2.78"/>
		<path class="st4" d="M-668.74,117.13l10.92-12.46l-9.99-8.76l-20.43,23.3l3.38,1.49C-679.28,123.15-672.76,121.71-668.74,117.13z"
			/>
	</g>
	<g>
		<rect x="-663.67" y="118.91" class="st1" width="40.56" height="2.98"/>
		<path class="st1" d="M-645.11,74.22l-11.09,44.69h25.63l-11.09-44.69C-642.19,72.53-644.58,72.53-645.11,74.22z"/>
		<polygon class="st5" points="-654.74,113.02 -632.03,113.02 -633.45,107.32 -653.33,107.32 		"/>
		<polygon class="st5" points="-651.89,101.53 -634.88,101.53 -636.3,95.82 -650.47,95.82 		"/>
		<polygon class="st5" points="-639.15,84.32 -647.62,84.32 -649.04,90.03 -637.74,90.03 		"/>
	</g>
</g>
<g>
	<g>
		<path class="st0" d="M-352.95-91.05c-2.24,1.95-5.16,3.14-8.37,3.14c-3.2,0-6.13-1.19-8.37-3.14l-11.95,13.43
			c-0.52,0.59-0.2,1.53,0.58,1.66l4.94,0.84c1.26,0.21,2.48,0.61,3.62,1.2c3.44,1.76,7.21,3.65,11.17,3.65s7.74-1.89,11.17-3.65
			c1.14-0.58,2.36-0.98,3.62-1.2l4.94-0.84c0.78-0.13,1.11-1.07,0.58-1.66L-352.95-91.05z"/>
		<path class="st0" d="M-344.98-125.08c-2.41,0-4.76-0.68-6.8-1.98c-2.99-1.9-6.19-4.01-9.54-4.01s-6.55,2.1-9.54,4.01
			c-2.03,1.29-4.39,1.98-6.8,1.98h-2.95c-0.87,0-1.33,1.02-0.75,1.67l11.67,13.11c2.24-1.95,5.16-3.14,8.37-3.14
			c3.21,0,6.13,1.19,8.37,3.14l11.67-13.11c0.58-0.65,0.12-1.67-0.75-1.67H-344.98z"/>
		<path class="st0" d="M-335.77-115.47l-0.84-4.94c-0.13-0.78-1.07-1.11-1.66-0.58l-13.43,11.95c1.95,2.24,3.14,5.16,3.14,8.37
			c0,3.2-1.19,6.13-3.14,8.37l13.43,11.95c0.59,0.52,1.52,0.2,1.66-0.58l0.84-4.94c0.21-1.26,0.61-2.48,1.2-3.62
			c1.76-3.44,3.65-7.21,3.65-11.17c0-3.97-1.89-7.74-3.65-11.17C-335.16-112.99-335.56-114.21-335.77-115.47z"/>
		<path class="st0" d="M-370.94-109.04l-13.11-11.67c-0.65-0.58-1.67-0.12-1.67,0.75v2.95c0,2.41-0.68,4.76-1.98,6.8
			c-1.9,2.99-4,6.19-4,9.54c0,3.35,2.1,6.55,4,9.54c1.29,2.03,1.98,4.39,1.98,6.8v2.95c0,0.87,1.02,1.33,1.67,0.75l13.11-11.67
			c-1.95-2.24-3.14-5.16-3.14-8.37C-374.08-103.88-372.89-106.8-370.94-109.04z"/>
	</g>
	<path d="M-341.7-100.67c0,10.83-8.78,19.62-19.62,19.62c-10.83,0-19.62-8.78-19.62-19.62c0-10.83,8.78-19.62,19.62-19.62
		C-350.48-120.29-341.7-111.51-341.7-100.67z"/>
	<g>
		<path class="st1" d="M-361.32-83.64c-9.35,0-16.96-7.61-16.96-16.96c0-9.35,7.61-16.96,16.96-16.96c9.35,0,16.96,7.61,16.96,16.96
			C-344.36-91.24-351.97-83.64-361.32-83.64z M-361.32-115.01c-7.95,0-14.42,6.47-14.42,14.42c0,7.95,6.47,14.42,14.42,14.42
			c7.95,0,14.42-6.47,14.42-14.42C-346.9-108.54-353.37-115.01-361.32-115.01z"/>
	</g>
	<g>
		<path class="st5" d="M-361.32-86.17c-7.95,0-14.42-6.47-14.42-14.42c0-7.95,6.47-14.42,14.42-14.42s14.42,6.47,14.42,14.42
			C-346.9-92.64-353.37-86.17-361.32-86.17z M-361.32-113.57c-7.16,0-12.98,5.82-12.98,12.98c0,7.16,5.82,12.98,12.98,12.98
			s12.98-5.82,12.98-12.98C-348.34-107.75-354.16-113.57-361.32-113.57z"/>
	</g>
	<g>
		<path class="st5" d="M-349.99-102.58L-349.99-102.58l-0.05-0.05l-1.14-0.16c-1.3-0.18-2.5-0.78-3.42-1.7l-2.56-2.56l-2.75-1.72
			l1.53,2.94l-0.83,0.83c-0.22,0.22-0.22,0.57,0,0.78l0.84,0.84l-1.77,1.77l0,0l-0.92,0.92l-0.92-0.92l-1.83-1.83l-1.36,1.36
			l2.75,2.75l-5.32,5.32c-0.38,0.37-0.38,0.98,0,1.36c0.37,0.37,0.98,0.37,1.36,0l5.32-5.32l5.32,5.32c0.38,0.37,0.98,0.37,1.36,0
			c0.38-0.37,0.38-0.98,0-1.36l-5.32-5.32l0.92-0.92l1.77-1.77c0.91,0.92,1.5,2.11,1.68,3.4l0.16,1.14l0.05,0.05
			c0.31-0.04,0.62-0.11,0.92-0.2c0.91-0.28,1.78-0.78,2.51-1.52c0.66-0.66,1.13-1.44,1.42-2.25
			C-350.15-101.8-350.04-102.19-349.99-102.58L-349.99-102.58z"/>
		<path class="st5" d="M-369.75-108.04l2.01,3.73c-0.07,0.05-0.15,0.11-0.21,0.17c-0.69,0.69-0.69,1.82,0,2.51l0.53,0.53
			c-0.44-0.44-0.44-1.14,0-1.58c0.43-0.44,1.14-0.44,1.58,0l0.04,0.04l0.63,0.54l0.01-0.01l1.35-1.35l-2.17-2.55L-369.75-108.04z"/>
	</g>
</g>
</svg>
